<svg width="188" height="111" viewBox="0 0 188 111" fill="none" xmlns="http://www.w3.org/2000/svg">
    <path
        d="M184.328 110.094H3.14894C1.90245 110.094 0.891968 108.983 0.891968 107.613V3.84314C0.891968 2.47249 1.90245 1.36133 3.14894 1.36133H184.328C185.575 1.36133 186.585 2.47249 186.585 3.84314V107.613C186.585 108.983 185.575 110.094 184.328 110.094Z"
        fill="#ED5F70" />
    <path
        d="M184.328 109.641C186.823 109.16 185.848 106.776 185.992 105.646C185.972 104.365 186.024 103.391 186.246 101.637C185.988 95.6889 185.952 88.8161 186.411 84.9247C186.17 81.9641 186.154 78.8171 186.366 77.3526C185.778 75.6006 186.336 72.3939 185.935 72.1295C186.937 66.5239 185.193 54.9362 186.082 52.3874C185.611 46.1933 185.699 39.1682 186.238 34.1584C185.972 34.0377 185.715 31.3622 186.206 28.8585C185.629 27.4964 185.675 20.179 186.114 13.7132C185.868 13.8399 185.549 7.4167 185.921 3.87129L185.922 3.89323L185.921 3.86888C185.986 3.41931 185.924 3.01113 185.842 2.67852C185.405 2.12417 185.371 2.30571 185.551 2.58471C185.732 2.88565 185.89 3.42415 185.92 3.87007V3.87375C185.888 3.09278 185.324 2.40077 184.643 2.28381C184.375 2.23264 183.738 2.28865 183.238 2.285C182.714 2.28865 182.196 2.29111 181.693 2.29355C179.68 2.28136 177.892 2.16805 176.848 1.88296C175.476 2.31425 169.299 2.32032 167.207 1.9536C167.182 2.22895 166.367 2.28499 164.454 1.97431C163.65 2.00355 163.916 2.2448 163.835 2.41781C157.621 2.48482 156.858 1.91461 150.703 2.22164C155.493 1.44068 142.238 2.32521 145.098 1.67705C140.676 1.86224 140.973 2.53598 137.496 1.58688C137.875 2.45435 131.125 1.39072 126.549 2.10589C128.041 1.88415 125.624 1.75625 127.166 1.66243C126.51 1.50405 125.878 1.62589 123.7 1.54182C124.182 1.73432 125.215 1.80254 126.501 1.8135C125.122 1.81838 119.449 2.18143 118.903 1.72211C118.025 2.48236 113.376 1.93779 110.709 2.22045C93.9385 1.73798 85.4978 1.1702 69.2902 1.93776C56.7589 1.5089 43.4198 1.51867 34.783 1.75137C35.2207 1.3481 33.367 1.46749 33.3139 1.17752C33.8911 1.4748 30.8009 2.05107 30.5572 1.19823C28.9838 1.66242 28.4143 1.12146 25.0217 1.09222C27.518 1.9207 15.7933 1.4687 13.3368 1.32371C12.5347 1.35295 12.7984 1.59542 12.7197 1.76721C10.6467 1.74163 8.7941 1.71847 7.10995 1.69776C6.26788 1.69045 5.46681 1.68314 4.7023 1.67705C3.95662 1.70385 3.15222 1.59175 2.59047 1.75379C1.99548 1.94142 1.52237 2.4373 1.30853 3.02089C1.08361 3.57402 1.18444 4.28554 1.1645 4.96416C1.17558 6.31044 1.18665 7.58973 1.19773 8.85804C1.262 13.93 1.40604 18.8315 1.61655 27.2673C1.0825 24.7441 1.61212 29.5578 1.64868 32.5708C1.52681 32.0055 1.34399 31.8143 1.11242 31.9178C1.73068 38.2057 1.7617 48.6945 1.13015 56.9343C1.22211 57.6872 1.44038 57.6555 1.41047 59.1553C0.9296 58.9348 1.24759 61.3812 1.31851 65.9976C1.46365 75.3277 1.775 86.3234 1.63871 97.0217C1.58775 99.5242 1.53789 101.958 1.49024 104.284C1.46254 105.442 1.43484 106.572 1.40825 107.671C1.38831 108.535 1.96446 109.34 2.70127 109.548C2.98935 109.661 3.54002 109.615 3.97213 109.634C4.42641 109.637 4.87071 109.64 5.30615 109.643C6.17703 109.644 7.01134 109.634 7.80466 109.61C9.39019 109.562 10.8095 109.457 12.0305 109.269C11.6128 109.805 17.8331 109.284 16.9699 109.964C23.4395 108.976 32.3843 109.779 43.0708 109.334C44.0802 109.392 43.0198 109.462 43.1184 109.627C54.6947 109.483 70.1688 109.264 74.8224 109.542C77.9325 108.92 82.2603 109.739 85.7715 109.023C86.5837 109.041 86.3964 109.284 86.5327 109.455C90.0672 109.169 94.8659 109.058 94.7961 109.395C96.3118 108.912 97.781 109.297 99.546 108.921C98.1067 109.464 101.707 108.901 103.059 109.334C102.469 109.252 110.701 108.956 114.033 108.962C119.113 108.969 125.006 109.607 127.806 108.86C139.892 109.565 153.803 108.78 165.711 108.73C165.553 108.968 166.402 108.977 166.47 109.164C168.857 108.689 179.177 109.105 183.688 109.038C184.386 109.027 184.121 108.746 184.33 108.741L183.902 110.353C182.572 109.565 170.185 110.768 161.768 109.929C160.451 110.293 160.705 110.084 158.371 110.247C158.454 110.245 159.074 109.951 159.014 109.95C151.82 109.873 144.186 110.776 137.046 110.549C134.392 110.465 121.678 110.694 115.602 110.12C91.2771 111.307 66.3441 110.225 44.7095 110.93C43.7411 110.848 44.5156 110.369 43.237 110.355C41.5529 110.383 43.1705 110.839 43.9982 110.789C36.4528 110.844 27.0493 110.912 17.8264 110.979C14.6188 110.99 10.7009 111.021 7.03572 110.978C6.11941 110.962 5.21973 110.946 4.34885 110.932C3.90233 110.917 3.46246 110.904 3.03256 110.89C2.52621 110.865 1.95117 110.645 1.54675 110.324C0.689168 109.673 0.279213 108.578 0.331288 107.638C0.375607 106.877 0.431006 106.193 0.494161 105.588C-0.0243767 103.384 0.321315 95.0577 0.57172 96.4723C0.259268 94.3584 0.162875 85.8336 0.618258 82.0579C0.300265 78.9231 0.418818 72.7765 0.425466 72.2392C0.42879 72.0163 0.203869 70.4567 0.27478 69.2359C0.2914 68.9569 0.667007 67.802 0.663683 67.6436C0.624904 65.4895 0.412172 68.8424 0.260378 66.9637C-0.211625 61.09 0.886391 52.9758 0.137391 46.5173C0.78224 42.5017 0.204977 39.2121 0.0553985 32.8852L0.852041 32.728C0.295832 32.276 0.795534 30.2511 0.302479 29.804C0.106365 30.1719 0.360096 30.7616 0.315776 32.075C-0.252621 31.0223 0.239325 26.155 0.678088 25.9393C0.640416 24.5991 0.446518 24.3299 0.343475 25.0573C0.46203 22.8837 0.557318 18.5439 0.0963948 17.7118C0.64928 16.5617 -0.325749 14.0555 0.46757 13.093C0.146253 12.005 0.0132958 9.11996 0 6.24952C0.00443195 5.53191 0.00775556 4.81551 0.0121875 4.12714L0.0166191 3.87007L0.0332404 3.56793C0.0565081 3.31695 0.108582 3.05502 0.167305 2.85521C0.294724 2.42513 0.497486 2.04379 0.740135 1.73189C1.22876 1.10566 1.86142 0.759623 2.40766 0.652407C2.68133 0.589053 2.93284 0.590261 3.1489 0.603663C3.31288 0.62803 3.45692 0.648773 3.57658 0.66583C5.51113 0.213821 7.20192 0.474519 10.3929 0.178459C8.43622 0.425784 9.63284 0.557383 11.8433 0.606117C11.8012 0.463569 10.9824 0.498902 10.4417 0.469662C10.9857 -0.0237713 11.964 0.33078 13.1983 0.450179C15.616 -0.46846 29.1534 0.335636 35.2107 0.143137C37.235 0.255225 36.024 0.356356 35.9952 0.721862C36.537 0.641451 37.0888 0.561053 38.0372 0.561053C37.655 0.44531 37.2805 0.328326 37.2805 0.127297C43.2448 -0.0493639 49.6124 0.396573 57.3461 0.565924C67.3058 0.784009 88.5105 -0.495265 95.9861 0.723089C104.755 0.327124 115.984 0.896097 129.046 0.481857C126.788 1.381 133.976 0.161434 135.291 0.729187C137.621 -0.116351 150.429 0.971634 159.467 0.991128C166.55 1.00819 172.321 -0.151695 175.33 1.02158C177.015 0.628051 178.442 0.916791 181.483 0.684086C180.563 0.892424 181.706 0.960653 183.281 0.936286C183.681 0.928976 184.11 0.921688 184.54 0.913159C185.068 0.944836 185.55 1.12757 185.958 1.43094C186.792 2.0255 187.138 3.01725 187.24 3.57526C187.212 4.8192 187.131 3.56184 186.978 3.66174C187.138 9.57928 187.316 7.70423 187.042 12.7823C186.842 12.4863 187.088 11.8016 187.027 10.5065C186.554 11.8259 187.068 14.1445 186.793 15.8587C187.202 14.7305 187.278 22.5803 186.843 24.1898C186.871 25.0719 187.089 24.7819 187.247 24.8684C186.767 32.1724 187.765 46.8743 187.169 55.973C187.146 56.3117 186.779 57.3168 186.779 57.5641C186.779 59.1431 187.083 56.8855 187.04 56.7564C187.591 58.4828 187.114 69.6137 187.15 74.9305C187.202 82.4722 187.498 91.8766 187.292 98.407C186.765 97.3154 187.028 100.429 186.775 100.784C186.744 102.329 187.158 100.553 187.168 99.9482C187.363 99.707 187.171 104.591 186.915 102.273C187.067 103.876 187.129 105.037 187.147 106.349C187.148 106.677 187.15 107.015 187.151 107.372L187.149 107.674C187.142 107.772 187.145 107.841 187.129 107.969C187.097 108.235 187.049 108.466 186.964 108.701C186.655 109.627 185.794 110.575 184.534 110.661C184.776 110.577 184.987 110.447 185.021 110.38C185.054 110.303 184.924 110.346 184.459 110.372C184.439 110.316 184.71 110.279 185.031 110.134C185.353 109.996 185.703 109.729 185.91 109.481C186.12 109.235 186.209 109.04 186.145 109.12C186.071 109.169 185.869 109.61 185.067 109.942C185.104 109.841 185.537 109.596 185.848 109.216C186.176 108.853 186.35 108.379 186.441 108.387C186.422 107.676 186.326 108.21 185.959 108.779C185.589 109.384 184.725 109.725 184.328 109.641ZM25.6643 0.787635C23.8106 0.653617 22.1309 0.660948 20.8667 0.969191C22.3381 1.30546 27.5147 0.59148 25.6643 0.787635Z"
        fill="#ED5F70" />
    <path
        d="M0.34234 25.0486C0.310208 25.2752 0.284724 25.5871 0.278076 26.0086C0.293588 25.7918 0.316856 25.4433 0.34234 25.0486Z"
        fill="#ED5F70" />
    <path
        d="M186.585 1.36133L97.7468 66.927C95.3225 68.7168 92.1548 68.7168 89.7305 66.927L0.89209 1.36133"
        fill="#F27086" class="envelope-flap" />
    <path
        d="M1.12249 0.985134C2.97615 2.17303 3.2188 2.04511 4.01545 3.21839C5.92783 4.28688 7.9898 5.76229 8.89059 7.03425C9.90551 7.46311 10.8495 8.13931 11.1664 8.65346C12.014 8.50116 12.6566 9.7134 12.9591 9.40638C14.066 11.5507 18.4824 12.501 18.745 13.8717C20.848 14.8013 22.8867 16.4216 24.0756 18.0128C24.2595 17.7972 25.1979 18.1493 25.6688 19.1459C26.3957 18.9169 28.5441 20.5653 30.2216 22.3843C30.3213 22.1321 32.4076 23.2493 33.2541 24.3666L33.2475 24.3629L33.2552 24.3678C33.4015 24.5615 33.5145 24.754 33.5699 24.9416C34.1028 25.3181 33.6729 24.5456 33.2552 24.3678L33.2541 24.3666C34.6502 25.1061 36.3631 26.2318 36.7565 27.2077C37.4235 27.1809 39.4456 28.6649 39.9431 29.4751C40.0904 29.2522 40.3851 29.4032 40.8527 30.1221C41.1308 30.2914 41.1663 30.027 41.2793 29.904C43.3435 31.3477 43.3047 32.0044 45.4719 33.2337C43.5108 32.7269 48.2917 35.1892 47.0275 35.0381C48.5665 35.9506 48.8114 35.3195 49.4662 36.9473C49.782 36.1358 51.4484 38.6469 53.3065 39.1574C52.7071 38.9807 53.4317 39.6715 52.8799 39.3767C53.014 39.6666 53.2821 39.7178 53.9513 40.3136C53.8915 40.037 53.589 39.7312 53.1735 39.412C53.6267 39.741 55.6643 40.807 55.6111 41.3199C56.2836 40.9008 57.5268 42.4737 58.5417 42.8819C63.7781 47.3276 66.2489 49.835 71.934 53.1063C75.8119 56.4848 80.1763 59.6939 83.1158 61.5848C82.769 61.8138 83.4349 62.1623 83.3052 62.4157C83.2676 62.0295 84.5695 62.2963 84.216 63.0639C84.965 63.0578 84.8775 63.6438 85.9711 64.4869C85.5777 63.193 89.172 66.407 89.9133 67.1052C90.198 67.2635 90.218 66.9931 90.3232 66.8627C91.6473 67.7655 92.9292 67.9946 93.9818 67.9641C95.0466 67.9398 95.9186 67.6266 96.6919 67.2027C97.4376 66.7677 98.1368 66.1049 98.9689 65.4177C99.7932 64.7123 100.738 63.9034 101.933 62.8812C101.48 63.9216 102.616 62.3828 103.492 61.6884C103.392 61.9235 103.437 62.1331 103.596 62.3207C105.12 60.3774 108.221 58.0479 111.02 56.8174C111.193 56.5688 111.063 56.3763 111.525 56.0754C111.727 56.5627 112.277 55.7367 113.61 54.6585C116.302 52.48 119.396 49.7838 122.652 47.5616C125.7 45.4806 128.643 44.0344 129.855 42.2276C129.99 42.7734 131.76 40.8411 131.822 41.6135C133.435 39.2329 136.766 37.7416 140.033 34.7957C140.392 34.5995 140.082 34.9139 140.197 35.0272C143.908 32.1153 148.854 28.2019 150.515 27.3101C151.216 26.0442 153.045 25.6799 153.83 24.2386C154.105 24.0571 154.167 24.3056 154.298 24.414C155.309 23.3236 156.82 22.0736 156.969 22.3709C157.219 21.6033 157.895 21.5692 158.281 20.8321C158.084 21.6289 158.976 20.2936 159.639 20.3277C159.404 20.4008 161.945 18.17 163.036 17.372C164.699 16.1524 166.949 15.2606 167.486 13.9655C171.792 11.636 175.941 7.62882 179.807 4.71452C179.875 4.94966 180.158 4.75227 180.274 4.89117C180.814 3.92136 184.397 1.77828 185.837 0.633028C186.06 0.456367 185.831 0.285785 185.897 0.232178L186.574 1.67473C185.74 1.3409 182.303 5.32855 179.126 6.66021C178.88 7.28035 178.857 7.04522 178.177 7.74334C178.202 7.72141 178.256 7.32786 178.235 7.34126C175.845 9.01284 173.808 11.6031 171.36 13.1382C170.451 13.7084 166.412 16.9651 164.135 17.9544C156.787 24.8064 148.09 29.9222 141.378 35.7265C141.019 35.8909 141.03 35.3062 140.606 35.6047C140.07 36.0347 140.83 36.0225 141.075 35.7813C138.638 37.6454 135.597 39.9724 132.618 42.252C130.532 43.8176 127.559 46.1324 125.838 46.7282C125.471 47.6846 122.804 49.1954 123.085 48.6569C122.631 49.4061 120.151 51.3628 118.775 51.7771C118.021 52.7554 116.128 53.9944 115.964 54.1065C115.896 54.1528 115.559 54.6999 115.155 54.9034C115.063 54.9497 114.511 54.8595 114.465 54.8973C113.847 55.4053 114.963 54.8644 114.487 55.4138C113.005 57.1329 109.981 57.9102 108.48 60.0107C106.928 60.3031 106.27 61.5519 104.474 63.0761L103.984 62.3828C104.16 62.9896 103.279 62.9774 103.421 63.5257C103.639 63.6243 103.673 63.2637 104.089 63.0164C104.092 63.7657 102.371 64.3846 102.063 64.0313C101.687 64.3602 101.714 64.5953 101.988 64.5308C101.276 64.8987 99.9328 65.7638 99.9428 66.3681C99.2935 66.1159 99.0907 67.5559 98.3628 67.0418C98.3262 67.1746 98.2509 67.322 98.1434 67.478C97.9927 67.6607 97.8775 67.796 97.7035 67.9641C97.2914 68.3028 96.7817 68.6293 96.2321 68.8182C95.1308 69.2458 93.9475 69.1617 93.5586 68.9705C92.6977 69.3713 91.9597 69.0618 90.5471 68.7548C91.4545 68.862 90.9581 68.5733 90.1304 68.0689C90.0861 68.2066 90.4196 68.3564 90.6301 68.477C90.2302 68.8291 89.9432 68.2991 89.5476 67.8873C88.2225 68.0469 84.2559 64.1287 82.164 62.8227C81.5591 62.2415 82.0067 62.4498 82.2006 62.1525C81.9823 62.0892 81.7618 62.0222 81.4516 61.7932C81.5181 61.9808 81.5812 62.1684 81.4793 62.3353C79.4406 61.0438 77.5858 59.1371 75.1438 57.1317C71.9993 54.5488 64.4218 50.4954 62.5959 47.681C59.5289 45.8949 56.1474 42.7137 51.6689 39.9079C52.8622 39.7056 49.8961 38.9843 49.7532 38.1961C48.5632 38.3362 44.9279 34.3436 41.9851 32.147C39.6782 30.4242 37.2052 29.9953 36.8163 28.2957C36.0662 28.2153 35.746 27.6318 34.6347 27.092C35.4468 27.1907 33.2796 25.7628 32.5871 25.6349C32.2846 25.3424 32.6669 25.5386 32.7201 25.3802C30.8985 24.2252 31.3373 24.8015 29.9867 23.4357C30.1861 23.3188 30.2526 23.6928 30.6703 23.9218C30.5418 23.2006 29.5656 23.1616 29.21 22.5341C29.3174 23.1555 26.943 21.501 26.7059 20.7529C26.4289 20.5848 26.3924 20.8479 26.2793 20.9722C24.3758 18.9327 19.4497 16.6191 17.0786 14.0788C16.9911 13.9838 16.8958 13.4282 16.8227 13.3734C16.3529 13.0273 16.8548 13.7998 16.9169 13.7888C16.0969 13.9131 13.0544 11.0353 11.4545 9.90349C9.18421 8.29648 6.22367 6.50428 4.3977 4.88265C5.01596 4.64142 3.94343 4.19793 3.97999 3.88846C3.5379 3.52052 3.83484 4.28931 4.0088 4.43064C3.97113 4.66213 2.62714 3.41576 3.45813 3.69111C2.33574 3.26468 1.93797 2.90281 0.660461 1.87574C0.858791 1.86111 1.0549 1.84408 0.792311 1.62112C0.882058 1.42618 2.24045 2.39962 1.15352 1.5285C1.2898 1.40423 1.91913 1.84529 1.83603 2.01464C2.41994 2.0451 1.40503 1.26779 1.12249 0.985134ZM85.611 64.5783C86.1494 65.1363 86.7012 65.5359 87.2707 65.5847C86.9605 64.9511 84.9074 64.2944 85.611 64.5783Z"
        fill="#F27086" />
    <path
        d="M101.985 64.528C102.07 64.5073 102.176 64.4622 102.306 64.3757C102.231 64.405 102.114 64.461 101.985 64.528Z"
        fill="#F27086" />
    <path
        d="M100.077 53.8214C97.2061 53.8969 94.7674 55.8073 93.6649 58.5084C92.4473 55.8682 89.9277 54.0882 87.0569 54.1637C83.0748 54.2685 79.9237 57.9029 80.0179 62.2817C80.122 67.099 88.9482 75.9857 92.5979 79.458C93.4888 80.306 94.8139 80.2962 95.6937 79.4336C99.2237 75.9735 107.581 67.1782 107.459 61.5604C107.365 57.1816 104.059 53.7166 100.077 53.8214Z"
        fill="#E03643" />
    <path
        d="M100.071 53.5948C100.891 53.5327 100.972 53.4303 101.419 53.741C102.246 53.7301 103.186 54.1041 103.55 54.5914C103.956 54.6865 104.345 54.9228 104.438 55.1567C104.813 55.0373 104.99 55.5905 105.138 55.454C105.272 55.9377 105.749 56.2971 106.153 56.715C106.567 57.1134 106.921 57.5435 106.803 57.8335C107.436 58.5365 107.716 59.6634 107.536 60.4675C107.679 60.4688 107.862 60.8708 107.63 61.2497C107.792 61.3265 107.87 61.6883 107.827 62.1257C107.827 62.5777 107.655 63.0919 107.436 63.5341C107.59 63.5549 107.446 64.5527 107.087 64.9755C107.026 65.0474 106.966 65.1082 106.889 65.1351C106.786 65.3738 107.08 65.1765 107.087 64.9755C106.953 65.6127 106.654 66.4082 106.269 66.563C106.333 66.8554 105.882 67.7594 105.556 67.9312C105.659 68.0092 105.612 68.1371 105.336 68.3113C105.281 68.4283 105.394 68.46 105.453 68.5197C104.966 69.3981 104.664 69.3055 104.24 70.212C104.394 69.3579 103.503 71.3304 103.529 70.759C103.186 71.3742 103.454 71.5619 102.787 71.6837C103.119 71.914 102.119 72.4135 101.904 73.1945C101.977 72.9411 101.694 73.1896 101.815 72.9727C101.697 72.9983 101.676 73.1153 101.432 73.3492C101.545 73.3565 101.67 73.2542 101.801 73.1031C101.666 73.2688 101.228 74.0802 101.015 73.984C101.179 74.347 100.526 74.7089 100.347 75.1219C98.4525 76.9068 97.3855 77.6256 95.8399 79.6749C95.0011 80.3474 93.861 80.4035 93.0478 79.9247C92.6212 79.6895 92.3375 79.3447 92.0273 79.0816C91.7248 78.8184 91.4434 78.5735 91.1863 78.3493C91.357 78.2458 91.1165 78.091 91.1985 77.9777C91.1719 78.152 90.6567 78.0313 90.8916 77.6865C90.5792 77.6877 90.6822 77.4246 90.3232 77.0445C90.3365 77.6256 89.2097 76.1685 88.9958 75.8407C88.9017 75.7616 88.854 75.8785 88.7909 75.9321C87.1067 73.9803 86.7965 73.7634 85.0924 72.0992C85.5201 72.1723 84.8819 71.8531 84.5982 71.5314C84.6935 71.5497 84.7788 71.5034 84.8553 71.4071C84.0664 70.9442 83.1135 69.7685 82.6991 68.5806C82.6016 68.5221 82.5174 68.5988 82.4077 68.4112C82.6238 68.2735 82.2814 68.1066 81.9025 67.5608C81.1203 66.4704 80.1873 65.1753 79.8162 63.4598C79.7297 63.0748 79.7552 62.7288 79.7297 62.3816C79.7497 61.9625 79.7896 61.6713 79.8284 61.346C79.917 60.7222 80.0101 60.2068 79.9425 59.7524C80.1574 59.8974 80.2306 58.8216 80.4876 59.0896C80.4588 57.9005 81.4693 56.7248 82.6382 55.4979C82.7767 55.415 82.667 55.5539 82.7246 55.6087C83.3961 54.9886 84.3124 54.4257 85.1833 54.1455C85.6054 53.9859 86.0519 53.9238 86.391 53.8763C86.7344 53.8616 86.9804 53.8421 87.1887 53.886C87.6818 53.5607 88.3067 54.048 88.8939 53.8251C89.0169 53.8653 88.9626 53.9774 88.9648 54.0663C89.5266 54.048 90.2523 54.3185 90.177 54.4696C90.4783 54.3575 90.6168 54.6292 90.9359 54.6134C90.6179 54.734 91.2451 54.7779 91.3115 55.0983C91.2617 54.985 92.394 55.6867 92.7419 56.1387C93.3225 56.7784 93.5785 57.7811 94.0693 58.0272L94.1413 58.2453L93.1807 58.2708C93.6893 57.4083 94.2078 56.5067 94.8793 55.7172C95.5341 54.9192 96.3307 54.2381 97.1728 53.83C97.1927 53.9506 97.3168 53.8945 97.3578 53.9762C97.4897 53.7922 97.9617 53.5839 98.4957 53.4681C99.022 53.3414 99.6502 53.3304 99.9538 53.2988C100.056 53.2866 100.009 53.1489 100.04 53.144L100.021 53.953C99.9162 53.7642 99.4043 53.8251 98.7938 54.0176C98.1777 54.2015 97.4952 54.5208 96.8581 54.6572C96.7673 54.9241 96.7451 54.7949 96.4958 55.0678C96.5047 55.0605 96.5124 54.8814 96.5058 54.8851C95.5463 55.4772 95.02 56.659 94.3995 57.5131C94.2876 57.6507 94.0682 58.0772 93.8422 58.595L93.6671 58.9958L93.4954 58.6047C93.2073 57.948 92.763 57.2353 92.5281 56.7248C91.121 55.4979 89.5055 54.6511 87.8036 54.4952C86.104 54.3173 84.4099 54.8595 83.2609 55.9755C83.1324 56.0339 83.0903 55.7659 82.9418 55.8865C82.759 56.0632 83.0703 56.0839 83.1457 55.9864C82.2925 56.6858 81.4438 57.8505 80.9685 59.1615C80.5951 60.0679 80.4355 61.4544 80.225 62.1464C80.3303 62.2378 80.4311 62.6557 80.4344 62.9652C80.4289 63.2978 80.4721 63.5037 80.3679 63.4355C80.4954 63.5634 80.6239 63.8911 80.7657 64.2603C80.9297 64.6282 81.0482 65.0498 81.0649 65.3532C81.4183 65.6614 81.7574 66.4679 81.8105 66.5264C81.826 66.5544 82.0355 66.6751 82.0964 66.842C82.1097 66.8797 82.0399 67.1356 82.0532 67.1539C82.2294 67.4024 82.0687 66.9309 82.2704 67.1112C82.8908 67.6583 83.1157 68.9668 83.9589 69.4334C84.0442 70.1181 84.5628 70.2729 85.1689 70.9101L84.8863 71.2195C85.1312 71.066 85.1279 71.4693 85.3517 71.3353C85.3916 71.2232 85.242 71.2548 85.1434 71.0952C85.4458 71.0014 85.7051 71.702 85.5633 71.8908C85.6985 72.0212 85.7938 71.9773 85.7661 71.8604C85.9179 72.1394 86.2791 72.6413 86.5261 72.5499C86.4342 72.8813 87.0159 72.7729 86.8209 73.1774C87.2474 73.1665 88.0917 74.1692 88.177 74.5066C88.5205 74.5651 88.6202 74.8441 89.049 75.0939C88.7643 74.9647 88.8496 75.1451 89.0679 75.4094C89.1077 75.3534 89.0102 75.2742 88.9626 75.2035C89.1753 75.0866 89.1665 75.3229 89.2595 75.5045C89.7991 75.4423 90.9991 77.2175 91.7248 77.7913C91.9121 78.0496 91.7492 77.9582 91.6351 78.091C91.7193 78.119 91.8035 78.1483 91.9076 78.2494C91.901 78.1654 91.8943 78.0813 91.9553 78.0057C92.2988 78.286 92.6467 78.6588 92.9403 79.017C93.2328 79.3593 93.5718 79.6091 94.0671 79.681C94.374 79.7273 94.7906 79.6225 95.143 79.3508C95.4499 79.0962 95.8676 78.554 96.241 78.1483C97.0022 77.2869 97.7523 76.484 98.3351 76.2781C99.1239 75.1511 100.472 74.0656 101.598 72.3514C101.689 72.9228 101.963 71.6496 102.278 71.6727C102.215 71.1257 103.779 69.8879 104.558 68.6988C105.161 67.757 105.146 66.6848 105.814 66.5593C105.784 66.2316 106.008 66.1061 106.1 65.6151C106.145 65.9709 106.516 65.0218 106.463 64.7208C106.539 64.5831 106.515 64.7525 106.588 64.7708C106.785 63.946 106.639 64.1762 106.962 63.528C107.043 63.5987 106.923 63.6608 106.885 63.8424C107.179 63.7425 106.984 63.3319 107.176 63.1309C107.059 63.1845 107.052 62.9359 107.105 62.6569C107.132 62.3755 107.187 62.0526 107.306 61.9417C107.302 61.815 107.189 61.854 107.111 61.8394C107.442 60.7356 106.518 58.8544 106.093 57.6824C106.08 57.6361 106.163 57.4046 106.144 57.3729C106.032 57.1804 106.067 57.5496 106.092 57.5508C105.925 57.5228 105.68 57.1695 105.396 56.7613C105.104 56.3629 104.747 55.928 104.469 55.7062C103.678 55.0593 102.523 54.6792 101.741 54.3928C101.936 54.1467 101.515 54.1833 101.491 54.0395C101.291 53.9981 101.491 54.243 101.562 54.2771C101.578 54.3709 100.971 54.1906 101.286 54.0895C100.851 54.1857 100.68 54.1504 100.108 54.1041C100.163 54.0395 100.22 53.9737 100.098 53.9579C100.085 53.8495 100.692 53.8543 100.19 53.8117C100.208 53.7191 100.491 53.7179 100.495 53.8129C100.69 53.6545 100.219 53.6289 100.071 53.5948ZM90.4839 77.0018C90.3232 76.7521 90.1415 76.5693 89.911 76.5425C89.9631 76.8313 90.7453 77.131 90.4839 77.0018Z"
        fill="#E03643" />
    <path
        d="M85.7627 71.8591C85.7539 71.8226 85.735 71.7799 85.6996 71.7324C85.7107 71.7629 85.7339 71.808 85.7627 71.8591Z"
        fill="#E03643" />
</svg>