<svg width="163" height="230" viewBox="0 0 163 230" fill="none" xmlns="http://www.w3.org/2000/svg">
<path fill-rule="evenodd" clip-rule="evenodd" d="M30.7343 125.029C30.258 121.893 29.791 118.758 29.3008 115.627C29.2261 115.157 29.0937 114.702 29.1973 114.225C30.0084 113.933 30.4916 113.297 30.9483 112.611C32.5682 110.176 33.7613 107.529 34.8761 104.837C35.7034 102.837 36.3143 102.478 38.2966 103.131C43.3726 104.798 47.9228 103.729 52.4443 101.114C57.1694 98.3818 61.0938 95.1075 62.7919 89.7093C64.3002 88.3851 65.392 86.5316 67.5147 85.9817C68.144 86.1428 68.5375 86.6053 68.9194 87.0781C71.7439 90.5814 75.4808 92.4256 79.8803 92.8617C85.0955 93.3817 90.114 92.7984 94.5204 89.5839C96.2174 89.6909 97.9178 89.1076 99.6148 89.6C100.065 89.8761 100.176 90.3352 100.219 90.808C100.7 96.4363 103.967 99.8694 109.05 101.701C110.738 102.31 111.468 103.329 111.913 104.956C113.061 109.176 114.982 112.98 118.42 115.852C116.932 119.902 115.445 123.952 113.957 128.003C113.712 128.802 113.054 129.131 112.352 129.425C105.991 132.11 100.173 135.824 94.1062 139.068C92.7831 139.778 92.3689 141.062 91.5038 142.054C85.8859 143.042 80.2208 142.772 74.565 142.702C73.5399 142.692 73.1061 141.94 72.6218 141.164C71.1503 138.824 69.5948 138.713 67.8311 140.825C67.15 141.648 66.5138 142.333 65.3184 142.156C57.5755 140.997 49.7981 139.97 42.5201 136.844C39.2216 135.429 36.1072 133.686 33.5991 131.017C32.276 129.61 31.5133 127.882 30.6688 126.201C30.4755 125.817 30.548 125.407 30.7343 125.029Z" fill="#D49C69"/>
<path fill-rule="evenodd" clip-rule="evenodd" d="M34.8038 32.7156C34.8371 31.9931 34.3746 31.4547 34.0893 30.8553C31.7791 26.0335 31.6537 21.1704 33.521 16.1484C36.1637 9.05676 41.395 4.6699 48.1668 1.95127C53.8411 -0.324421 59.7006 -0.591336 65.6245 1.05503C68.3501 1.81436 70.4739 3.37214 71.9926 5.74102C73.0441 7.38508 74.0266 9.07862 75.0391 10.7503C75.8973 11.742 76.43 12.9006 76.8074 14.1454C77.7554 18.6243 77.118 22.9583 75.589 27.2036C74.2406 29.89 72.8876 32.5753 71.5312 35.2548C70.2277 37.8262 68.2028 39.7544 65.6752 41.1454C62.7517 42.679 59.6707 43.7006 56.3929 44.1137C48.382 44.3771 41.8437 41.219 36.3892 35.5252C35.8266 34.6094 34.836 33.934 34.8038 32.7156Z" fill="#D5586D"/>
<path fill-rule="evenodd" clip-rule="evenodd" d="M75.0195 27.198C76.4035 23.4968 76.8603 19.6703 76.6083 15.7459C76.5727 15.1546 76.3518 14.5747 76.2149 13.9903C76.4772 13.3977 76.7337 12.8018 77.4125 12.559C79.74 9.98996 82.4747 7.8903 85.1692 5.74347C89.976 1.9169 95.2809 0.807817 101.144 2.85456C103.506 3.67601 105.861 4.50208 108.205 5.37646C110.213 6.12543 111.573 7.59002 112.391 9.54702C113.077 11.1773 113.928 12.7017 115.02 14.0938C118.408 18.4162 118.804 23.192 117.166 28.2772C117.083 28.5337 117.015 28.7926 116.948 29.0526C116.229 32.3637 113.921 34.6371 111.75 36.9968C109.22 39.0999 106.877 41.4159 104.286 43.4488C102.414 44.9272 100.331 45.9822 97.9582 46.4079C95.7745 46.7392 93.5046 46.6 91.6235 45.6624C88.2123 43.9608 84.8148 42.1614 81.7142 39.8949C79.404 37.1832 76.9282 34.6003 75.6925 31.1293C75.2335 29.8338 74.8803 28.5694 75.0195 27.198Z" fill="#D24143"/>
<path fill-rule="evenodd" clip-rule="evenodd" d="M30.7346 125.028C32.2555 128.818 34.5588 131.858 38.1933 133.993C43.9412 137.371 50.1976 139.048 56.6646 140.176C59.5719 140.685 62.4953 141.138 65.4037 141.651C66.1366 141.781 66.759 141.877 66.9627 140.933C66.9868 140.806 67.0708 140.68 67.1537 140.58C67.9832 139.578 68.846 138.473 70.2796 138.626C71.7959 138.789 72.8797 139.79 73.3353 141.239C73.5712 141.981 73.9128 142.22 74.6089 142.194C79.0533 142.025 83.5184 142.524 87.9593 141.858C89.1524 141.678 90.3903 141.821 91.6087 141.814C93.1193 143.727 93.813 145.864 93.3724 148.304C89.4158 148.856 85.4409 148.371 81.4739 148.471C80.8251 148.488 79.7217 147.968 79.6631 149.353C81.8743 152.594 83.7634 156.002 85.0992 159.686C86.4407 163.386 87.4025 167.138 86.4614 171.131C86.1243 172.555 85.6618 173.834 84.3893 174.679C82.8706 176.336 81.3083 177.934 78.9474 178.337C76.1609 178.81 74.3708 178.187 72.24 175.997C72.186 176.406 72.3769 176.789 72.3252 177.189C72.7405 184.14 72.9522 191.09 72.2849 198.036C71.6556 203.35 70.9365 208.655 70.0805 213.944C69.9436 214.782 70.0115 215.711 69.2579 216.349C68.4802 218.712 68.3364 221.215 67.7232 223.614C67.37 224.978 67.0777 226.36 66.69 227.714C66.4967 228.403 66.2344 229.091 65.3485 230C65.36 224.932 65.1437 220.292 65.6339 215.657C65.0724 214.941 65.2289 214.139 65.306 213.323C65.7731 208.411 66.598 203.54 67.1191 198.634C67.8612 189.974 67.3619 181.302 67.355 172.612C65.3957 175.214 63.7459 177.737 63.7459 181.284C63.7436 186.936 62.8761 192.567 62.1847 198.187C61.5484 202.661 61.025 207.153 60.3197 211.616C60.1966 212.395 60.2437 213.264 59.5224 213.835C58.6779 216.202 58.5813 218.725 57.9922 221.145C57.4641 223.308 57.0212 225.498 56.1319 227.554C55.8753 228.147 55.7683 228.878 54.9503 229.154C55.5048 224.575 56.0605 220.039 56.5909 215.503C56.6898 214.632 56.6945 213.753 56.7393 212.877C56.1641 209.443 56.9959 206.058 57.1685 202.654C57.2674 200.714 57.5884 198.783 57.7817 196.846C58.6468 191.375 58.8827 185.847 59.29 180.329C59.3533 179.482 59.0403 178.956 58.3374 178.492C52.8771 174.901 50.8706 169.925 52.043 163.433C53.0428 157.882 56.2227 153.556 59.6271 149.322C60.0493 148.8 60.5889 148.371 60.8834 147.755C60.7557 146.913 59.9941 147.017 59.4706 146.894C52.9853 145.369 46.6195 143.406 40.3298 141.235C37.3189 140.194 34.575 138.633 32.8964 135.718C31.5503 133.472 30.4895 131.105 30.1076 128.505C29.9304 127.325 29.4046 125.976 30.7346 125.028Z" fill="#D5586D"/>
<path fill-rule="evenodd" clip-rule="evenodd" d="M137.441 20.6423C138.751 20.3305 140.048 19.8772 141.376 19.7242C146.631 19.1156 151.214 20.8598 155.321 24.0075C156.46 24.8819 157.191 26.1268 157.813 27.4153C159.27 30.4204 160.19 33.5889 160.555 36.9C160.826 39.4127 160.604 41.8921 159.692 44.2747C159.213 45.5368 158.721 46.7932 158.249 48.0576C156.799 51.9681 154.241 54.887 150.54 56.8106C150.243 56.9636 149.98 57.1764 149.703 57.3628C147.723 59.2002 145.236 59.1369 142.784 59.2002C140.973 59.1265 139.217 59.8249 137.393 59.5764C131.135 59.1208 126.534 56.1813 123.778 50.484C121.22 43.8778 121.252 37.3246 124.238 30.853C126.586 25.7574 130.217 22.1207 135.844 20.7861C136.378 20.6584 136.897 20.5618 137.441 20.6423Z" fill="#D5586D"/>
<path fill-rule="evenodd" clip-rule="evenodd" d="M148.991 77.6405C149.446 83.225 146.596 87.4646 143.227 91.4212C141.52 93.4311 139.351 94.9659 137.027 96.2464C136.499 96.5398 135.996 96.8792 135.478 97.199C134.255 98.8097 132.348 98.9558 130.617 99.3355C126.213 100.295 121.921 99.5161 117.708 98.1643C117.005 97.9422 116.423 97.4429 115.869 96.9424C113.453 94.5989 111.416 91.97 109.912 88.9453C109.589 88.293 109.174 87.6614 109.256 86.8756C109.56 85.8838 110.48 85.4904 111.18 84.8818C116.718 80.0324 119.894 74.0694 119.943 66.5738C119.95 65.3094 119.096 64.1221 119.689 62.8324C124.987 59.7042 130.562 58.6734 136.533 60.5832C137.151 60.8501 137.812 60.9928 138.459 61.1527C142.457 62.1306 145.072 64.5144 146.192 68.5366C146.8 70.7398 147.99 72.7336 148.688 74.9104C148.975 75.7974 149.411 76.6718 148.991 77.6405Z" fill="#D24143"/>
<path fill-rule="evenodd" clip-rule="evenodd" d="M15.8929 61.5495C11.6867 61.4195 8.04426 59.9917 4.83781 57.196C0.134569 53.0991 -1.29208 44.4105 1.23327 39.262C2.84397 35.9831 5.06444 33.2081 7.83944 30.9025C10.4419 28.7327 13.5827 28.3967 16.841 28.7522C17.4427 28.8155 18.0432 28.8857 18.6449 28.9512C22.9904 29.2676 26.3752 31.35 29.0869 34.652C33.2954 39.7809 34.8014 49.7949 27.8535 56.8302C25.3098 59.6224 22.1218 61.1963 18.4321 61.8291C17.5531 61.9821 16.6971 62.0293 15.8929 61.5495Z" fill="#D24143"/>
<path fill-rule="evenodd" clip-rule="evenodd" d="M93.3113 148.201C93.1249 145.971 92.1401 143.955 91.6085 141.814C91.4854 140.327 92.3138 139.482 93.5299 138.813C98.1112 136.287 102.653 133.687 107.258 131.195C108.905 130.302 110.65 129.581 112.392 128.878C112.968 128.644 113.423 128.262 113.958 127.999C115.949 128.964 116.964 130.715 117.94 132.602C119.684 135.967 120.949 139.514 122.308 143.029C124.581 148.877 127.2 154.557 130.43 159.823C130.421 160.372 130.07 160.485 129.774 160.618C123.385 163.503 117.182 166.779 110.916 169.92C109.836 170.458 108.849 171.181 107.826 171.833C106.374 172.762 106.312 172.778 105.28 171.371C104.201 169.906 103.094 168.461 102.291 166.813C102.026 166.27 101.689 165.758 101.329 165.273C101.134 165.004 100.851 165.233 100.61 165.322C98.0778 159.93 95.5179 154.549 93.3458 148.998C93.2457 148.743 93.2814 148.47 93.3113 148.201Z" fill="#F2C69E"/>
<path fill-rule="evenodd" clip-rule="evenodd" d="M71.7635 198.177C71.5472 194.01 72.4446 189.874 72.1271 185.715C71.8982 182.703 71.6462 179.697 71.8038 176.676C72.6057 176.5 73.0176 177.108 73.4985 177.537C76.2919 180.017 78.4077 180.112 81.323 177.803C82.5115 176.865 83.6505 175.847 83.9703 174.242C85.3613 173.703 85.6397 172.435 85.9274 171.198C86.6625 168.033 86.2035 164.941 85.2716 161.889C83.9025 157.407 81.766 153.309 79.0853 149.486C79.3143 149.21 79.6249 149.044 79.9597 149.034C83.3859 148.927 86.8178 148.694 90.2337 149.283C91.4532 149.496 92.1907 150.122 92.4564 151.3C93.9325 157.887 96.268 164.203 98.4402 170.572C97.4358 173.157 96.5234 175.781 95.3028 178.276C92.6198 181.098 90.496 184.383 87.874 187.252C84.2476 191.223 80.7064 195.332 75.5326 197.412C74.3499 197.887 73.1971 198.81 71.7635 198.177Z" fill="#D49C69"/>
<path fill-rule="evenodd" clip-rule="evenodd" d="M32.8916 135.718C33.6578 136.38 34.4218 137.039 35.1834 137.705C37.4729 139.708 40.2054 140.81 43.0816 141.649C47.9942 143.083 52.8965 144.564 57.8114 145.988C58.9056 146.304 60.0515 146.451 61.1617 146.71C61.5345 146.799 62.0004 146.929 61.661 147.512C59.4636 148.646 57.2293 147.819 55.1377 147.342C48.5626 145.839 42.0749 143.975 35.8104 141.132C41.2546 155 44.5589 169.554 50.2768 183.294C52.0072 187.458 54.2748 191.251 57.1189 194.717C57.5929 195.299 57.9817 195.918 58.3453 196.563C58.5719 198.061 58.0312 199.485 57.9253 200.956C57.6584 204.627 57.1706 208.281 57.1073 211.968C57.1027 212.318 56.9727 212.621 56.7346 212.877C55.4518 212.465 54.1701 212.039 52.8804 211.643C50.9142 211.041 50.0064 209.446 49.3415 207.725C48.222 204.827 47.1141 201.915 46.196 198.949C43.1667 189.188 41.0475 179.215 39.2205 169.164C37.2635 158.394 35.0925 147.666 33.0228 136.915C32.948 136.522 32.9342 136.117 32.8916 135.718Z" fill="#BC8557"/>
<path fill-rule="evenodd" clip-rule="evenodd" d="M28.2358 105.28C27.4879 105.693 27.137 106.455 26.6941 107.121C24.7014 110.123 22.3326 112.779 19.5507 115.069C18.8673 115.631 18.1643 116.153 17.3302 116.453C15.135 117.238 13.3667 116.226 13.0089 113.927C12.7616 112.323 12.7524 110.69 12.8962 109.079C13.4312 103.092 14.3228 97.1587 16.3925 91.4776C17.6753 87.9662 19.4103 84.6942 22.1358 82.0527C23.2127 81.0115 24.385 80.1164 25.8508 79.6872C26.2914 79.4468 26.6573 79.6769 26.9541 79.9357C29.9178 82.5313 33.2301 84.6091 36.6816 86.4786C37.1579 86.9653 37.2856 87.5808 37.0705 88.1699C34.8224 94.2307 32.5122 100.265 28.2358 105.28Z" fill="#68D454"/>
<path fill-rule="evenodd" clip-rule="evenodd" d="M28.2356 105.28C28.4197 104.847 28.5255 104.359 28.8016 103.995C31.7768 100.105 33.3139 95.4559 35.5562 91.1795C36.273 89.8116 37.03 88.3044 36.4237 86.6166C37.7376 85.8078 39.1423 86.7363 40.4746 86.3969C41.2167 86.5096 41.6021 87.0884 42.0163 87.6084C47.021 93.8913 54.1127 94.0569 60.6958 90.6468C61.4782 90.2407 62.1052 89.2858 63.2016 89.8381C62.2179 92.5866 61.1652 95.3628 58.8401 97.2438C55.1147 100.252 51.2203 103.047 46.4227 104.165C43.8721 104.758 41.3467 104.585 38.8524 103.84C38.398 103.706 37.9562 103.539 37.5063 103.393C36.5917 103.094 35.9716 103.297 35.6253 104.302C34.8774 106.472 33.8995 108.552 32.7824 110.559C32.0656 111.849 31.2143 113.068 30.425 114.323C29.9487 115.085 29.576 114.603 29.1963 114.226C28.6245 111.27 28.4519 108.271 28.2356 105.28Z" fill="#BC8557"/>
<path fill-rule="evenodd" clip-rule="evenodd" d="M137.441 20.6423C136.517 21.2417 135.448 21.4637 134.421 21.7709C130.194 23.0353 127.385 26.0139 125.405 29.6978C121.978 36.0739 121.536 42.7802 124.008 49.636C124.097 49.8857 124.144 50.1549 124.212 50.4149C124.354 51.0569 123.945 51.4331 123.503 51.7299C121.325 53.1703 119.283 54.7788 117.302 56.4723C116.941 56.7841 116.501 56.9451 116.004 56.9014C112.898 55.377 110.699 52.8712 108.692 50.1491C109.618 45.6472 110.406 41.1097 111.533 36.6469C113.665 34.3505 115.484 31.8251 116.948 29.0524C117.775 28.7257 118.447 28.1504 119.153 27.6315C123.356 24.5505 127.822 21.8744 132.282 19.1949C134.621 17.7867 135.989 18.2262 137.441 20.6423Z" fill="#58B795"/>
<path fill-rule="evenodd" clip-rule="evenodd" d="M71.7635 198.177C76.0445 197.119 79.6571 194.956 82.8141 191.864C86.9593 187.81 90.5489 183.298 94.0786 178.724C94.3236 178.413 94.5411 178.03 94.8701 177.836C95.2325 177.627 95.221 178.056 95.3016 178.279C93.8439 182.269 91.9559 186.069 90.2049 189.934C86.8385 197.356 83.2708 204.683 79.6571 211.989C79.2049 212.898 78.7114 213.772 78.0418 214.544C76.7268 216.065 75.0781 216.804 73.067 216.8C71.775 216.8 70.5279 216.508 69.26 216.348C69.3003 213.846 69.8709 211.407 70.2057 208.94C70.6371 205.808 71.2527 202.703 71.3827 199.531C71.4022 199.046 71.5702 198.61 71.7635 198.177Z" fill="#BC8557"/>
<path fill-rule="evenodd" clip-rule="evenodd" d="M115.982 96.3567C117.253 97.5486 118.775 98.1975 120.487 98.4345C122.154 98.6634 123.813 98.9373 125.483 99.1294C128.22 99.4423 130.849 98.9568 133.404 97.9789C134.094 97.7154 134.79 97.46 135.481 97.2C136.709 101.253 137.079 105.407 136.829 109.62C136.704 111.776 136.516 113.933 136.301 116.083C136.034 118.682 134.636 119.461 132.234 118.334C128.989 116.809 126.453 114.386 124.077 111.768C123.129 110.723 122.389 109.491 121.271 108.596C120.196 108.114 119.762 107.062 119.233 106.153C117.759 103.644 116.339 101.098 115.512 98.2884C115.312 97.6245 114.73 96.7272 115.982 96.3567Z" fill="#43846D"/>
<path fill-rule="evenodd" clip-rule="evenodd" d="M40.4802 86.6363C39.7186 87.322 38.835 86.9826 37.9975 86.902C37.4671 86.8526 36.9482 86.7122 36.4247 86.6167C32.7466 85.2695 29.7369 82.8925 26.81 80.3868C26.5086 80.1302 26.1738 79.9173 25.8528 79.6849C24.2329 77.4415 22.6107 75.2014 20.9965 72.9522C19.051 70.2324 17.6233 67.271 16.7385 64.0404C16.5073 63.1983 16.1771 62.3803 15.894 61.5508C20.4063 61.4242 24.2662 59.7836 27.4623 56.5852C29.1651 56.6818 30.1407 57.7829 30.9518 59.1106C30.999 59.7399 30.7413 60.3025 30.5204 60.8651C27.7971 67.7842 29.5919 73.6908 34.5563 78.8888C36.3246 80.7434 38.3472 82.3702 39.6795 84.616C40.0511 85.2453 40.5964 85.8079 40.4802 86.6363Z" fill="#43846D"/>
<path fill-rule="evenodd" clip-rule="evenodd" d="M115.982 96.3568C115.36 96.7928 115.717 97.2922 115.872 97.7938C116.876 100.962 118.408 103.878 120.157 106.684C120.548 107.308 121.06 107.864 121.27 108.594C120.322 111.013 119.371 113.433 118.42 115.849C117.456 116.351 117.062 115.497 116.633 114.993C114.834 112.889 113.352 110.577 112.343 107.973C111.857 106.719 111.377 105.461 111.148 104.14C110.973 103.138 110.435 102.705 109.483 102.403C105.534 101.161 102.422 98.8983 100.665 94.9877C99.9233 93.3367 99.6345 91.6628 99.7645 89.8887C100.279 89.2502 101.059 89.2364 101.762 89.1029C103.735 88.7232 105.631 88.1353 107.438 87.246C108.075 86.9331 108.733 86.4809 109.494 86.9768C111.038 90.5295 113.227 93.6416 115.982 96.3568Z" fill="#BC8557"/>
<path fill-rule="evenodd" clip-rule="evenodd" d="M148.991 77.6404C148.007 73.907 146.235 70.4658 144.962 66.8337C144.16 64.5511 142.382 63.0865 140.105 62.2616C138.971 61.852 137.831 61.4494 136.694 61.0432C136.343 60.6302 136.524 60.3311 136.904 60.078C138.881 59.6983 140.789 59.0034 142.791 58.7434C145.184 58.7261 147.451 58.0807 149.703 57.3616C151.997 57.3881 154.26 56.8819 156.559 57.0418C157.363 57.0993 158.169 57.0913 158.968 57.2719C161.63 57.8771 162.837 60.0273 161.925 62.6229C161.408 64.1013 160.529 65.3887 159.65 66.66C156.712 70.9145 153.008 74.4293 148.991 77.6404Z" fill="#58B795"/>
<path fill-rule="evenodd" clip-rule="evenodd" d="M30.6827 58.9735C29.6104 58.1785 28.5347 57.3801 27.4602 56.5839C27.9859 55.889 28.4783 55.1631 29.0398 54.5004C33.6602 49.0528 32.336 40.8888 29.9498 36.8022C27.6534 32.8652 24.103 30.792 19.9704 29.4206C19.5251 29.2711 19.0868 29.1077 18.645 28.9512C18.6266 28.682 18.6266 28.4093 18.5841 28.1459C18.247 26.0566 20.0808 24.1433 22.8328 24.6978C24.7162 25.0775 26.4351 25.8633 27.9296 27.0644C29.9245 28.6717 31.8804 30.333 33.8535 31.9667C34.163 32.2232 34.4897 32.466 34.8038 32.7157C35.4285 33.4612 36.1361 34.14 36.4824 35.0788C36.9391 35.7576 36.7746 36.5008 36.709 37.2383C36.3432 41.2213 36.4421 45.1756 37.5109 49.0654C37.6708 49.6522 37.7847 50.247 37.7203 50.8625C37.657 51.3492 37.4442 51.7645 37.0772 52.0878C34.9879 53.9251 33.1264 55.9558 31.6503 58.3281C31.4397 58.6675 31.1429 58.9678 30.6827 58.9735Z" fill="#58B795"/>
<path fill-rule="evenodd" clip-rule="evenodd" d="M67.6632 198.613C67.6229 201.219 67.05 203.764 66.7865 206.348C66.4713 209.457 66.0249 212.555 65.6314 215.655C63.595 215.05 61.5598 214.441 59.5188 213.834C59.5614 211.289 60.1999 208.819 60.4553 206.297C60.7314 203.584 61.2307 200.892 61.6346 198.193C63.7124 197.386 65.6993 197.817 67.6632 198.613Z" fill="#BC8557"/>
<path fill-rule="evenodd" clip-rule="evenodd" d="M98.4391 170.572C97.781 170.216 97.6027 169.54 97.3588 168.918C95.1751 163.4 93.4126 157.752 92.0515 151.978C91.6224 150.161 91.604 150.204 89.7908 149.848C86.2403 149.153 82.6519 149.674 79.0854 149.486C78.8737 149.229 78.4652 148.956 78.4917 148.73C78.5665 148.067 79.2177 147.958 79.717 147.952C81.9973 147.919 84.2879 147.739 86.5521 148.049C87.2999 148.151 87.9833 148.112 88.7231 148.026C90.2464 147.843 91.7973 147.736 93.3113 148.202C94.2329 149.241 94.4549 150.611 95.0163 151.822C96.7559 155.596 98.4253 159.406 100.165 163.187C100.486 163.885 100.62 164.578 100.61 165.323C99.8853 167.07 99.1628 168.821 98.4391 170.572Z" fill="#BC8557"/>
<path fill-rule="evenodd" clip-rule="evenodd" d="M77.4126 12.5589C77.2055 13.194 76.8557 13.7129 76.2149 13.9901C75.8755 12.8914 75.2243 11.9066 75.0391 10.7515C76.0711 11.0379 76.6394 11.933 77.4126 12.5589Z" fill="#9EE271"/>
<path fill-rule="evenodd" clip-rule="evenodd" d="M30.6827 58.9734C32.3658 55.9683 34.599 53.436 37.2601 51.2696C37.7295 50.4171 38.4244 49.8016 39.2642 49.3391C44.522 46.4398 50.1134 45.0696 56.1306 45.6184C60.9661 45.9647 65.2022 47.7111 68.8942 50.8934C70.8132 52.5478 72.294 54.4841 73.4652 56.6942C75.0448 59.8949 75.8087 63.2302 75.2174 66.8071C74.7675 69.5097 75.031 72.295 74.2889 74.9607C73.6895 78.1729 72.554 81.1343 70.307 83.5872C69.4085 84.5697 68.6376 85.6972 67.3226 86.2069C65.9501 87.4149 64.5764 88.6264 63.2015 89.8379C61.4079 90.5466 59.91 91.7949 58.0128 92.3943C55.1411 93.302 52.3097 93.7783 49.3564 93.0731C46.5411 92.4035 44.1999 90.8963 42.2406 88.7932C41.6089 88.1179 41.0636 87.3551 40.4791 86.6337C38.6637 83.8714 36.4593 81.4484 34.1284 79.106C28.6233 73.5709 27.2392 67.1788 30.3536 59.9203C30.4871 59.6131 30.5745 59.2898 30.6827 58.9734Z" fill="#D24143"/>
<path fill-rule="evenodd" clip-rule="evenodd" d="M109.494 86.9793C107.95 87.6224 106.429 88.3173 104.866 88.8902C103.225 89.4862 101.516 89.8049 99.7645 89.8912C97.9916 89.7347 96.221 90.4238 94.4389 89.9314C92.3128 90.6666 90.4052 89.6852 88.6818 88.82C85.1267 87.0356 82.0354 84.5505 79.4421 81.4879C78.4711 80.3397 77.8326 79.0247 77.3862 77.6015C76.2621 74.3203 76.0447 70.886 75.6892 67.4783C75.6397 67.0089 75.6535 66.5199 75.7858 66.0701C78.3204 57.5264 82.9604 50.8973 92.0159 48.3052C94.0673 47.7196 96.1612 47.9692 98.247 47.906C101.288 47.6989 104.214 48.2223 107.058 49.2728C107.817 49.5558 108.565 49.8261 109.019 50.5579C110.372 51.4472 111.568 52.5149 112.619 53.7459C113.583 54.878 114.703 55.8295 115.981 56.5945C118.298 58.1086 119.798 60.099 119.715 63.0109C121.221 67.2608 120.453 71.3566 118.774 75.3477C117.595 78.1469 116.011 80.7228 114.035 83.0422C112.977 84.2848 111.656 85.2086 110.357 86.1612C110.029 86.4006 109.678 86.5973 109.494 86.9793Z" fill="#D5586D"/>
<path fill-rule="evenodd" clip-rule="evenodd" d="M77.8669 77.7039C78.8989 80.5698 80.9525 82.6096 83.219 84.5229C86.5106 87.2956 90.0437 89.4884 94.4387 89.9279C92.7842 91.9402 90.3809 92.5361 88.0453 93.0389C84.205 93.8707 80.3174 93.8051 76.4909 92.7329C73.2821 91.8343 70.6463 90.074 68.572 87.4877C68.19 87.0114 67.884 86.4925 67.3225 86.2061C68.343 84.715 69.7742 83.5829 70.8304 82.1068C72.1339 80.2798 73.1786 78.3919 73.3788 76.1196C73.4121 75.7768 73.4892 75.4638 73.763 75.2314C75.2127 77.9202 75.3657 78.011 77.8669 77.7039Z" fill="#BC8557"/>
<path fill-rule="evenodd" clip-rule="evenodd" d="M59.5683 6.94437C57.8713 7.31368 56.5103 7.59556 55.1596 7.90964C54.2403 8.12249 53.3211 8.35604 52.4179 8.62871C47.4432 10.1497 44.2022 13.3906 42.7422 18.3999C42.2659 20.0244 41.8011 21.6409 41.6101 23.3321C41.2167 26.8561 42.9723 29.6023 46.3491 30.6136C48.8664 31.366 51.455 31.2521 53.9918 30.8771C57.2995 30.3847 60.3714 29.1272 63.2027 27.3393C65.7822 25.709 67.4274 21.795 66.836 18.8394C66.3149 16.2071 64.0852 14.2673 61.3332 14.3674C57.0073 14.5204 53.5788 16.5165 51.0419 19.991C50.1791 21.1761 50.4425 21.7617 51.8335 22.215C52.2155 22.3381 52.6181 22.4209 53.0174 22.4715C55.0733 22.7246 55.7429 22.3254 56.5943 20.2948C57.5446 21.107 57.127 21.8618 56.5402 22.5267C55.1826 24.0604 51.0523 24.0581 49.5946 22.5739C48.9227 21.8917 48.9561 21.1565 49.2886 20.3373C49.781 19.1132 50.6657 18.171 51.5022 17.2022C53.9044 14.4203 56.967 12.7625 60.6233 12.4771C64.5914 12.1676 68.6066 15.1831 68.5779 19.5746C68.5514 24.0512 66.8878 27.4992 62.8185 29.745C57.7264 32.5568 52.4007 33.8051 46.6332 32.7006C42.1969 31.8447 39.4357 28.2942 39.8384 23.7819C40.1145 20.6767 40.8381 17.6417 42.3039 14.8495C44.7671 10.1474 48.9308 7.9269 53.9527 7.01801C54.9479 6.83853 55.9569 6.73153 56.9636 6.62568C57.7217 6.5417 58.4972 6.38523 59.5683 6.94437Z" fill="#FFFCFC"/>
<path fill-rule="evenodd" clip-rule="evenodd" d="M75.0194 27.198C75.5924 28.2127 75.5786 29.3943 75.9744 30.4654C76.9696 33.1679 78.4664 35.5276 80.4372 37.6066C80.9894 38.1933 81.4692 38.8457 81.9858 39.4635C82.1859 40.3586 81.4738 40.7946 81.0285 41.3572C78.6171 44.3761 76.2712 47.4307 75.0804 51.1917C74.8779 51.8279 74.649 52.4964 73.8759 52.7057C73.051 52.6689 72.8059 51.9867 72.4987 51.4149C70.8409 48.3488 68.8804 45.5048 66.5771 42.8851C66.0582 42.296 65.4876 41.6839 65.5417 40.7923C68.908 38.6846 71.0801 35.6576 72.5551 32.0128C73.227 30.3504 74.1888 28.7995 75.0194 27.198Z" fill="#58B795"/>
<path fill-rule="evenodd" clip-rule="evenodd" d="M56.2951 46.0546C52.587 45.928 48.9319 46.2605 45.3492 47.289C42.4097 48.1347 39.7831 49.5889 37.2601 51.2686C37.4246 50.2309 37.038 49.2518 36.7274 48.3303C35.9773 46.0707 35.853 43.688 35.8461 41.418C35.8438 39.3448 35.8104 37.1416 36.4823 35.0776C39.5726 38.2956 43.2346 40.6092 47.3937 42.2268C50.2975 43.3578 53.2923 43.5649 56.3377 43.5971C56.9463 44.4278 57.0659 45.2492 56.2951 46.0546Z" fill="#68D454"/>
<path fill-rule="evenodd" clip-rule="evenodd" d="M56.2949 46.0545C56.311 45.2365 56.3237 44.4173 56.3375 43.5981C59.5647 43.1828 62.5663 42.0242 65.5415 40.7932C68.7238 44.4035 71.462 48.3278 73.7699 52.5513C74.4981 54.116 73.6145 55.3436 72.9208 56.608C70.889 53.0898 68.0105 50.4413 64.5072 48.4509C62.3776 47.2429 60.0801 46.5446 57.6249 46.3973C57.1624 46.3708 56.6769 46.4146 56.2949 46.0545Z" fill="#43846D"/>
<path fill-rule="evenodd" clip-rule="evenodd" d="M72.9211 56.608C72.6714 55.1434 73.7747 53.9653 73.7701 52.5514C74.1947 52.2822 74.3811 51.8323 74.5122 51.3928C75.8134 46.9899 78.516 43.4624 81.5142 40.1145C81.6913 39.9154 81.8306 39.683 81.9859 39.4656C83.386 40.6379 84.8851 41.6216 86.6442 42.1888C87.1459 42.3487 87.6509 42.6306 88.0306 42.9873C90.6169 45.4125 93.7785 46.0119 97.1633 45.9417C97.4981 45.936 97.8352 45.9394 98.17 45.936C98.7717 46.7448 98.8131 47.5375 98.1067 48.3118C96.2417 48.5983 94.3296 48.2819 92.4715 48.7639C87.346 50.0916 83.2388 52.8609 80.3729 57.3271C79.281 59.031 78.3952 60.8649 77.4679 62.6654C76.3197 64.8985 75.9825 67.2421 76.4427 69.7444C76.9306 72.394 77.0042 75.1184 77.8671 77.7048C77.7934 78.0246 77.7325 78.3571 77.3252 78.4399C75.4176 78.8322 73.8622 77.5989 73.7932 75.6281C73.7886 75.4958 73.7724 75.3646 73.7644 75.2323C74.144 71.6842 74.656 68.1464 74.847 64.5925C74.9713 62.3766 74.4443 60.1734 73.5262 58.106C73.3076 57.6124 73.1212 57.1073 72.9211 56.608Z" fill="#68D454"/>
<path fill-rule="evenodd" clip-rule="evenodd" d="M95.9472 23.0551C96.9113 22.8457 97.803 23.3415 98.7406 23.322C99.4551 23.3059 100.134 23.3082 100.339 22.4476C100.532 21.6261 100.042 21.0923 99.3504 20.9197C96.5662 20.2306 93.6922 19.8647 90.9736 20.8933C87.315 22.275 86.711 27.4534 89.7529 29.9316C91.2451 31.15 92.9996 31.6194 94.845 31.6619C98.1953 31.7425 101.458 31.2225 104.386 29.4656C107.033 27.871 108.394 25.5056 108.189 22.3671C108.118 21.2948 107.932 20.2248 107.726 19.1618C107.066 15.7275 104.479 13.9638 101.663 12.5556C97.0068 10.2293 92.5245 10.6987 88.3332 13.82C88.2458 13.8867 88.0904 13.866 87.9673 13.8833C88.6231 12.5786 88.7854 12.3588 89.9945 11.7238C95.0015 9.09488 99.8566 9.5873 104.635 12.3991C108.88 14.9015 109.843 18.9432 109.691 23.3691C109.585 26.3869 107.968 28.7834 105.386 30.3343C101.687 32.5501 97.6385 33.4556 93.3321 33.0069C91.6156 32.8309 90.0486 32.1981 88.7347 31.0499C86.3681 28.987 85.962 26.4007 86.7214 23.4853C87.4071 20.8599 89.2651 19.6116 91.7709 19.1284C94.3388 18.6371 96.8987 18.8695 99.4091 19.4678C101.175 19.8912 101.971 21.1222 101.743 22.7295C101.548 24.1377 100.654 24.9028 99.0961 24.9856C97.0609 25.0949 96.389 24.6922 95.9472 23.0551Z" fill="#FDFBFB"/>
<path fill-rule="evenodd" clip-rule="evenodd" d="M98.1064 48.3119C98.1272 47.5204 98.1467 46.7277 98.1674 45.9361C101.913 45.0744 104.67 42.6215 107.394 40.1387C108.727 38.9204 110.049 37.6893 111.534 36.647C111.633 40.4321 110.57 44.0194 109.709 47.6435C109.48 48.6156 109.251 49.5866 109.021 50.5588C105.524 49.1103 101.895 48.3441 98.1064 48.3119Z" fill="#43846D"/>
<path fill-rule="evenodd" clip-rule="evenodd" d="M58.3464 196.563C55.4794 194.293 53.695 191.177 51.9382 188.09C49.7315 184.213 48.5925 179.869 46.9024 175.77C43.3002 167.041 41.4019 157.766 38.0965 148.944C37.0162 146.051 35.9842 143.139 34.9487 140.281C35.1017 139.955 35.333 140.032 35.4791 140.127C38.7396 142.281 42.4764 143.196 46.1477 144.294C48.4015 144.97 50.6243 145.733 52.9069 146.315C55.7923 147.046 58.695 147.486 61.661 147.512C61.0628 149.153 59.5556 150.092 58.5731 151.453C56.6357 154.138 54.7327 156.827 53.5581 159.939C51.5919 165.144 51.7644 170.216 54.7178 175.065C55.6462 176.596 57.1384 177.354 58.6858 178.057C60.0653 178.683 60.2494 178.889 59.8789 180.327C59.5487 181.602 59.6477 182.87 59.589 184.144C59.4693 186.83 59.2093 189.499 58.8745 192.164C58.6904 193.628 58.7422 195.121 58.3464 196.563Z" fill="#D49C69"/>
<path fill-rule="evenodd" clip-rule="evenodd" d="M80.3048 172.572C79.8894 172.795 79.4844 173.048 79.0507 173.234C78.0866 173.653 77.2594 173.491 76.4782 172.714C75.5866 171.83 74.9572 170.805 74.6224 169.626C73.6836 166.325 72.8737 163.001 72.5435 159.565C72.1995 155.947 71.7301 152.34 71.775 148.695C73.9609 148.289 74.963 148.829 76.1618 151.498C78.5192 156.75 80.582 162.101 81.4242 167.856C81.6819 169.633 81.5588 171.207 80.3048 172.572Z" fill="#D49C69"/>
<path fill-rule="evenodd" clip-rule="evenodd" d="M67.6629 198.613C65.6289 198.796 63.6454 198.304 61.6366 198.193C61.5193 196.563 61.9265 194.972 62.106 193.377C62.6675 188.364 63.2968 183.358 63.2427 178.296C63.2404 177.966 63.2163 177.544 63.3934 177.314C64.9949 175.257 65.9326 172.758 67.6871 170.736C68.3613 172.714 68.3394 183.098 67.6629 198.613Z" fill="#D49B69"/>
<path fill-rule="evenodd" clip-rule="evenodd" d="M65.6498 148.464C63.6767 151.349 63.0565 154.514 62.3582 157.645C61.6552 160.787 61.0029 163.924 60.7383 167.154C60.6083 168.758 60.392 170.352 60.3747 171.97C60.3655 172.798 60.2217 173.767 59.3991 174.033C58.4983 174.325 57.9449 173.373 57.5629 172.748C57.0141 171.846 56.6437 170.808 56.3583 169.783C55.6324 167.173 55.3758 164.494 55.5449 161.796C55.7002 159.336 56.9002 157.253 58.3878 155.436C60.3023 153.096 62.4905 150.979 64.5649 148.773C64.7444 148.584 64.9376 148.373 65.6498 148.464Z" fill="#D19967"/>
<path fill-rule="evenodd" clip-rule="evenodd" d="M80.305 172.572C81.8535 169.44 80.6144 166.395 79.923 163.372C79.0509 159.565 77.4759 155.985 76.0193 152.37C75.9917 152.31 75.9538 152.25 75.9296 152.191C75.1208 150.341 74.1164 148.727 71.7751 148.695C72.4401 147.77 74.2015 147.51 75.1979 148.293C76.0354 148.954 76.8178 149.714 77.2273 150.755C79.281 156 81.4244 161.222 82.1826 166.856C82.469 168.995 82.5381 171.198 80.305 172.572Z" fill="#BC8557"/>
<path fill-rule="evenodd" clip-rule="evenodd" d="M64.106 166.778C63.5964 166.478 63.6458 166.111 63.67 165.8C64.0658 160.232 64.9735 154.764 66.8362 149.482C66.9282 149.234 67.0087 148.974 67.1456 148.75C67.2964 148.504 67.5748 148.367 67.829 148.515C67.959 148.588 68.058 148.88 68.0246 149.04C66.8948 154.396 67.24 160.03 64.9712 165.172C64.7308 165.712 64.6974 166.355 64.106 166.778Z" fill="#BC8557"/>
<path fill-rule="evenodd" clip-rule="evenodd" d="M83.9704 174.242C84.2937 174.492 84.2535 174.771 84.1142 175.125C83.0385 177.831 79.296 180.692 76.1033 179.837C75.1035 179.571 74.2648 179.092 73.5642 178.32C73.0246 177.728 72.3953 177.222 71.8051 176.676C71.8166 176.227 71.598 175.751 71.9535 175.337C72.4298 175.343 72.6748 175.714 72.9222 176.004C75.2703 178.783 79.8701 178.473 82.3402 176.03C82.912 175.464 83.4285 174.842 83.9704 174.242Z" fill="#BC8557"/>
<path fill-rule="evenodd" clip-rule="evenodd" d="M119.716 63.0107C119.058 60.5314 117.705 58.4513 115.982 56.5944C117.38 56.4218 117.984 55.1171 118.991 54.3877C120.498 53.2924 121.979 52.1684 123.538 51.1433C123.81 50.9673 123.988 50.6612 124.213 50.415C124.474 50.8005 124.769 51.1663 124.997 51.5724C127.199 55.5394 130.561 57.8622 134.996 58.6848C135.722 58.8183 136.448 58.9575 137.176 59.091C137.438 59.5247 137.438 59.9124 136.992 60.2288C136.73 60.4417 136.696 60.7385 136.696 61.0445C135.083 60.9375 133.595 60.2185 131.952 60.1517C128.296 60.0033 124.887 60.9007 121.577 62.3388C120.971 62.6046 120.453 63.1177 119.716 63.0107Z" fill="#69D454"/>
<path fill-rule="evenodd" clip-rule="evenodd" d="M141.977 37.5155C141.442 38.261 141.013 38.7741 140.681 39.3459C140.27 40.0546 140.362 40.7702 140.881 41.4191C141.373 42.0312 142.055 42.1048 142.724 41.9219C144.384 41.4628 145.648 40.4815 146.171 38.7937C146.676 37.16 146.166 35.7495 144.964 34.5575C142.93 32.5442 138.596 31.878 136.071 33.1263C133.788 34.2538 131.766 38.1414 132.473 41.0935C133.14 43.8962 134.343 46.3226 136.574 48.1185C140.626 51.3733 146.131 50.4621 149.384 46.0648C149.979 45.2595 150.462 44.3702 151.002 43.5199C151.613 43.9284 151.285 44.4576 151.146 44.8775C150.33 47.3304 148.602 48.9975 146.337 50.0893C140.285 53.0047 133.769 50.2262 131.423 43.7431C130.728 41.823 130.221 39.8337 130.89 37.7997C132.71 32.2554 136.433 30.5676 141.921 31.572C143.717 31.901 145.217 32.78 146.389 34.1641C147.813 35.8553 148.202 37.8319 147.364 39.8487C146.513 41.9058 144.825 43.1805 142.625 43.5487C140.834 43.8513 139.286 42.5432 139.068 40.7495C138.834 38.8604 139.726 37.7686 141.977 37.5155Z" fill="#FFFBFB"/>
<path fill-rule="evenodd" clip-rule="evenodd" d="M136.991 60.2285C137.05 59.8488 137.112 59.4691 137.175 59.0906C139.056 59.1504 140.896 58.5349 142.791 58.7443C141.153 59.3104 139.512 59.8695 137.877 60.4413C137.524 60.5644 137.231 60.5322 136.991 60.2285Z" fill="#EFEDD6"/>
<path fill-rule="evenodd" clip-rule="evenodd" d="M131.709 69.7066C129.085 72.0191 127.357 74.7953 126.089 77.874C125.521 79.258 125.157 80.6927 125.21 82.2079C125.328 85.4351 127.639 87.7787 130.871 87.9351C137.113 88.2377 141.67 82.7763 139.907 77.1032C139.787 76.7166 139.64 76.3335 139.455 75.978C138.349 73.8852 136.364 73.6816 134.935 75.5419C134.232 76.4508 133.688 77.469 133.266 78.5436C133.07 79.0429 132.83 79.5951 133.334 80.0369C133.777 80.4258 134.324 80.4396 134.848 80.16C135.14 80.007 135.414 79.8068 135.704 79.6205C135.45 80.8354 134.877 81.3312 133.778 81.2967C132.697 81.2634 131.942 80.6306 131.803 79.64C131.541 77.7693 133.87 73.8564 135.65 73.1742C137.713 72.3827 139.557 73.2007 140.625 75.3809C142.605 79.4341 141.24 84.8817 137.546 87.5555C135.636 88.9361 133.503 89.7587 131.133 89.7253C126.208 89.6517 122.898 85.6353 123.761 80.6962C124.444 76.7925 126.488 73.5378 129.091 70.627C129.716 69.9263 130.502 69.3971 131.709 69.7066Z" fill="#FDFAFA"/>
<path fill-rule="evenodd" clip-rule="evenodd" d="M15.4811 45.5229C15.5259 45.1191 15.8895 45.0305 16.1622 44.8568C16.5579 44.6071 17.0952 44.4069 16.8053 43.8041C16.5878 43.3485 16.1357 43.1517 15.6168 43.1885C14.0303 43.3059 12.5243 43.7546 11.3807 44.8763C9.93566 46.2903 10.6099 48.9169 12.698 49.6394C15.4592 50.6001 18.2733 50.5253 20.992 49.3196C21.4844 49.1033 21.9607 48.8341 22.4048 48.5303C26.6041 45.6943 26.2647 40.1466 21.7421 37.8203C17.8856 35.8368 14.1718 36.4386 10.5339 38.4692C10.022 38.7557 9.64688 39.2711 8.99454 39.3781C8.66665 38.7591 9.18095 38.4957 9.50884 38.2368C12.9442 35.5515 18.4747 34.1663 23.1031 37.4786C26.9884 40.2617 28.5519 45.9014 23.1664 49.682C21.3935 50.9268 19.4008 51.509 17.2701 51.5527C15.9263 51.5791 14.5641 51.4825 13.2364 51.2731C10.9401 50.9107 9.58707 49.5002 9.37998 47.4558C9.16139 45.3457 10.1301 43.6948 12.1929 42.7824C12.9304 42.4603 13.7185 42.2371 14.5008 42.0403C14.8828 41.9437 15.3097 41.9771 15.7123 42.007C16.9733 42.1036 18.087 43.0954 18.0812 44.0848C18.0743 45.103 17.1596 45.6092 15.4811 45.5229Z" fill="#FCF8F8"/>
<path fill-rule="evenodd" clip-rule="evenodd" d="M106.146 144.457C106.108 142.813 106.512 141.412 107.257 140.094C108.76 137.428 111.034 137.082 113.189 139.264C114.548 140.638 115.463 142.326 115.871 144.19C116.953 149.115 117.055 154.07 115.845 158.999C115.152 161.807 113.396 162.583 111.083 160.942C108.447 159.071 105.917 157.045 103.412 155.002C101.834 153.71 100.731 151.994 99.5896 150.309C98.5312 148.745 98.3356 147.057 98.5358 145.28C98.7475 143.397 100.327 142.392 102.174 142.928C102.821 143.114 103.445 143.374 104.084 143.577C104.72 143.78 105.175 144.37 106.146 144.457Z" fill="#D5586D"/>
<path fill-rule="evenodd" clip-rule="evenodd" d="M28.6979 89.1121C28.507 89.9301 19.953 107.239 18.9935 108.88C18.8405 109.142 18.6449 109.265 18.3434 109.233C18.0788 104.948 25.1095 91.122 28.6979 89.1121Z" fill="#F9FDF9"/>
<path fill-rule="evenodd" clip-rule="evenodd" d="M119.024 40.5967C119.087 41.6482 118.66 42.5502 118.302 43.4729C117.409 45.7958 116.264 47.999 115.091 50.1884C114.808 50.7176 114.431 51.1974 114.071 51.6818C113.904 51.9119 113.635 52.0212 113.366 51.9188C113.029 51.7864 112.831 51.5 112.849 51.1307C112.865 50.8718 112.915 50.5911 113.026 50.3587C114.667 46.9072 116.562 43.6087 119.024 40.5967Z" fill="#F8FFF7"/>
<path fill-rule="evenodd" clip-rule="evenodd" d="M129.99 108.804C128.602 106.738 127.628 104.934 126.815 103.04C126.671 102.703 126.678 102.345 126.982 102.125C127.387 101.826 127.755 102.036 128.036 102.368C128.616 103.047 128.96 103.861 129.211 104.7C129.565 105.892 129.994 107.076 129.99 108.804Z" fill="#ECF5EB"/>
<path fill-rule="evenodd" clip-rule="evenodd" d="M25.4836 67.6369C23.9327 66.3621 22.5533 65.3934 21.8101 63.686C23.1389 63.9921 24.3285 65.2507 25.4836 67.6369Z" fill="#D0E9D1"/>
<path fill-rule="evenodd" clip-rule="evenodd" d="M154.422 61.4827C153.209 63.2464 151.704 64.6155 149.787 65.483C149.235 65.7292 148.589 66.0225 148.167 65.3702C147.72 64.6811 148.282 64.2519 148.794 63.9194C150.519 62.7919 152.336 61.8589 154.422 61.4827Z" fill="#F7FFF7"/>
<path fill-rule="evenodd" clip-rule="evenodd" d="M55.3192 68.7516C54.6566 69.6168 53.9709 69.6042 53.2944 69.5432C51.0164 69.3395 48.9915 66.3678 49.6139 64.1588C49.8946 63.1602 50.6022 62.5873 51.5237 62.2122C54.2493 61.1043 56.8897 61.6231 59.3184 62.9439C61.624 64.1957 63.321 66.155 64.3449 68.6078C65.4011 71.1412 65.0456 73.4767 63.275 75.6132C60.9245 78.4423 54.9879 81.0378 49.9384 78.5815C47.6189 77.454 45.3651 76.2218 43.3862 74.5617C40.3282 71.9891 39.0696 68.8046 40.0947 64.8077C40.8252 61.9556 42.016 59.3267 43.5979 56.867C45.0924 54.5464 47.3302 53.2797 49.9798 53.0128C53.3818 52.6734 56.7228 53.2325 59.8982 54.5637C60.959 55.0101 61.9427 55.6164 62.7653 56.4401C63.2232 56.8992 63.7041 57.372 63.6489 58.1084C63.0356 58.2372 62.8021 57.8518 62.5271 57.5952C58.8421 54.1575 54.3436 53.672 49.6542 54.2105C47.6569 54.444 46.0359 55.6612 44.875 57.3617C43.2102 59.7881 42.039 62.4434 41.4166 65.3093C40.709 68.5848 41.7203 71.2965 44.3331 73.4227C46.3465 75.0633 48.6245 76.2552 51.0164 77.1963C54.6071 78.6137 59.3034 77.4655 61.8806 74.7273C63.4579 73.0534 63.8042 71.1424 62.8286 69.1255C61.188 65.7373 58.7834 63.2246 54.7636 62.8289C54.4288 62.7955 54.094 62.7449 53.7569 62.7587C51.923 62.8312 50.7414 63.5836 50.6217 64.7421C50.4595 66.2827 51.5928 68.028 53.0689 68.5491C53.7155 68.7781 54.3804 68.8023 55.3192 68.7516Z" fill="#FDFBFB"/>
<path fill-rule="evenodd" clip-rule="evenodd" d="M111.64 63.3339C111.046 62.7081 110.501 62.0189 109.845 61.4632C105.604 57.8691 100.832 55.8154 95.1509 56.5609C93.6426 56.76 92.3 57.456 91.2162 58.5214C84.8643 64.7778 87.4276 74.8942 94.1155 77.6174C96.8226 78.715 99.5101 79.2615 102.403 78.9129C107.113 78.3468 107.874 74.3534 106.007 71.5439C104.38 69.0945 102.414 66.9672 99.4055 66.163C97.3944 65.6234 96.6166 65.8236 96.1047 67.0178C95.3223 68.8448 95.7584 70.0805 97.5313 71.0653C97.8143 71.2218 98.1963 71.2183 98.4229 71.751C97.8742 72.057 97.3288 71.8741 96.8007 71.7107C94.8817 71.1148 94.1764 69.7411 94.6527 67.5609C95.167 65.2208 96.1403 64.3889 98.2929 64.7721C102.638 65.5406 105.861 67.99 107.832 71.8914C109.513 75.2255 107.717 79.0198 104.175 80.2141C101.427 81.1425 98.7083 80.8526 96.0092 80.091C89.6573 78.2973 85.527 72.6794 85.94 66.339C86.1218 63.5077 87.1216 60.9386 88.9037 58.7124C90.9482 56.1698 93.661 54.9479 96.887 55.0273C101.418 55.1412 105.466 56.7151 109.069 59.4337C110.317 60.3783 111.272 61.5932 111.64 63.3339Z" fill="#FFFBFB"/>
<path fill-rule="evenodd" clip-rule="evenodd" d="M74.9159 44.8005C74.0933 42.9862 74.2153 41.0199 73.8839 39.1331C73.6906 38.0183 73.7378 36.8632 73.4859 35.7415C73.3984 35.3652 73.4594 34.943 73.5089 34.5495C73.5491 34.27 73.785 34.0675 74.0554 34.0376C74.3453 34.0077 74.5546 34.194 74.6329 34.4874C74.7054 34.744 74.8032 35.0028 74.8285 35.2663C75.1 38.4405 75.0942 41.6182 74.9159 44.8005Z" fill="#EEFFEB"/>
<path fill-rule="evenodd" clip-rule="evenodd" d="M78.6171 56.7506C78.0913 54.5969 80.2347 50.4309 82.9971 47.9182C81.8259 50.8704 80.581 53.7892 78.6171 56.7506Z" fill="#EDFAEC"/>
<path fill-rule="evenodd" clip-rule="evenodd" d="M125.24 56.4161C124.795 57.2767 124.361 58.143 123.894 58.9955C123.725 59.2947 123.442 59.5144 123.071 59.3441C122.635 59.1474 122.519 58.7712 122.718 58.3593C123.185 57.3848 123.941 56.6853 124.83 56.1296C124.965 56.2251 125.102 56.3183 125.24 56.4161Z" fill="#EBF9E9"/>
</svg>
