<svg width="244" height="290" viewBox="0 0 244 290" fill="none" xmlns="http://www.w3.org/2000/svg">
<ellipse cx="103" cy="272" rx="91" ry="18" fill="#D4C5A0"/>
<path d="M32.082 52.9763C18.3198 52.9763 7.16357 65.2438 7.16357 80.3769V148.177C7.16357 150.091 8.5749 151.643 10.3162 151.643H147.896V52.9763H32.082Z" fill="#D1465D"/>
<path d="M32.0818 52.6318C36.4013 52.5192 36.6776 52.3253 39.2114 52.6928C43.5066 52.4777 48.4693 52.4481 51.2793 52.8303C53.4169 52.6291 55.6904 52.6161 56.7475 52.7915C58.0118 52.3022 60.3283 52.7666 60.5197 52.4324C64.5672 53.2679 72.9352 51.8148 74.7764 52.5552C79.2496 52.1629 84.3223 52.2358 87.94 52.6854C88.0265 52.4638 89.9592 52.2496 91.7676 52.6586C92.7516 52.1767 98.0358 52.2164 102.705 52.582C102.613 52.377 107.252 52.1111 109.812 52.4213L109.797 52.4223L109.814 52.4213C110.257 52.4749 110.645 52.5441 110.927 52.6355C112.205 52.6254 110.696 52.3392 109.814 52.4213H109.812C112.907 52.2385 116.926 52.1509 118.584 52.5829C119.673 52.2561 124.578 52.2515 126.239 52.5294C126.26 52.3207 126.908 52.2792 128.426 52.5137C129.065 52.4915 128.853 52.3087 128.918 52.1776C133.852 52.1268 134.457 52.5589 139.345 52.3263C135.542 52.918 146.067 52.2478 143.796 52.7389C146.185 52.6429 146.839 52.3761 147.894 52.4426L148.403 52.474L148.376 52.9734C148.348 53.5015 148.253 54.1348 148.044 55.1051C148.642 54.7746 147.909 60.6674 148.402 64.6639C148.249 63.3613 148.161 65.4717 148.096 64.1247C147.987 64.6971 148.071 65.2483 148.013 67.151C148.146 66.73 148.193 65.829 148.2 64.7054C148.203 65.9102 148.454 70.8632 148.137 71.3405C148.661 72.1067 148.286 76.166 148.481 78.4943C148.147 93.1381 147.757 100.508 148.286 114.66C147.99 125.601 147.997 137.249 148.157 144.79C147.879 144.408 147.962 146.026 147.762 146.073C147.967 145.569 148.364 148.267 147.776 148.48C148.023 149.54 147.858 150.078 147.759 151.641L147.893 151.494C147.486 151.462 146.988 151.437 146.372 151.432C148.354 152.059 139.045 151.717 137.094 151.607C136.457 151.629 136.667 151.813 136.604 151.943C123.438 151.765 121.463 151.894 109.279 152.244C111.102 151.799 107.625 152.24 105.449 152.271C105.858 152.169 105.996 152.017 105.921 151.824C101.38 152.339 93.8061 152.365 87.8561 151.839C87.3129 151.914 87.3347 152.097 86.2516 152.071C86.4112 151.671 84.6439 151.936 81.3108 151.995C74.5732 152.116 66.6334 152.375 58.9077 152.262C51.6731 152.155 45.2655 151.699 41.3884 152.273C41.72 151.866 36.7808 152.261 37.4659 151.746C32.3286 152.494 25.2258 151.886 16.7403 152.223C15.9385 152.179 16.7806 152.126 16.7025 152.001C15.5532 152.015 14.3559 152.029 13.1335 152.044C12.5223 152.051 11.9044 152.059 11.2831 152.066L10.3487 152.077C10.007 152.073 9.64677 152.038 9.30843 151.926C7.93153 151.509 6.86612 150.137 6.73514 148.538C6.69233 147.133 6.70661 145.833 6.69317 144.535C6.66715 139.386 6.6772 134.992 6.77291 132.961C6.34473 130.246 6.90895 126.467 6.41528 123.401C6.42788 122.692 6.59575 122.856 6.71413 122.737C6.51683 119.651 6.44048 115.46 6.67304 115.521C6.33973 114.197 6.605 112.915 6.34641 111.373C6.72002 112.631 6.33213 109.486 6.63102 108.305C6.57393 108.82 6.37078 101.632 6.37413 98.7234C6.37917 94.2884 6.8191 89.1416 6.30444 86.697C6.36489 85.3777 6.40941 84.0335 6.44131 82.6718C6.45391 81.9905 6.46649 81.3045 6.47908 80.6149C6.49839 79.9197 6.55297 79.2006 6.58572 78.4897C6.79561 75.6509 7.26994 72.7548 8.25307 70.0489C9.20514 67.3402 10.4855 64.7599 12.0899 62.5045C13.7153 60.2704 15.6035 58.3483 17.6118 56.7945C17.5933 57.0161 18.1911 56.6247 18.307 56.7133C18.4925 56.537 18.7703 56.3098 19.1221 56.0458C19.4722 55.779 19.892 55.467 20.4033 55.2066C20.9087 54.9334 21.4662 54.6333 22.0548 54.3157C22.6719 54.0702 23.3225 53.8117 23.9866 53.5486C26.6514 52.5949 29.7964 52.2229 31.531 52.1961C32.0843 52.1573 31.8643 51.9551 32.0297 51.9431L31.7459 53.1821C31.4756 53.05 30.6612 53.0334 29.4875 53.099C28.9065 53.2014 28.2365 53.3196 27.5002 53.4489C26.7622 53.5689 25.9923 53.88 25.1645 54.1099C24.3367 54.3462 23.5198 54.7783 22.655 55.1134C21.8146 55.5159 20.9784 55.9895 20.1397 56.4409C18.5152 57.4611 16.941 58.5597 15.6002 59.6786C15.2946 60.1707 15.1577 60.347 14.9336 60.5852C14.8202 60.7024 14.6892 60.8391 14.502 61.0329C14.3324 61.2462 14.1167 61.5278 13.827 61.9238C13.869 61.8703 14.0528 61.3164 14.0209 61.3542C12.0059 63.6022 10.4217 66.4309 9.39072 69.4387C8.33958 72.4474 7.80138 75.5946 7.54699 78.654C7.4093 79.7803 7.46891 83.1463 7.44625 86.8724C7.42945 90.6002 7.36987 94.702 7.17174 97.3553C7.58061 107.975 7.59904 118.727 7.57553 129.186C7.56798 134.415 7.56044 139.571 7.55288 144.601C7.56044 145.85 7.56798 147.093 7.57553 148.325C7.61667 149.411 8.25222 150.411 9.12369 150.849C9.56951 151.084 10.0044 151.151 10.5409 151.128C11.0925 151.117 11.6416 151.107 12.1881 151.096C13.2813 151.067 14.3652 151.038 15.439 151.011C16.208 151.073 15.5926 151.436 16.6076 151.446C17.9442 151.425 16.6597 151.08 16.0032 151.118C21.9943 151.076 29.4606 151.025 36.785 150.974C41.8795 150.957 49.2274 150.881 52.72 151.306C54.3119 150.874 60.324 151.162 59.3031 151.371C60.8294 151.11 66.986 151.03 69.7121 151.409C71.9756 151.145 76.4144 151.243 76.8031 151.249C76.9643 151.252 78.0902 151.064 78.9717 151.123C79.1732 151.137 80.0069 151.45 80.1219 151.448C81.6768 151.416 79.2555 151.239 80.6131 151.112C84.8546 150.719 90.714 151.634 95.3778 151.01C98.2776 151.547 100.654 151.066 105.222 150.941L105.335 151.605C105.661 151.142 107.124 151.558 107.447 151.147C107.18 150.984 106.756 151.195 105.807 151.158C106.568 150.685 110.082 151.095 110.238 151.46C111.205 151.429 111.4 151.267 110.875 151.181C112.445 151.28 115.578 151.36 116.179 150.976C117.009 151.436 118.819 150.624 119.515 151.285C121.087 150.749 127.846 150.844 129.341 151.106C130.877 150.763 132.22 150.961 134.754 150.736C133.2 150.924 134.15 151.024 135.905 151.061C135.871 150.953 135.221 150.979 134.791 150.957C135.224 150.583 136 150.852 136.98 150.942C138.231 150.488 143.23 150.589 147.89 150.674L147.011 151.639C147.052 148.895 147.09 146.259 147.044 144.416C147.121 142.648 147.191 143.706 147.443 143.731C147.387 143.259 147.332 142.777 147.332 141.949C147.252 142.282 147.173 142.61 147.033 142.61C146.911 137.402 147.219 131.841 147.335 125.089C147.486 116.393 146.604 97.8778 147.444 91.3499C147.171 83.6938 147.563 73.8885 147.277 62.4833C147.897 64.4543 147.057 58.1793 147.448 57.0309C147.271 56.4114 147.216 54.9445 147.228 52.9725L147.89 53.7009C143.816 53.6732 137.375 53.2707 132.384 53.2605C126.759 53.2476 122.177 54.1265 119.787 53.2374C118.449 53.5356 117.316 53.3169 114.902 53.4932C116.363 53.1784 111.272 53.2864 109.981 53.5273C109.175 53.4839 110.017 53.4295 109.943 53.3058C105.71 53.4249 107.035 53.5836 103.377 53.3519C103.591 53.1857 104.086 53.3907 105.02 53.3399C104.067 52.9457 102.393 53.3741 101.155 53.1451C101.97 53.4858 96.3013 53.5486 95.1385 53.1867C94.5021 53.2098 94.7112 53.3916 94.649 53.5227C89.374 53.123 78.7576 53.9548 72.1872 53.4581C71.942 53.4387 71.2166 53.1331 71.0378 53.1331C69.8976 53.1331 71.5281 53.3861 71.6213 53.351C70.3745 53.8098 62.3365 53.4119 58.498 53.4424C53.0517 53.4858 46.2604 53.7323 41.5445 53.5606C42.3329 53.1211 40.0837 53.3408 39.8276 53.1294C38.7119 53.1036 39.9947 53.4489 40.4313 53.4572C40.6051 53.6197 37.078 53.4599 38.7521 53.2467C36.4366 53.4987 35.3989 53.4562 32.2102 53.4036C32.5267 53.3021 32.8382 53.2005 32.1699 53.1821C32.1212 53.0177 35.3913 52.9993 32.6795 52.9568C32.7794 52.8156 34.2873 52.8008 34.3201 52.9457C35.3393 52.6964 32.8432 52.6789 32.0818 52.6318ZM146.885 151.208C145.413 151.107 144.079 151.112 143.075 151.346C144.243 151.6 148.354 151.059 146.885 151.208Z" fill="#D1465D"/>
<path d="M110.879 151.184C110.715 151.157 110.49 151.136 110.185 151.131C110.342 151.144 110.593 151.163 110.879 151.184Z" fill="#D1465D"/>
<path d="M7.16309 108.865V148.176C7.16309 150.091 8.57441 151.643 10.3157 151.643H147.895V108.341C101.024 108.573 54.1916 107.888 7.16309 108.865Z" fill="#C94360"/>
<path d="M7.1572 108.521C10.6045 108.344 10.8219 108.145 12.8503 108.477C16.2766 108.191 20.2402 108.114 22.4878 108.46C24.1921 108.231 26.0072 108.198 26.8535 108.365C27.8585 107.865 29.7123 108.308 29.8617 107.973C33.1008 108.765 39.772 107.266 41.2471 107.993C44.8169 107.577 48.8687 107.631 51.7593 108.066C51.8282 107.844 53.3705 107.626 54.8154 108.03C55.5996 107.547 59.8201 107.569 63.5486 107.934C63.4755 107.729 67.1789 107.459 69.2233 107.768L69.2107 107.769C69.2107 107.769 69.2199 107.768 69.2249 107.768C69.5792 107.821 69.8882 107.891 70.114 107.983C71.1341 107.973 69.9293 107.687 69.2249 107.768H69.2233C71.695 107.586 74.9038 107.499 76.2286 107.931C77.0984 107.603 81.015 107.605 82.3407 107.884C82.3566 107.675 82.8747 107.634 84.0862 107.871C84.5966 107.85 84.4279 107.666 84.4799 107.536C88.42 107.491 88.9028 107.925 92.8059 107.699C89.7684 108.285 98.1733 107.631 96.359 108.12C99.1631 107.985 98.9751 107.474 101.179 108.198C100.94 107.541 105.218 108.354 108.12 107.818C107.174 107.984 108.707 108.084 107.728 108.153C108.144 108.274 108.545 108.182 109.926 108.248C109.62 108.101 108.966 108.048 108.15 108.039C109.025 108.037 112.621 107.768 112.967 108.116C113.524 107.541 116.472 107.956 118.163 107.743C128.794 108.114 134.147 108.544 144.421 107.923C145.571 107.959 146.731 107.995 147.893 108.03L148.185 108.039L148.177 108.342C147.997 115.883 148.021 123.431 148.158 128.581C147.88 128.277 147.962 129.568 147.762 129.606C147.967 129.204 148.364 131.357 147.777 131.527C148.097 132.624 147.724 133.021 147.704 135.386C148.275 133.646 147.963 141.82 147.863 143.532C147.883 144.092 148.05 143.908 148.169 143.963C148.139 147.164 148.116 149.612 148.097 151.643L148.094 151.866L147.893 151.865C142.868 151.855 140.095 151.993 133.061 152.246C134.516 151.801 131.74 152.242 130.003 152.272C130.33 152.171 130.44 152.019 130.38 151.826C126.754 152.341 120.707 152.367 115.955 151.84C115.521 151.916 115.54 152.099 114.674 152.073C114.801 151.672 113.39 151.937 110.729 151.996C105.349 152.117 99.0095 152.377 92.8412 152.263C87.0649 152.157 81.9486 151.701 78.8531 152.274C79.1176 151.868 75.1741 152.262 75.7215 151.747C71.6202 152.496 65.9489 151.887 59.1736 152.224C58.5338 152.181 59.2055 152.127 59.1433 152.003C51.8038 152.112 41.9927 152.278 39.0424 152.067C37.0711 152.538 34.3265 151.918 32.1008 152.461C31.5862 152.447 31.7045 152.262 31.6181 152.133C29.3773 152.35 26.3347 152.434 26.3792 152.178C25.4179 152.545 24.4867 152.252 23.3676 152.537C24.2802 152.127 21.9974 152.553 21.1394 152.224C21.5138 152.287 16.2942 152.512 14.1819 152.507C13.3767 152.506 12.5397 152.475 11.7085 152.437C11.2929 152.417 10.879 152.398 10.4718 152.38C10.0453 152.368 9.51387 152.287 9.08989 152.104C8.20498 151.75 7.53332 151.071 7.10262 150.362C6.88014 150.01 6.71896 149.642 6.5947 149.291C6.46373 148.968 6.37892 148.504 6.31092 148.319C6.78527 139.799 6.25217 130.169 6.21606 121.847C6.37978 121.956 6.38646 121.365 6.51492 121.318C6.18748 119.653 6.47461 112.459 6.4276 109.313C6.42004 108.827 6.22614 109.011 6.22278 108.865L7.33353 109.165C6.79032 110.091 7.6198 118.727 7.04134 124.595C7.29237 125.514 7.14795 125.337 7.26045 126.963C7.25877 126.905 7.05647 126.473 7.05563 126.515C7.00358 131.531 7.62487 136.853 7.46871 141.831C7.44436 142.749 7.45443 145.451 7.45779 148.395C7.49473 149.759 8.5089 151.047 9.72208 151.339C10.3098 151.475 10.9823 151.438 11.5666 151.493C12.1594 151.53 12.7067 151.575 13.1878 151.629C28.6107 150.73 44.4181 151.55 58.135 151.015C58.7496 151.078 58.2576 151.441 59.0686 151.451C60.1357 151.43 59.1106 151.084 58.5859 151.122C63.3697 151.081 69.3316 151.029 75.1792 150.978C79.2469 150.961 85.1138 150.886 87.902 151.31C89.1731 150.878 93.9738 151.166 93.1577 151.375C94.3768 151.115 99.2924 151.034 101.469 151.414C103.277 151.149 106.821 151.248 107.131 151.253C107.26 151.256 108.158 151.069 108.863 151.128C109.023 151.141 109.69 151.454 109.781 151.453C111.023 151.42 109.089 151.243 110.173 151.117C113.56 150.723 118.238 151.638 121.962 151.014C124.278 151.551 126.175 151.07 129.823 150.946L129.913 151.61C130.174 151.146 131.341 151.562 131.599 151.152C131.387 150.988 131.047 151.2 130.289 151.163C130.896 150.689 133.703 151.099 133.827 151.465C134.6 151.433 134.755 151.272 134.336 151.186C135.59 151.285 138.091 151.364 138.572 150.98C139.235 151.441 140.68 150.628 141.235 151.289C142.234 150.863 145.86 150.835 147.893 150.974L147.284 151.644C147.317 151.065 147.359 150.605 147.407 150.338C147.096 148.99 147.276 147.811 147.072 145.586C147.242 146.95 147.333 146.116 147.366 144.575C147.268 144.604 147.292 145.175 147.272 145.552C146.932 145.173 147.176 144.491 147.259 143.63C146.626 141.946 147.18 132.507 147.047 128.284C147.124 126.872 147.194 127.717 147.446 127.737C147.391 127.359 147.335 126.974 147.335 126.313C147.255 126.579 147.176 126.841 147.036 126.841C146.915 122.683 147.222 118.243 147.339 112.852C147.366 111.578 147.359 110.04 147.334 108.342L147.896 108.957C141.042 109.11 131.367 109.638 127.497 108.882C121.937 109.185 114.817 108.749 106.535 109.047C107.968 108.368 103.41 109.285 102.576 108.853C101.097 109.49 92.9781 108.649 87.248 108.624C82.7571 108.605 79.0983 109.478 77.1908 108.588C76.122 108.886 75.2169 108.667 73.2901 108.843C74.4563 108.528 70.3919 108.636 69.361 108.877C68.717 108.832 69.3895 108.779 69.3307 108.655C65.9515 108.776 67.0093 108.935 64.0884 108.706C64.2589 108.54 64.6535 108.744 65.4007 108.693C64.64 108.3 63.3035 108.73 62.3144 108.502C62.9651 108.841 58.4398 108.91 57.5113 108.553C57.0033 108.577 57.1704 108.759 57.1208 108.89C52.9079 108.501 44.4358 109.367 39.1884 108.915C38.9928 108.898 38.4119 108.597 38.2691 108.598C37.3591 108.605 38.6621 108.848 38.7368 108.812C37.7444 109.276 31.325 108.933 28.2606 109.004C23.9133 109.089 18.4956 109.425 14.7293 109.313C15.3522 108.863 13.5606 109.116 13.3524 108.907C12.4616 108.898 13.4901 109.224 13.8385 109.226C13.9795 109.386 11.162 109.279 12.4952 109.041C10.6507 109.328 9.82199 109.3 7.27557 109.295C7.5266 109.189 7.77344 109.082 7.24032 109.073C7.19834 108.91 9.80938 108.842 7.64329 108.841C7.72053 108.697 8.92447 108.66 8.95302 108.805C9.75901 108.537 7.76589 108.556 7.1572 108.521ZM147.499 134.938C147.407 136.23 147.412 137.401 147.624 138.282C147.856 137.257 147.364 133.648 147.499 134.938Z" fill="#C94360"/>
<path d="M134.338 151.184C134.207 151.157 134.027 151.136 133.784 151.131C133.91 151.144 134.11 151.163 134.338 151.184Z" fill="#C94360"/>
<path d="M147.895 52.9758C134.132 52.9758 122.976 65.2433 122.976 80.3764V151.643H172.813V80.3764C172.813 65.2433 161.657 52.9758 147.895 52.9758Z" fill="#9B2C49"/>
<path d="M147.895 52.6314C149.152 52.625 149.828 52.6213 150.366 52.6185C150.905 52.6647 151.308 52.7958 152.009 53.094C152.323 53.1226 152.641 53.1521 152.961 53.1817L153.911 53.394C154.541 53.562 155.187 53.6747 155.766 53.9267C156.347 54.1676 156.897 54.416 157.388 54.6643C157.885 54.896 158.278 55.2422 158.611 55.5063C159.827 55.8636 160.954 56.6547 161.39 57.1486C161.606 57.1505 161.828 57.2234 162.041 57.3333C162.242 57.4607 162.434 57.6213 162.609 57.7727C162.957 58.0755 163.231 58.3414 163.369 58.2463C163.544 58.5288 163.784 58.7873 164.032 59.0772C164.275 59.3754 164.551 59.6717 164.85 59.9653C165.145 60.2626 165.476 60.5432 165.793 60.8451C166.098 61.159 166.408 61.4757 166.71 61.7859C167.012 62.097 167.325 62.3869 167.588 62.6915C167.841 63.0054 168.076 63.3064 168.278 63.587C168.676 64.153 168.965 64.6173 168.959 64.9755C170.738 67.1349 171.865 70.307 172.06 72.6372C172.256 72.6233 172.758 73.7865 172.618 75.0033C172.874 75.2673 173.121 76.2681 173.296 77.58C173.327 78.2188 173.338 78.9324 173.329 79.671C173.325 79.8556 173.321 80.0412 173.318 80.2286C173.317 80.4714 173.293 80.6182 173.28 80.8176L173.169 81.9356C173.356 81.8775 173.597 84.8059 173.315 86.4224L173.314 86.4131L173.315 86.4242C173.267 86.7039 173.204 86.9486 173.12 87.1268C173.13 87.9337 173.39 86.9809 173.315 86.4242V86.4224C173.481 88.3768 173.56 90.9137 173.168 91.9616C173.466 92.6493 173.47 95.7457 173.217 96.7945C173.407 96.8074 173.444 97.2164 173.231 98.1747C173.251 98.5781 173.418 98.4442 173.537 98.4849C173.583 101.601 173.19 101.983 173.402 105.068C172.864 102.667 173.474 109.312 173.026 107.878C173.154 110.096 173.618 109.946 172.964 111.689C173.562 111.499 172.829 114.884 173.322 117.178C173.169 116.43 173.081 117.641 173.016 116.869C172.907 117.197 172.991 117.514 172.933 118.606C173.066 118.364 173.113 117.847 173.12 117.202C173.123 117.893 173.374 120.737 173.057 121.012C173.581 121.452 173.206 123.782 173.401 125.119C173.068 133.527 172.677 137.759 173.206 145.884C173.116 147.798 173.054 149.749 173.015 151.642L173.011 151.87L172.812 151.865C168.829 151.769 165.055 151.81 162.316 151.933C162.516 151.627 161.67 151.717 161.646 151.498C161.91 151.723 160.501 152.16 160.389 151.513C159.672 151.865 159.413 151.455 157.865 151.433C159.003 152.061 153.658 151.718 152.538 151.609C152.173 151.631 152.293 151.814 152.257 151.945C144.698 151.766 143.563 151.896 136.568 152.246C137.614 151.801 135.619 152.242 134.369 152.272C134.603 152.171 134.683 152.018 134.64 151.825C132.033 152.341 127.685 152.366 124.268 151.84C123.955 151.916 123.969 152.099 123.347 152.073C123.382 151.92 123.254 151.863 122.975 151.856L122.776 151.851L122.78 151.642C122.791 151.152 122.686 150.229 122.652 148.931C122.542 144.677 122.306 139.664 122.41 134.787C122.506 130.22 122.921 126.173 122.399 123.726C122.769 123.936 122.41 120.817 122.879 121.25C122.198 118.007 122.751 113.522 122.445 108.165C122.484 107.659 122.533 108.19 122.646 108.141C122.547 102.337 122.396 94.5788 122.588 92.2459C122.159 90.6866 122.724 88.5171 122.23 86.7575C122.242 86.3503 122.41 86.4445 122.528 86.3762C122.331 84.6046 122.254 82.1978 122.487 82.2338C122.164 81.4666 122.395 80.7539 122.185 79.8363C122.525 80.5878 122.221 78.7183 122.552 78.0462C122.374 78.3444 122.724 74.106 123.232 72.4534C123.928 69.9109 125.466 67.3851 125.759 65.908C127.414 63.3535 129.357 60.7787 131.656 58.5833C133.946 56.3907 136.602 54.6366 139.257 53.5943C139.243 53.7919 139.62 53.6479 139.69 53.7697C139.809 53.6746 139.984 53.5667 140.207 53.4503C140.433 53.346 140.711 53.2583 141.021 53.1567C141.649 52.9804 142.381 52.6998 143.202 52.5927C144.013 52.4846 144.875 52.3176 145.625 52.2797C146.373 52.2548 147.052 52.2271 147.565 52.1855C147.882 52.1597 147.752 51.9529 147.847 51.9446L147.707 53.1752C147.55 53.0349 147.08 53.0053 146.407 53.0349C146.07 53.0543 145.681 53.0681 145.255 53.1253C144.834 53.2121 144.374 53.3063 143.891 53.4051C142.917 53.5537 141.889 53.9405 140.844 54.212C140.318 54.3375 139.824 54.5739 139.318 54.7197C138.821 54.897 138.308 54.9902 137.851 55.1647C137.411 55.7039 137.456 55.5044 136.549 56.1211C136.582 56.1017 136.744 55.7685 136.72 55.7805C135.955 56.1267 135.273 56.6732 134.577 57.1902C133.865 57.6804 133.264 58.3553 132.623 58.948C131.376 60.1943 130.28 61.5643 129.169 62.8411C128.94 63.059 128.601 63.5815 128.153 64.2388C127.933 64.5712 127.673 64.9284 127.423 65.3291C127.193 65.7436 126.947 66.1831 126.696 66.6336C126.149 67.5097 125.756 68.5372 125.292 69.4438C124.864 70.3688 124.55 71.2699 124.204 71.9448C123.55 74.9239 123.315 77.9465 123.353 80.9746C123.406 84.0304 123.404 87.0751 123.393 90.0782C123.369 96.0836 123.305 101.92 123.547 107.343C123.49 107.829 123.16 107.44 123.151 108.081C123.17 108.924 123.484 108.114 123.45 107.699C123.488 111.482 123.535 116.196 123.581 120.82C123.596 124.036 123.664 128.675 123.279 130.88C123.671 131.885 123.409 135.681 123.22 135.036C123.456 136 123.53 139.887 123.184 141.608C123.425 143.038 123.336 145.839 123.331 146.085C123.328 146.187 123.498 146.897 123.445 147.454C123.432 147.582 123.148 148.108 123.149 148.18C123.179 149.162 123.34 147.633 123.455 148.49C123.582 149.438 123.559 150.514 123.503 151.64L122.975 151.061C124.842 151.175 126.858 151.414 128.588 151.01C130.253 151.548 131.617 151.067 134.24 150.942L134.305 151.606C134.493 151.142 135.332 151.559 135.518 151.148C135.365 150.984 135.121 151.196 134.577 151.159C135.013 150.685 137.032 151.095 137.121 151.461C137.676 151.429 137.788 151.268 137.486 151.182C138.387 151.281 140.187 151.36 140.532 150.976C141.009 151.437 142.048 150.624 142.447 151.285C143.349 150.75 147.231 150.844 148.089 151.106C148.971 150.764 149.742 150.961 151.197 150.737C150.304 150.924 150.85 151.024 151.857 151.061C151.838 150.953 151.465 150.98 151.219 150.958C151.467 150.584 151.913 150.852 152.475 150.943C153.578 150.247 159.749 150.856 162.511 150.71C163.433 150.795 162.882 150.872 162.868 151.149C163.115 151.088 163.367 151.027 163.799 151.027C163.626 150.939 163.454 150.851 163.454 150.698C166.174 150.564 169.077 150.902 172.603 151.031C172.669 151.032 172.735 151.034 172.813 151.037L172.264 151.641C172.383 146.572 171.54 136.194 172.367 132.5C172.094 128.104 172.486 122.474 172.2 115.926C172.82 117.058 171.979 113.455 172.371 112.795C171.788 111.628 172.538 105.206 172.551 100.675C172.563 97.1241 171.764 94.2308 172.572 92.7223C172.301 91.8775 172.5 91.1621 172.34 89.6379C172.626 90.5602 172.528 87.3465 172.309 86.5313C172.348 86.0226 172.398 86.5534 172.51 86.5073C172.402 83.8346 172.257 84.671 172.468 82.3612C172.619 82.496 172.433 82.808 172.479 83.3989C172.837 82.7969 172.448 81.7399 172.656 80.9589C172.579 81.0872 172.517 80.9598 172.473 80.6856C172.456 80.5499 172.435 80.3847 172.413 80.1991C172.391 80.0025 172.373 79.7827 172.36 79.5519C172.291 78.6352 172.358 77.543 172.435 77.1839C172.359 76.7934 172.212 76.9383 172.088 76.9125C172.044 76.1084 172.006 75.0818 171.69 73.985C171.55 73.4348 171.414 72.8532 171.237 72.2679C171.026 71.6973 170.807 71.1093 170.587 70.5156C169.627 68.1827 168.4 65.9135 167.413 64.1834C167.345 64.0514 167.318 63.5012 167.256 63.4098C166.867 62.8374 167.243 63.8142 167.299 63.8363C166.953 63.6369 166.076 62.5844 165.087 61.3621C164.553 60.7934 163.984 60.1887 163.453 59.6237C162.875 59.1169 162.333 58.647 161.895 58.2962C161.273 57.7986 160.534 57.4025 159.822 56.9354C159.092 56.5006 158.295 56.1682 157.544 55.7768C156.767 55.4463 155.983 55.1795 155.258 54.8767C154.514 54.6357 153.803 54.44 153.171 54.2092C153.43 54.0559 153.242 53.9461 152.973 53.8427C152.705 53.7457 152.349 53.706 152.295 53.5842C151.67 53.4531 152.34 53.9147 152.579 53.9636C152.65 54.14 150.71 53.6534 151.672 53.5989C150.343 53.5906 149.772 53.5685 147.97 53.4088C148.149 53.3174 148.328 53.226 147.948 53.1854C147.918 53.0192 149.796 53.105 148.241 52.9758C148.3 52.8373 149.172 52.8715 149.183 53.0164C149.781 52.8004 148.339 52.7025 147.895 52.6314ZM158.16 151.208C157.315 151.106 156.549 151.112 155.973 151.345C156.644 151.599 159.004 151.058 158.16 151.208Z" fill="#9B2C49"/>
<path d="M137.487 151.184C137.393 151.157 137.263 151.136 137.089 151.131C137.178 151.148 137.323 151.167 137.487 151.184Z" fill="#9B2C49"/>
<path d="M173.653 151.642H171.974V80.3765C171.974 65.777 161.172 53.8991 147.895 53.8991C134.618 53.8991 123.817 65.777 123.817 80.3765V151.642H122.137V80.3765C122.137 64.7587 133.692 52.0527 147.895 52.0527C162.098 52.0527 173.653 64.7587 173.653 80.3765V151.642Z" fill="#BA3652"/>
<path d="M173.34 151.642C173.238 147.207 173.061 146.924 173.396 144.322C173.2 139.912 173.173 134.817 173.521 131.932C173.338 129.737 173.326 127.403 173.485 126.318C173.04 125.02 173.463 122.642 173.159 122.445C173.919 118.289 172.597 109.698 173.27 107.808C172.914 103.215 172.98 98.0069 173.389 94.2929C173.187 94.2033 172.993 92.2193 173.364 90.3628C173.145 89.8578 173.045 88.2487 173.041 86.1669C173.039 85.1264 173.061 83.9669 173.104 82.7686C173.143 81.5702 173.234 80.3267 173.239 79.1524C173.193 79.1773 173.13 78.904 173.065 78.4434C173.037 78.2107 173.003 77.9338 172.966 77.6236C172.91 77.3143 172.85 76.9727 172.785 76.6117C172.638 75.8926 172.586 75.0718 172.396 74.3037C172.229 73.531 172.09 72.774 172.012 72.1268C172.012 72.1268 172.014 72.137 172.016 72.1416L172.011 72.125C171.918 71.6902 171.855 71.3015 171.843 71.0015C171.429 69.7911 171.663 71.3237 172.011 72.125L172.012 72.1268C171.728 71.4095 171.433 70.6396 171.147 69.8613C170.835 69.096 170.457 68.3556 170.155 67.6281C169.851 66.8997 169.46 66.2738 169.203 65.6728C169.066 65.3773 168.946 65.0976 168.843 64.84C168.721 64.5972 168.62 64.3738 168.545 64.1744C168.121 63.8282 167.278 62.6447 166.269 61.523C165.805 60.9211 165.268 60.3745 164.803 59.8741C164.339 59.3747 163.969 58.8928 163.688 58.6066C163.552 58.7552 163.063 58.4072 162.071 57.2947C161.56 56.9734 161.634 57.2412 161.519 57.316C159.622 56.0106 158.496 55.3892 157.373 54.7615C156.796 54.49 156.214 54.2233 155.511 53.9315C154.793 53.698 153.938 53.4754 152.848 53.2446C154.591 53.4265 153.106 52.9483 151.401 52.7544C150.566 52.5855 149.637 52.5947 149.072 52.5421C148.506 52.495 148.292 52.4332 148.826 52.339C148.423 52.3408 148.045 52.3224 147.762 52.3611C147.455 52.4091 147.189 52.4516 146.951 52.4895C146.479 52.5726 146.129 52.6464 145.799 52.6916C145.133 52.7489 144.58 52.8708 143.256 52.7037C143.352 52.8606 143.106 52.9529 142.647 53.0868C142.192 53.2428 141.516 53.4118 140.727 53.6084C139.939 53.8078 139.08 54.19 138.205 54.5334C137.355 54.9461 136.54 55.4696 135.848 55.9792C136.756 55.3071 135.122 56.0687 136.11 55.4649C135.612 55.5656 135.275 55.9524 133.866 56.8045C134.243 56.7233 134.914 56.3355 135.722 55.8038C135.511 55.9552 135.134 56.2238 134.682 56.546C134.236 56.8765 133.696 57.2236 133.233 57.6575C132.755 58.0674 132.287 58.4543 131.906 58.7395C131.53 59.0331 131.27 59.2648 131.139 59.2676C130.989 60.1317 128.286 62.4213 127.39 64.3775C125.567 67.0539 124.392 69.733 123.565 72.3133C123.219 73.627 122.852 74.8881 122.695 76.1621C122.437 77.4158 122.404 78.7019 122.321 79.9666C122.21 85.0276 122.272 90.0655 122.528 96.6673C122.232 106.883 122.239 117.758 122.399 124.799C122.121 124.443 122.204 125.953 122.004 125.996C122.209 125.526 122.606 128.045 122.018 128.243C122.338 129.526 121.965 129.99 121.945 132.756C122.516 130.721 122.204 140.279 122.105 142.282C122.125 142.935 122.292 142.72 122.41 142.785C122.38 146.474 122.357 149.307 122.338 151.639L122.135 151.416C122.735 151.416 123.288 151.415 123.814 151.415L123.61 151.639C123.595 146.147 123.472 142.447 123.265 134.287C123.67 136.158 123.268 132.588 123.24 130.355C123.333 130.774 123.471 130.916 123.647 130.84C123.178 126.177 123.155 118.401 123.633 112.292C123.565 111.735 123.398 111.758 123.422 110.645C123.786 110.809 123.545 108.995 123.492 105.572C123.382 98.655 123.146 90.5031 123.249 82.5719C123.259 80.732 123.335 78.8763 123.555 77.137C123.711 76.2748 123.807 75.4227 124.003 74.6195C124.211 73.8209 124.413 73.0454 124.609 72.2967C125.512 69.3305 126.73 67.0234 127.506 65.1493C127.565 65.4013 128.222 64.4403 128.863 63.5272C129.541 62.6447 130.267 61.8738 130.211 62.3049C131.6 60.1169 133.861 57.9594 136.821 56.3318C137.572 55.9505 138.323 55.501 139.161 55.212C139.573 55.0486 139.99 54.8833 140.413 54.7153C140.836 54.5501 141.286 54.4568 141.729 54.3202C142.177 54.1992 142.624 54.0506 143.087 53.9435C143.557 53.8586 144.033 53.7718 144.514 53.685C145.486 53.457 146.442 53.4533 147.432 53.337C148.182 53.3388 147.399 53.4358 147.477 53.5558C151.844 53.3693 156.966 54.7679 160.741 57.4166C164.602 59.9305 167.016 63.3343 167.917 64.96C168.377 65.3921 168.703 66.0106 169.084 66.631C169.262 66.9505 169.461 67.2671 169.618 67.617C169.767 67.9706 169.918 68.3297 170.07 68.6907L170.53 69.7764C170.662 70.1484 170.793 70.5195 170.923 70.8888C171.187 71.6237 171.514 72.3198 171.773 73.0066C171.916 73.6714 171.717 73.5652 171.629 73.7074C171.734 74.0582 171.843 74.4247 171.954 74.7958C172.052 75.1734 172.109 75.5731 172.185 75.9637C172.308 76.7428 172.496 77.5386 172.5 78.1932C172.574 79.5337 172.586 80.4587 172.459 80.4919C172.792 81.7281 172.527 82.9255 172.785 84.3648C172.412 83.1914 172.799 86.1262 172.501 87.2295C172.558 86.7485 172.761 93.4601 172.757 96.1753C172.752 100.317 172.313 105.121 172.827 107.404C172.342 117.257 172.883 128.597 172.917 138.305C172.753 138.176 172.747 138.868 172.618 138.923C172.91 140.663 172.712 147.574 172.7 151.637L171.973 150.836C172.419 150.834 172.821 150.832 173.176 150.83C173.694 150.822 173.497 150.609 173.652 150.605L173.333 151.827C173.147 151.714 172.669 151.655 171.973 151.629L171.978 151.636C172.079 148.351 171.622 140.655 172.091 135.089C171.84 134.014 171.984 134.221 171.872 132.319C171.873 132.387 172.076 132.892 172.077 132.843C172.129 126.978 171.507 120.754 171.664 114.933C171.721 112.769 171.564 102.404 171.959 97.4511C171.754 92.4935 171.648 87.5046 171.596 82.535L171.578 80.672C171.573 80.0959 171.519 79.445 171.494 78.8367C171.481 77.5783 171.229 76.4197 171.083 75.2242C170.582 72.8673 169.921 70.5445 168.891 68.423C167.857 66.3199 166.666 64.2972 165.161 62.6059L164.62 61.9504L164.028 61.3559C163.629 60.9654 163.248 60.5536 162.837 60.1834C161.979 59.4947 161.166 58.7432 160.242 58.1884C158.471 56.9393 156.522 56.0964 154.577 55.452C153.584 55.1963 152.613 54.8852 151.612 54.7901C151.115 54.7273 150.625 54.6294 150.131 54.5981C149.637 54.5861 149.144 54.5741 148.653 54.5621C147.956 54.4753 148.517 54.094 147.591 54.1005C146.332 54.2048 147.587 54.4411 148.14 54.4263C145.366 54.4208 142.323 54.9563 139.319 56.2866C136.334 57.6077 133.444 59.6664 131.14 62.3225C129.501 64.1319 127.859 66.7086 126.707 69.3277C125.546 71.9441 124.823 74.5659 124.437 76.2886C124.496 76.7068 124.401 77.3789 124.402 78.1581C124.4 78.9382 124.342 79.8014 124.306 80.6018C124.266 82.2183 124.153 83.4988 124.058 82.9754C124.295 84.542 124.368 90.8632 124.024 93.6623C124.265 95.986 124.175 100.543 124.17 100.942C124.167 101.108 124.338 102.263 124.284 103.168C124.271 103.375 123.987 104.231 123.989 104.349C124.018 105.945 124.179 103.46 124.294 104.853C124.652 109.208 123.82 115.224 124.387 120.011C123.9 122.989 124.336 125.428 124.449 130.118L123.846 130.234C124.267 130.569 123.889 132.07 124.262 132.402C124.411 132.128 124.219 131.692 124.252 130.718C124.683 131.499 124.31 135.107 123.978 135.267C124.006 136.261 124.153 136.46 124.231 135.921C124.141 137.533 124.069 140.75 124.418 141.367C123.999 142.22 124.738 144.078 124.137 144.791C124.449 145.826 124.527 149.051 124.479 151.632L124.465 152.377L123.815 152.362C123.199 152.348 122.624 152.325 122.136 152.295L121.5 152.255L121.532 151.631C121.564 151.015 121.603 150.524 121.649 150.23C121.338 148.653 121.518 147.274 121.314 144.674C121.484 146.269 121.575 145.293 121.608 143.492C121.51 143.526 121.534 144.194 121.514 144.635C121.174 144.192 121.419 143.393 121.501 142.388C120.868 140.418 121.422 129.381 121.289 124.443C121.367 122.792 121.436 123.78 121.688 123.803C121.633 123.362 121.577 122.911 121.577 122.138C121.498 122.449 121.418 122.756 121.278 122.756C121.157 117.894 121.464 112.702 121.581 106.398C121.655 102.338 121.473 95.986 121.377 89.8883C121.328 86.8389 121.302 83.8533 121.34 81.249C121.347 80.9092 121.355 80.575 121.362 80.2473C121.384 79.9352 121.406 79.6297 121.428 79.3315C121.48 78.736 121.529 78.1692 121.576 77.6337C121.744 76.5453 121.982 75.5879 122.185 74.8401C122.683 71.2433 124.069 67.232 126.574 63.5309C126.891 63.0721 127.211 62.6087 127.535 62.1387C127.875 61.6845 128.258 61.2599 128.623 60.8112C129.33 59.8862 130.206 59.1106 131.04 58.2502C131.471 57.8376 131.949 57.4784 132.409 57.0815C132.869 56.6854 133.339 56.294 133.855 55.9644C134.36 55.6145 134.869 55.2618 135.382 54.9055C135.923 54.5999 136.469 54.2915 137.02 53.9804C136.699 54.3396 136.746 54.3922 137.007 54.2722C137.269 54.1531 137.739 53.8355 138.327 53.5752C138.906 53.2954 139.563 52.9622 140.149 52.7258C140.748 52.5393 141.265 52.4165 141.529 52.4525C141.724 52.315 142.045 52.1645 142.473 52.0039C142.903 51.8654 143.451 51.7712 144.076 51.654C144.39 51.6014 144.724 51.546 145.076 51.4869C145.429 51.4435 145.805 51.4472 146.193 51.4287C146.581 51.4177 146.984 51.4066 147.401 51.3946C147.621 51.3964 147.793 51.3687 148.061 51.3964C148.269 51.4158 148.481 51.4352 148.694 51.4546C149.551 51.5561 150.432 51.5607 151.366 51.8008C152.291 51.9983 153.238 52.1553 154.133 52.4904C154.586 52.6353 155.038 52.7803 155.487 52.9243C155.931 53.0813 156.356 53.2936 156.784 53.4699C157.21 53.6527 157.63 53.8327 158.042 54.01C158.439 54.2251 158.829 54.4356 159.209 54.6414C160.427 55.2258 161.491 55.9829 162.547 56.5977C163.519 57.3474 164.514 57.9465 165.273 58.7054C165.667 59.0636 166.042 59.4107 166.389 59.7477C166.729 60.0911 167.003 60.4687 167.268 60.8084C167.787 61.4999 168.193 62.1323 168.351 62.7831C168.832 63.2494 169.209 63.7479 169.625 64.384C169.99 65.0579 170.45 65.8306 171.07 66.8941C170.643 66.283 170.975 67.1582 171.502 68.3205C171.637 68.6095 171.781 68.9196 171.925 69.2308C172.049 69.552 172.172 69.8742 172.29 70.1798C172.531 70.7873 172.758 71.32 172.916 71.6191C173.103 72.437 172.831 71.6089 172.736 71.7234C173.3 73.8292 173.564 74.5475 173.653 75.2242C173.712 75.5602 173.758 75.8796 173.809 76.3532C173.86 76.8268 173.941 77.4509 173.906 78.4083C173.726 78.2006 173.956 77.6651 173.749 76.7096C173.689 76.9672 173.704 77.2607 173.707 77.582C173.705 77.9042 173.73 78.2514 173.759 78.6077C173.812 79.3195 173.914 80.0774 173.808 80.7126C174.118 79.8762 174.175 85.696 173.846 86.8897C173.867 87.5433 174.032 87.3282 174.151 87.3929C173.788 92.8083 174.544 103.708 174.092 110.454C174.075 110.705 173.797 111.451 173.797 111.634C173.797 112.805 174.027 111.131 173.995 111.035C174.412 112.316 174.05 120.568 174.078 124.509C174.118 130.1 174.342 137.073 174.186 141.914C173.787 141.106 173.986 143.413 173.794 143.677C173.77 144.822 174.084 143.505 174.092 143.057C174.239 142.879 174.094 146.5 173.9 144.781C174.129 147.158 174.091 148.223 174.043 151.497C173.951 151.172 173.858 150.853 173.841 151.538C173.692 151.588 173.675 148.23 173.637 151.014C173.508 150.912 173.495 149.364 173.626 149.329C173.399 148.297 173.383 150.86 173.34 151.642ZM121.741 132.234C121.649 133.746 121.654 135.115 121.866 136.146C122.098 134.946 121.606 130.726 121.741 132.234Z" fill="#BA3652"/>
<path d="M124.233 135.93C124.257 135.762 124.277 135.531 124.282 135.218C124.27 135.38 124.252 135.637 124.233 135.93Z" fill="#BA3652"/>
<path d="M32.0817 52.053C17.8787 52.053 6.32373 64.759 6.32373 80.3767V151.642H8.00287V80.3767C8.00287 65.7772 18.8048 53.8994 32.0817 53.8994C32.2446 53.8994 32.405 53.9095 32.567 53.9132C34.2092 53.4036 35.89 53.0168 37.5926 52.7131C35.8153 52.2847 33.9733 52.053 32.0817 52.053Z" fill="#BA3652"/>
<path d="M32.0818 51.7085C34.2294 51.6393 34.4032 51.5138 35.6122 52.0372C36.2855 52.0714 36.9907 52.1581 37.675 52.2985L39.6572 52.7037L37.6548 53.1303C36.1948 53.4414 34.7885 53.7017 33.8163 53.699C33.4234 53.8891 33.0187 54.0599 32.6409 54.1975L32.6082 54.2095L32.5645 54.2086C31.9642 54.2003 31.4613 54.2344 31.1448 54.1347C30.5546 54.66 29.4052 54.2427 29.3464 54.6305C28.8427 54.504 28.2139 54.5437 27.5498 54.6628C26.8882 54.7966 26.214 55.1151 25.5709 55.369C24.9194 55.6026 24.3586 55.9986 23.8607 56.1971C23.3712 56.4242 22.9548 56.5083 22.6929 56.4621C20.8483 57.7712 18.8182 59.1126 17.1844 59.9767C17.2533 60.1567 16.7042 60.9996 15.805 61.3486C15.7916 61.5249 15.6631 61.7723 15.4482 62.0641C15.2551 62.3798 14.9864 62.7519 14.6607 63.1479C13.9722 63.9077 13.2326 64.9287 12.409 65.815C12.4971 65.8519 12.3023 66.4336 11.9783 67.1213C11.8196 67.4685 11.6122 67.8322 11.42 68.1923C11.2428 68.5615 11.0489 68.9077 10.8516 69.1792L10.8541 69.1718L10.8516 69.181C10.7147 69.3693 10.577 69.5253 10.441 69.6232C10.1807 70.2399 10.7357 69.6334 10.8516 69.181C10.7198 69.5678 10.5795 69.9787 10.4385 70.3904C10.3235 70.816 10.1967 71.2379 10.0615 71.6312C9.92633 72.0245 9.78029 72.3891 9.62916 72.7012C9.50743 73.0234 9.37392 73.2902 9.22952 73.4757C9.31599 73.8016 9.18083 74.5836 9.03894 75.3895C8.934 76.1982 8.75347 77.0328 8.5654 77.4575C8.74423 77.4778 8.74338 77.8166 8.50243 78.6299C8.50662 78.9761 8.6779 78.8709 8.79544 78.9124C8.77948 79.5624 8.72998 80.1366 8.69556 80.505C8.6687 80.9518 8.63007 81.3257 8.59733 81.6987C8.53184 82.4446 8.48565 83.1869 8.59144 84.5089C8.05327 82.452 8.66278 88.1435 8.21613 86.9157C8.34374 88.8147 8.80805 88.6863 8.15402 90.1801C8.7518 90.0176 8.01882 92.9155 8.51165 94.8801C8.35885 94.2394 8.27073 95.2771 8.20609 94.6151C8.09694 94.8967 8.1809 95.1681 8.12297 96.1033C8.25562 95.8965 8.30261 95.4534 8.31016 94.9004C8.31268 95.4931 8.56375 97.9285 8.24723 98.163C8.77113 98.5396 8.39584 100.536 8.59062 101.681C8.25815 108.882 7.86686 112.507 8.39579 119.466C8.10026 124.846 8.10702 130.574 8.26737 134.282C7.98948 134.095 8.07175 134.891 7.87193 134.913C8.07678 134.664 8.47387 135.992 7.88617 136.096C8.20605 136.772 7.8333 137.016 7.81315 138.473C8.38406 137.401 8.07258 142.435 7.97267 143.489C7.99282 143.834 8.15991 143.72 8.27829 143.754C8.19349 147.475 8.18507 149.543 8.24216 151.64L8.24887 151.892L8.00373 151.902C7.46136 151.925 6.91229 151.949 6.32459 151.973L6.03747 151.985L6.02066 151.639C5.95602 150.316 5.88046 148.752 5.77552 146.597C6.18019 147.583 5.77888 145.702 5.75117 144.526C5.84353 144.747 5.98206 144.821 6.15753 144.781C5.68905 142.325 5.66555 138.23 6.14411 135.012C6.07526 134.719 5.90902 134.731 5.93252 134.145C6.2969 134.231 6.05595 133.275 6.00222 131.473C5.89223 127.83 5.65631 123.536 5.75958 119.359C5.85613 115.447 6.27086 111.981 5.74948 109.886C6.11889 110.065 5.76038 107.394 6.22886 107.765C5.54881 104.987 6.10128 101.147 5.79483 96.5585C5.83429 96.1255 5.88382 96.5797 5.99632 96.5382C5.89725 91.5677 5.74612 84.9234 5.93755 82.9256C5.72346 82.2581 5.75786 81.4596 5.78305 80.6398C5.82251 79.8126 5.89643 78.9568 5.68066 78.1656C5.71005 77.8083 5.87291 77.9071 5.99381 77.8582C5.92413 77.0771 6.03749 76.1669 6.10465 75.4523C6.17601 74.7359 6.31454 74.2364 6.43712 74.2817C6.26249 73.5561 6.66713 72.9984 6.59577 72.1676C6.70239 72.5331 6.7536 72.3005 6.83 71.9183C6.9106 71.537 7.08191 71.0219 7.30943 70.7957C7.24227 70.9065 7.44206 70.0968 7.72163 69.0785C8.09104 68.1045 8.5293 66.9127 8.85841 66.2711C9.88353 64.2982 11.6139 62.5137 11.9858 61.2452C12.4408 60.7928 12.89 60.3229 13.3342 59.8392C13.8102 59.3886 14.2904 58.9353 14.7749 58.4774C15.2366 57.9909 15.7656 57.5847 16.276 57.1489C16.7924 56.7224 17.2844 56.2488 17.8435 55.8842C19.9559 54.2076 22.3545 52.9973 24.6457 52.1923C24.6306 52.3825 24.9631 52.2957 25.0235 52.424C25.4475 52.136 26.6632 51.6929 28.077 51.5442C29.4934 51.2682 30.9081 51.3586 31.7946 51.2589C32.0667 51.2359 31.9533 51.0281 32.0347 51.0208L31.9239 52.2505C31.7879 52.1083 31.3857 52.076 30.8081 52.1C30.2322 52.1341 29.4724 52.1637 28.6479 52.3779C27.8218 52.5653 26.9067 52.6991 26.0209 52.9835C25.5734 53.1035 25.1251 53.2106 24.6826 53.2983C24.2385 53.3805 23.8255 53.53 23.4099 53.5992C23.0119 54.0535 23.0547 53.867 22.2428 54.3258C22.2722 54.312 22.4225 54.0147 22.4007 54.0221C19.7376 55.1595 17.5278 57.4721 15.3794 59.312C15.1804 59.4893 14.8101 59.8576 14.3366 60.3321C13.8598 60.803 13.3686 61.4788 12.7968 62.1315C11.7054 63.4904 10.6266 65.0949 9.87431 66.1224C9.74502 66.4169 9.60312 66.7031 9.48138 67.0004L9.15224 67.9125C8.94067 68.5228 8.68209 69.1081 8.49822 69.7257C8.1498 70.9692 7.74344 72.1832 7.52347 73.4554C7.20528 74.6999 7.09613 75.984 6.91563 77.247C6.83587 77.8803 6.84597 78.5219 6.80315 79.1562C6.77376 79.7923 6.73093 80.4219 6.74017 81.069C6.71666 86.2122 6.65203 91.2113 6.89467 95.8559C6.83758 96.2723 6.50764 95.939 6.4984 96.4883C6.51771 97.2112 6.83168 96.5169 6.79726 96.1615C6.83504 99.4001 6.88206 103.439 6.92823 107.399C6.94335 110.153 7.0122 114.127 6.626 116.015C7.01892 116.875 6.75697 120.127 6.56722 119.575C6.80398 120.4 6.87701 123.729 6.53279 125.203C6.77375 126.428 6.68392 128.828 6.67888 129.038C6.67636 129.125 6.84679 129.734 6.79305 130.21C6.78046 130.319 6.49585 130.769 6.49753 130.832C6.52692 131.673 6.68813 130.364 6.80315 131.098C7.1608 133.391 6.32881 136.56 6.89636 139.082C6.40773 140.65 6.84512 141.935 6.95847 144.405L6.35482 144.466C6.77628 144.642 6.39761 145.434 6.77122 145.608C6.91983 145.464 6.7276 145.234 6.76118 144.722C7.19188 145.133 6.81909 147.033 6.48662 147.117C6.51516 147.641 6.66209 147.746 6.74017 147.462C6.65034 148.31 6.57815 150.005 6.92741 150.33C6.63944 150.639 6.89883 151.199 6.8938 151.64L6.32377 151.013C6.50595 151.016 6.66547 151.079 6.77209 151.285C7.0013 151.126 7.45551 151.022 8.00291 150.962L7.38666 151.639C7.25736 150.223 7.34969 148.247 7.51676 147.68C7.20528 146.849 7.38498 146.123 7.18096 144.753C7.3514 145.593 7.44124 145.08 7.47566 144.131C7.37744 144.149 7.40178 144.5 7.38163 144.733C7.04161 144.499 7.28588 144.079 7.36816 143.549C6.73512 142.512 7.28928 136.698 7.15662 134.098C7.23386 133.228 7.30353 133.749 7.5554 133.761C7.49999 133.528 7.44456 133.291 7.44456 132.884C7.3648 133.048 7.28424 133.209 7.14571 133.209C7.02397 130.648 7.33124 127.913 7.44794 124.592C7.59823 120.316 6.71665 111.211 7.55622 108.002C7.28336 104.237 7.67544 99.4148 7.38999 93.8064C8.00959 94.7758 7.16918 91.6895 7.56042 91.1254C6.97776 90.1247 7.72752 84.6252 7.74095 80.745C7.74515 79.9556 7.75524 79.2503 7.7183 78.5607C7.70655 78.2191 7.67884 77.8905 7.67464 77.5701C7.68892 77.2442 7.70231 76.9303 7.71574 76.6331C7.74932 76.0339 7.80142 75.4874 7.90636 75.0221C8.03314 74.566 8.23797 74.2014 8.50412 73.9373C8.42352 73.1572 8.69219 72.5913 8.98688 71.2997C9.01207 72.1555 9.75002 69.4995 9.90618 68.7831C10.1178 68.4018 9.9784 68.8431 10.0959 68.8597C10.4989 67.787 10.6089 67.3955 10.771 67.0816C10.9204 66.7613 11.0883 66.4927 11.6517 65.6978C11.723 65.888 11.4384 66.008 11.2344 66.4742C11.7826 66.2379 11.8742 65.2168 12.4392 64.8226C12.1915 64.902 12.4795 64.3102 12.9093 63.6584C13.3241 62.9937 13.9999 62.3899 14.298 62.2662C14.4953 61.9939 14.3047 61.9533 14.2392 61.8379C15.2534 60.8935 16.6782 59.3895 18.3229 57.9835C20.018 56.6809 21.923 55.453 23.5727 55.1188C23.6953 55.0893 24.1277 55.2407 24.2091 55.2084C24.7397 54.9942 23.906 55.0607 23.8716 55.1124C23.9824 54.9453 24.3107 54.7477 24.7708 54.5335C25.2443 54.3701 25.8513 54.203 26.4995 54.0396C27.1417 53.843 27.852 53.8024 28.5035 53.7082C29.1567 53.6159 29.7629 53.5383 30.2439 53.5282C30.9794 53.4931 31.7728 53.3638 32.5712 53.3721L32.4335 53.3925C34.1438 52.7896 35.9707 52.3068 37.4995 52.0843L37.4693 53.3269C37.1612 53.2429 36.8824 53.1663 36.6154 53.0924C37.0646 52.7333 35.9538 52.7388 35.8581 52.5163C35.3225 52.4055 35.8976 52.8431 36.1016 52.8902C36.1646 53.0509 34.4964 52.6484 35.3234 52.5533C34.1774 52.6613 33.6912 52.556 32.1464 52.4803C32.2992 52.3797 32.4537 52.28 32.1271 52.2588C32.1011 52.0861 33.7105 52.1101 32.3781 52.0353C32.4285 51.8904 33.1757 51.8996 33.1858 52.0483C33.6979 51.8239 32.4621 51.7455 32.0818 51.7085ZM7.60746 138.198C7.51511 138.994 7.52014 139.715 7.73255 140.258C7.96427 139.626 7.47229 137.404 7.60746 138.198Z" fill="#BA3652"/>
<path d="M6.73999 147.463C6.76434 147.375 6.78363 147.253 6.78867 147.089C6.77272 147.173 6.75594 147.308 6.73999 147.463Z" fill="#BA3652"/>
<path d="M78.6769 52.0527C64.4739 52.0527 52.9189 64.7587 52.9189 80.3765V151.642H54.5981V80.3765C54.5981 65.777 65.4 53.8991 78.6769 53.8991C78.8398 53.8991 79.0002 53.9093 79.1614 53.913C80.8036 53.4034 82.4844 53.0166 84.1871 52.7128C82.4106 52.2845 80.5685 52.0527 78.6769 52.0527Z" fill="#BA3652"/>
<path d="M78.6771 51.7083C80.8247 51.639 80.9985 51.5135 82.2075 52.037C82.8808 52.0711 83.5861 52.1579 84.2703 52.2982L86.2525 52.7035L84.2502 53.13C82.7901 53.4411 81.3839 53.7015 80.4117 53.6987C80.0196 53.8889 79.6141 54.0597 79.2363 54.1972L79.2044 54.2092L79.1607 54.2083C78.5604 54.2 78.0575 54.2342 77.741 54.1345C77.1508 54.6598 76.0014 54.2425 75.9426 54.6302C75.4389 54.5037 74.81 54.5434 74.1459 54.6625C73.4844 54.7964 72.8102 55.1149 72.1671 55.3688C71.5164 55.6023 70.9548 55.9984 70.4569 56.1969C69.9674 56.424 69.551 56.508 69.2891 56.4619C67.4445 57.7709 65.4153 59.1124 63.7806 59.9765C63.8495 60.1565 63.3004 60.9994 62.4012 61.3483C62.3878 61.5247 62.2585 61.7721 62.0444 62.0638C61.8513 62.3796 61.5826 62.7516 61.2569 63.1477C60.5693 63.9075 59.8288 64.9285 59.0051 65.8148C59.0933 65.8517 58.8985 66.4333 58.5744 67.1211C58.4166 67.4682 58.2093 67.832 58.0162 68.192C57.839 68.5613 57.6451 68.9075 57.4478 69.1789L57.4503 69.1715L57.4469 69.1807C57.31 69.3691 57.1724 69.5251 57.0364 69.623C56.7761 70.2397 57.331 69.6331 57.4469 69.1807L57.4478 69.1798C57.316 69.5667 57.1757 69.9784 57.0347 70.3902C56.9197 70.8158 56.7929 71.2377 56.6577 71.6309C56.5225 72.0242 56.3765 72.3889 56.2254 72.7009C56.1036 73.0231 55.9701 73.2899 55.8257 73.4755C55.9122 73.8014 55.777 74.5833 55.6351 75.3893C55.5302 76.198 55.3497 77.0326 55.1616 77.4572C55.3404 77.4776 55.3396 77.8164 55.0986 78.6297C55.1028 78.9759 55.2741 78.8707 55.3916 78.9122C55.3757 79.5621 55.3262 80.1364 55.2918 80.5047C55.2649 80.9516 55.2263 81.3254 55.1935 81.6984C55.128 82.4444 55.0818 83.1866 55.1876 84.5086C54.6495 82.4518 55.2598 88.1433 54.8123 86.9154C54.9399 88.8144 55.4042 88.6861 54.7502 90.1798C55.348 90.0173 54.615 92.9153 55.1078 94.8798C54.955 94.2391 54.8669 95.2768 54.8023 94.6149C54.6931 94.8965 54.7771 95.1679 54.7192 96.1031C54.8518 95.8963 54.8988 95.4531 54.9064 94.9002C54.9089 95.4928 55.1599 97.9282 54.8434 98.1627C55.3673 98.5394 54.992 100.535 55.1868 101.681C54.8543 108.882 54.4631 112.506 54.992 119.466C54.6965 124.846 54.7032 130.574 54.8636 134.282C54.5865 134.095 54.6679 134.89 54.4681 134.913C54.673 134.664 55.0701 135.992 54.4824 136.096C54.8022 136.772 54.4295 137.016 54.4093 138.472C54.9803 137.401 54.6688 142.435 54.5689 143.489C54.589 143.833 54.7561 143.72 54.8745 143.754C54.7897 147.474 54.7813 149.542 54.8384 151.64L54.8451 151.892L54.5999 151.902C54.0576 151.925 53.5093 151.948 52.9208 151.973L52.6337 151.985L52.6169 151.639C52.5522 150.316 52.4767 148.751 52.3717 146.597C52.7755 147.583 52.3751 145.702 52.3474 144.526C52.4397 144.746 52.5783 144.821 52.7537 144.781C52.2852 142.325 52.2617 138.23 52.7403 135.012C52.6715 134.719 52.5052 134.731 52.5287 134.144C52.8931 134.23 52.6521 133.275 52.5984 131.473C52.4884 127.83 52.2525 123.536 52.3558 119.358C52.4523 115.447 52.867 111.981 52.3457 109.886C52.7151 110.065 52.3566 107.394 52.8251 107.765C52.145 104.987 52.6975 101.147 52.391 96.5582C52.4305 96.1253 52.48 96.5795 52.5925 96.5379C52.4934 91.5674 52.3423 84.9231 52.5337 82.9253C52.3196 82.2579 52.3541 81.4593 52.3792 80.6395C52.4187 79.8123 52.4926 78.9565 52.2769 78.1653C52.3062 77.8081 52.4691 77.9068 52.59 77.8579C52.5203 77.0769 52.6337 76.1666 52.7017 75.4521C52.773 74.7357 52.9116 74.2362 53.0341 74.2814C52.8595 73.5558 53.2642 72.9982 53.1928 72.1673C53.2995 72.5329 53.3507 72.3003 53.4271 71.9181C53.5077 71.5368 53.6789 71.0216 53.9064 70.7954C53.8384 70.9062 54.0391 70.0966 54.3187 69.0783C54.6881 68.1043 55.1263 66.9125 55.4554 66.2708C56.4805 64.298 58.2109 62.5134 58.5829 61.2449C59.0379 60.7926 59.4871 60.3227 59.9312 59.8389C60.4073 59.3884 60.8874 58.9351 61.3719 58.4772C61.8336 57.9907 62.3626 57.5845 62.8739 57.1487C63.3902 56.7222 63.8822 56.2486 64.4413 55.8839C66.5537 54.2074 68.9524 52.9971 71.2436 52.1921C71.2285 52.3822 71.5609 52.2955 71.6213 52.4238C72.0453 52.1358 73.261 51.6926 74.6749 51.544C76.0912 51.2679 77.5059 51.3584 78.3925 51.2587C78.6645 51.2356 78.5512 51.0279 78.6326 51.0205L78.5218 52.2502C78.3849 52.108 77.9836 52.0757 77.406 52.0997C76.83 52.1339 76.0702 52.1634 75.2458 52.3776C74.4196 52.565 73.5054 52.6989 72.6188 52.9832C72.1721 53.1033 71.7229 53.2103 71.2805 53.298C70.8363 53.3802 70.4224 53.5298 70.0077 53.599C69.6097 54.0532 69.6526 53.8667 68.8407 54.3256C68.8701 54.3117 69.0204 54.0144 68.9986 54.0218C66.3354 55.1592 64.1257 57.4718 61.9772 59.3118C61.7782 59.489 61.4088 59.8574 60.9345 60.3319C60.4576 60.8027 59.9664 61.4785 59.3947 62.1312C58.3024 63.4902 57.2244 65.0947 56.4721 66.1222C56.3428 66.4167 56.201 66.7029 56.0793 67.0001L55.7501 67.9123C55.5386 68.5225 55.28 69.1078 55.0961 69.7255C54.7477 70.969 54.3405 72.183 54.1214 73.4552C53.8032 74.6996 53.694 75.9838 53.5135 77.2467C53.4338 77.88 53.4438 78.5217 53.401 79.1559C53.3716 79.792 53.3288 80.4216 53.3381 81.0688C53.3145 86.2119 53.2499 91.2111 53.4926 95.8557C53.4355 96.272 53.1055 95.9388 53.0962 96.4881C53.1155 97.2109 53.4296 96.5167 53.3951 96.1612C53.4329 99.3998 53.4799 103.439 53.5261 107.398C53.5412 110.153 53.6101 114.127 53.2239 116.015C53.6168 116.875 53.3548 120.127 53.1651 119.575C53.4019 120.4 53.4749 123.729 53.1299 125.203C53.3708 126.427 53.281 128.828 53.2759 129.037C53.2734 129.125 53.4438 129.733 53.3901 130.21C53.3775 130.319 53.0929 130.769 53.0946 130.832C53.124 131.673 53.2851 130.364 53.4002 131.098C53.7578 133.391 52.9258 136.56 53.4934 139.082C53.0047 140.65 53.4421 141.934 53.5555 144.405L52.9518 144.466C53.3733 144.642 52.9947 145.433 53.3683 145.608C53.5169 145.464 53.3246 145.234 53.3582 144.722C53.7889 145.132 53.4162 147.033 53.0837 147.117C53.1122 147.641 53.2592 147.746 53.3372 147.462C53.2474 148.31 53.1752 150.005 53.5244 150.33C53.2365 150.639 53.4959 151.199 53.4909 151.64L52.9208 151.013C53.103 151.016 53.2625 151.079 53.3691 151.285C53.5983 151.126 54.0525 151.021 54.5999 150.961L53.9837 151.639C53.8544 150.223 53.9468 148.247 54.1138 147.679C53.8023 146.849 53.982 146.123 53.778 144.753C53.9484 145.593 54.0383 145.08 54.0727 144.131C53.9744 144.149 53.9988 144.5 53.9786 144.733C53.6386 144.499 53.8829 144.079 53.9652 143.549C53.3322 142.511 53.8863 136.698 53.7536 134.097C53.8309 133.228 53.9005 133.748 54.1524 133.76C54.097 133.528 54.0416 133.29 54.0416 132.883C53.9619 133.048 53.8821 133.208 53.7427 133.208C53.621 130.647 53.9283 127.913 54.045 124.592C54.1952 120.316 53.3137 111.211 54.1533 108.001C53.8804 104.236 54.2725 99.4146 53.987 93.8062C54.6067 94.7755 53.7662 91.6893 54.1575 91.1252C53.5748 90.1245 54.3245 84.6249 54.338 80.7447C54.3422 79.9554 54.3523 79.2501 54.3153 78.5604C54.3036 78.2189 54.2759 77.8902 54.2717 77.5699C54.2859 77.244 54.2994 76.9301 54.3128 76.6328C54.3464 76.0337 54.3984 75.4871 54.5034 75.0218C54.6302 74.5658 54.835 74.2011 55.1011 73.9371C55.0205 73.157 55.2892 72.5911 55.5839 71.2995C55.6091 72.1553 56.3471 69.4992 56.5032 68.7828C56.7148 68.4016 56.5754 68.8429 56.6929 68.8595C57.0959 67.7867 57.2059 67.3953 57.368 67.0814C57.5183 66.7611 57.6862 66.4924 58.2487 65.6975C58.3201 65.8877 58.0354 66.0077 57.8314 66.4739C58.3797 66.2376 58.4712 65.2165 59.0362 64.8223C58.7885 64.9017 59.0765 64.31 59.5064 63.6582C59.9211 62.9935 60.597 62.3897 60.895 62.266C61.0923 61.9937 60.9017 61.953 60.8362 61.8376C61.8504 60.8932 63.2752 59.3893 64.9199 57.9833C66.615 56.6806 68.52 55.4528 70.1697 55.1186C70.2923 55.089 70.7247 55.2405 70.8061 55.2081C71.3367 54.994 70.5031 55.0604 70.4686 55.1121C70.5795 54.945 70.9077 54.7475 71.3678 54.5333C71.8413 54.3699 72.4483 54.2028 73.0965 54.0394C73.7388 53.8427 74.4491 53.8021 75.1006 53.7079C75.7537 53.6156 76.3599 53.5381 76.841 53.5279C77.5765 53.4928 78.3698 53.3636 79.1683 53.3719L79.0306 53.3922C80.7408 52.7894 82.5677 52.3065 84.0965 52.084L84.0663 53.3267C83.7582 53.2427 83.4795 53.166 83.2125 53.0922C83.6616 52.7331 82.5509 52.7386 82.4551 52.5161C81.9195 52.4053 82.4946 52.8429 82.6995 52.89C82.7624 53.0506 81.0942 52.6481 81.9212 52.553C80.7752 52.661 80.2891 52.5558 78.7443 52.4801C78.8971 52.3795 79.0516 52.2798 78.7258 52.2585C78.6998 52.0859 80.3093 52.1099 78.9769 52.0351C79.0272 51.8902 79.7744 51.8994 79.7845 52.048C80.2933 51.8237 79.0574 51.7452 78.6771 51.7083ZM54.2028 138.198C54.1105 138.994 54.1155 139.715 54.3279 140.258C54.5596 139.625 54.0677 137.403 54.2028 138.198Z" fill="#BA3652"/>
<path d="M53.3357 147.463C53.36 147.375 53.3793 147.253 53.3844 147.088C53.3693 147.172 53.3525 147.308 53.3357 147.463Z" fill="#BA3652"/>
<path d="M177.415 155.78H2.5607C1.52131 155.78 0.679199 154.854 0.679199 153.711C0.679199 152.568 1.52131 151.642 2.5607 151.642H177.415C178.455 151.642 179.297 152.568 179.297 153.711C179.297 154.853 178.455 155.78 177.415 155.78Z" fill="#BA3652"/>
<path d="M177.416 155.435C178.013 155.404 178.417 155.039 178.621 154.692C178.833 154.337 178.871 153.992 178.862 153.711C178.835 153.283 178.703 152.981 178.521 152.688C178.333 152.409 178.061 152.104 177.568 151.934C174.135 152.131 170.119 152.174 167.861 151.787C166.139 151.988 164.309 152.001 163.457 151.826C162.438 152.315 160.573 151.851 160.418 152.185C157.158 151.349 150.418 152.802 148.936 152.062C145.333 152.454 141.247 152.381 138.333 151.932C138.263 152.153 136.707 152.368 135.25 151.959C134.457 152.44 130.202 152.401 126.441 152.034C126.515 152.239 122.779 152.505 120.717 152.195L120.729 152.194C120.729 152.194 120.72 152.195 120.715 152.195C120.358 152.141 120.046 152.072 119.819 151.981C118.789 151.991 120.005 152.277 120.715 152.195H120.717C118.224 152.378 114.987 152.465 113.651 152.033C112.775 152.36 108.824 152.365 107.485 152.087C107.469 152.296 106.947 152.338 105.724 152.103C105.209 152.125 105.38 152.308 105.328 152.439C101.354 152.489 100.866 152.057 96.9294 152.29C99.9921 151.698 91.515 152.369 93.3444 151.877C90.5159 152.018 90.7065 152.528 88.4824 151.809C88.7251 152.466 84.408 151.66 81.4813 152.202C82.4359 152.034 80.8894 151.937 81.8759 151.866C81.4561 151.746 81.0523 151.839 79.6594 151.775C79.9676 151.921 80.6283 151.972 81.451 151.981C80.5687 151.984 76.9409 152.26 76.5908 151.912C76.0299 152.488 73.0562 152.075 71.3502 152.289C60.6238 151.924 55.2262 151.493 44.8601 152.075C36.8455 151.75 28.3147 151.757 22.7912 151.934C23.0707 151.628 21.8853 151.719 21.8517 151.499C22.2211 151.724 20.2447 152.161 20.0886 151.515C19.0827 151.866 18.7184 151.456 16.5481 151.434C18.1441 152.062 10.6459 151.72 9.07509 151.61C8.56211 151.632 8.73089 151.816 8.68051 151.946C6.64792 151.919 4.94611 151.896 3.47015 151.876C3.10829 151.877 2.72878 151.864 2.41981 151.877C2.11505 151.903 1.82958 152.021 1.59618 152.201C1.12266 152.563 0.880041 153.158 0.885078 153.712C0.879201 154.701 1.65079 155.495 2.45594 155.506C3.35596 155.499 4.29963 155.464 5.28529 155.435C7.26667 155.364 9.51168 155.285 12.5375 155.177C11.0699 155.621 13.8699 155.181 15.6221 155.15C15.293 155.252 15.1821 155.404 15.2418 155.597C18.8998 155.082 24.9992 155.056 29.7923 155.582C30.2298 155.506 30.2121 155.324 31.0844 155.35C30.956 155.75 32.379 155.485 35.064 155.426C40.491 155.305 46.886 155.046 53.108 155.159C58.9346 155.266 64.0963 155.722 67.2187 155.148C66.9517 155.554 70.9304 155.16 70.378 155.675C74.5154 154.928 80.2362 155.535 87.0712 155.198C87.7168 155.242 87.0393 155.295 87.1014 155.42C94.5056 155.311 104.402 155.145 107.378 155.355C109.367 154.884 112.135 155.505 114.38 154.962C114.899 154.976 114.779 155.16 114.867 155.29C117.128 155.073 120.196 154.989 120.152 155.244C121.122 154.878 122.061 155.17 123.189 154.885C122.268 155.296 124.571 154.869 125.437 155.198C125.059 155.135 130.325 154.912 132.455 154.916C135.704 154.921 139.473 155.405 141.264 154.839C148.993 155.373 157.89 154.778 165.505 154.74C165.405 154.92 165.948 154.928 165.991 155.069C167.518 154.709 174.118 155.025 177.002 154.973C177.449 154.965 177.28 154.751 177.413 154.748L177.138 155.969C176.288 155.372 168.366 156.284 162.983 155.648C162.14 155.924 162.302 155.765 160.811 155.889C160.863 155.887 161.26 155.664 161.221 155.663C156.62 155.605 151.737 156.289 147.171 156.118C145.473 156.054 137.342 156.228 133.456 155.793C117.898 156.692 101.952 155.872 88.1155 156.407C87.4959 156.344 87.9921 155.98 87.1744 155.971C86.0972 155.992 87.1324 156.337 87.6614 156.3C82.8364 156.341 76.8217 156.393 70.9229 156.444C66.8199 156.46 60.9018 156.536 58.0884 156.111C56.8063 156.543 51.9637 156.255 52.7865 156.047C51.5573 156.307 46.5988 156.387 44.4025 156.008C42.5798 156.273 39.0041 156.174 38.6918 156.168C38.5616 156.166 37.6557 156.353 36.9446 156.294C36.7826 156.28 36.1109 155.967 36.0185 155.969C34.7659 156.001 36.7163 156.179 35.6232 156.305C32.2069 156.698 27.4877 155.783 23.7315 156.408C21.3958 155.871 19.4824 156.351 15.8026 156.476L15.711 155.812C15.4483 156.276 14.2703 155.859 14.0101 156.27C14.2242 156.433 14.5667 156.222 15.3307 156.259C14.7187 156.733 11.8877 156.323 11.7617 155.957C10.9826 155.988 10.8256 156.15 11.2487 156.236C9.98433 156.137 7.46059 156.058 6.97616 156.442C6.30703 155.981 4.84952 156.793 4.28953 156.132C3.91424 156.281 3.25688 156.397 2.3493 156.437C1.73726 156.408 1.16129 156.138 0.706239 155.631C0.25623 155.134 -0.00739799 154.41 0.000158135 153.709C-0.00236057 152.634 0.620617 151.713 1.28724 151.348C1.94714 150.942 2.63813 151.052 2.82956 151.106C4.06708 150.763 5.14844 150.961 7.18944 150.736C5.93764 150.924 6.70333 151.023 8.11633 151.06C8.08946 150.952 7.56552 150.979 7.21962 150.957C7.5672 150.583 8.19355 150.852 8.98275 150.942C10.5284 150.246 19.1869 150.855 23.0607 150.71C24.3553 150.794 23.5803 150.871 23.5627 151.148C23.9086 151.087 24.2621 151.026 24.8683 151.026C24.624 150.939 24.3838 150.851 24.3838 150.698C28.198 150.564 32.2707 150.902 37.2175 151.03C43.5873 151.195 57.1489 150.226 61.9302 151.149C67.5377 150.849 74.7203 151.28 83.074 150.966C81.6299 151.648 86.2265 150.723 87.0678 151.154C88.558 150.513 96.7505 151.337 102.53 151.352C107.06 151.365 110.751 150.486 112.676 151.375C113.754 151.077 114.666 151.296 116.611 151.119C115.434 151.434 119.534 151.326 120.574 151.085C121.223 151.129 120.546 151.183 120.604 151.307C124.014 151.188 122.947 151.029 125.893 151.261C125.721 151.427 125.323 151.222 124.57 151.273C125.337 151.667 126.685 151.239 127.683 151.467C127.026 151.127 131.593 151.065 132.529 151.426C133.042 151.404 132.873 151.221 132.923 151.09C137.172 151.49 145.723 150.658 151.015 151.155C151.213 151.174 151.797 151.479 151.94 151.479C152.859 151.479 151.546 151.227 151.47 151.262C152.474 150.802 158.949 151.201 162.041 151.17C166.427 151.127 171.897 150.88 175.695 151.052C175.061 151.491 176.872 151.272 177.078 151.483C177.997 151.512 176.932 151.162 176.592 151.155C176.557 151.115 176.709 151.095 176.934 151.09C177.156 151.093 177.447 151.076 177.787 151.155C178.128 151.239 178.357 151.4 178.421 151.484C178.482 151.576 178.385 151.538 178.007 151.46C179.084 151.698 179.703 152.665 179.719 153.709C179.721 154.208 179.59 154.762 179.237 155.251C178.894 155.73 178.311 156.17 177.542 156.203C177.845 156.065 178.081 155.927 177.494 155.983C177.475 155.928 178.165 155.788 178.463 155.484C178.618 155.352 178.698 155.248 178.647 155.285C178.592 155.308 178.415 155.531 177.888 155.691C177.913 155.616 178.201 155.485 178.436 155.285C178.68 155.097 178.871 154.848 178.933 154.876C179.035 154.429 178.862 154.716 178.549 155.009C178.234 155.328 177.673 155.479 177.416 155.435ZM16.9604 151.207C15.7749 151.106 14.701 151.111 13.8917 151.345C14.8337 151.6 18.1441 151.059 16.9604 151.207Z" fill="#BA3652"/>
<path d="M11.252 156.238C11.3838 156.264 11.5651 156.286 11.8102 156.291C11.6835 156.279 11.482 156.26 11.252 156.238Z" fill="#BA3652"/>
<path d="M109.011 102.856H103.411C100.607 102.856 98.334 100.356 98.334 97.2721V81.8408H114.089V97.2721C114.088 100.356 111.814 102.856 109.011 102.856Z" fill="#ED5F70"/>
<path d="M109.011 102.683C109.623 102.601 109.631 102.476 110.017 102.601C110.599 102.368 111.202 102.043 111.631 101.963C111.849 101.709 112.087 101.482 112.255 101.442C112.242 101.13 112.622 101.054 112.526 100.909C112.859 100.826 113.099 100.384 113.222 99.9641C113.358 99.545 113.406 99.1646 113.604 99.0926C113.657 98.3845 113.754 97.6866 113.957 97.0948C113.856 97.081 113.759 96.7717 113.945 96.4818C113.726 96.324 113.744 95.4783 113.911 94.7305C113.817 94.7453 113.697 94.0021 113.838 93.5922C113.862 93.5211 113.893 93.4593 113.935 93.414C113.93 93.2091 113.8 93.451 113.838 93.5922C113.754 93.0965 113.715 92.453 113.911 92.1871C113.762 92.0126 113.76 91.227 113.886 90.9611C113.791 90.9574 113.772 90.854 113.88 90.6112C113.869 90.5087 113.786 90.5429 113.727 90.5327C113.704 89.7425 113.9 89.6455 113.795 88.8626C114.063 89.472 113.759 87.7862 113.983 88.15C113.919 87.5877 113.686 87.6256 114.014 87.1834C113.715 87.2314 114.081 86.3728 113.835 85.7912C113.911 85.9804 113.956 85.673 113.988 85.8697C114.042 85.7866 114 85.7062 114.03 85.4293C113.964 85.4902 113.94 85.6222 113.936 85.7856C113.934 85.6102 113.809 84.8892 113.967 84.8191C113.705 84.7074 113.893 84.1165 113.795 83.7768C113.858 83.0373 113.911 82.4067 113.959 81.8408L114.089 81.983C113.116 81.8925 112.278 81.8676 111.059 82.0568C109.61 81.8944 108.068 81.8981 107.069 81.9858C107.119 81.8334 106.905 81.8777 106.899 81.7679C106.967 81.8805 106.609 82.0993 106.58 81.7753C106.398 81.9507 106.333 81.7467 105.941 81.7347C106.229 82.0485 104.873 81.8777 104.59 81.8224C104.497 81.8334 104.528 81.9248 104.518 81.9904C102.601 81.9008 102.314 81.9664 100.539 82.1409C100.804 81.9184 100.298 82.139 99.9813 82.1538C100.041 82.103 100.061 82.0264 100.05 81.9304C99.6077 82.1021 98.9688 82.1649 98.3349 82.1095L98.5809 81.839C98.5557 82.1852 98.5045 82.5295 98.4248 82.8453C98.4592 82.932 98.5423 82.9283 98.5306 83.1019C98.3484 83.076 98.4684 83.3595 98.4953 83.8931C98.5499 84.9723 98.6682 86.2436 98.6162 87.4806C98.5683 88.6393 98.3601 89.6649 98.6212 90.2862C98.4365 90.2336 98.6153 91.0239 98.3819 90.914C98.722 91.7366 98.4458 92.874 98.5986 94.2329C98.5792 94.3612 98.5541 94.2264 98.4978 94.2394C98.5641 95.7128 98.5734 97.6884 98.6095 98.2276C98.8714 98.5424 98.7413 99.1397 99.135 99.4185C99.1669 99.5072 99.083 99.5275 99.036 99.5699C99.2811 99.9189 99.6161 100.347 99.5221 100.416C99.7504 100.453 99.7454 100.681 99.9746 100.738C99.7362 100.749 100.127 100.927 100.141 101.144C100.106 101.092 100.854 101.63 101.173 101.796C101.629 102.088 102.214 102.513 102.555 102.292C103.136 102.559 103.936 102.498 104.675 102.466C105.423 102.423 106.17 102.343 106.858 102.334C106.84 102.424 106.938 102.427 106.946 102.498C107.222 102.318 108.415 102.476 108.937 102.45C109.018 102.447 108.987 102.34 109.012 102.338L108.962 102.949C108.809 102.651 107.376 103.107 106.402 102.788C106.25 102.927 106.28 102.847 106.009 102.908C106.019 102.907 106.091 102.796 106.084 102.796C105.252 102.767 104.37 103.109 103.544 103.023C103.372 103.002 102.95 103.022 102.432 102.906C101.935 102.785 101.409 102.555 101.145 102.268C99.7723 101.789 98.6909 100.396 98.3316 98.8627C98.1292 98.1011 98.1334 97.2924 98.1368 96.576C98.1309 95.8439 98.1091 95.1293 98.0487 94.4415C98.0772 94.3178 98.2426 94.4166 98.2468 94.2542C98.2367 94.04 98.0797 94.2458 98.0973 94.3511C98.0789 93.3946 98.0545 92.1927 98.0319 91.023C98.0243 90.2069 97.9899 89.0307 98.183 88.4712C97.9865 88.2164 98.1175 87.2535 98.2123 87.4169C98.094 87.1723 98.0578 86.1863 98.23 85.7496C98.1091 85.3868 98.1544 84.676 98.1569 84.6141C98.1578 84.5882 98.073 84.4082 98.0999 84.267C98.1057 84.2347 98.2485 84.1008 98.2476 84.0833C98.2334 83.834 98.1519 84.2217 98.0948 84.0048C97.9311 83.3844 98.2644 82.548 98.1066 81.839L98.0671 81.6599L98.3349 81.5888C98.3962 81.5721 98.4567 81.5509 98.5154 81.5242C98.9377 81.7928 99.2837 81.5518 99.9494 81.49L99.9662 81.8224C100.014 81.5906 100.226 81.7983 100.273 81.5934C100.235 81.5121 100.173 81.6174 100.035 81.5989C100.146 81.3626 100.658 81.5676 100.681 81.7503C100.822 81.7346 100.85 81.6543 100.774 81.6109C101.002 81.6608 101.459 81.7005 101.546 81.5075C101.667 81.7374 101.931 81.3321 102.032 81.6626C102.262 81.3949 103.246 81.442 103.463 81.5731C103.686 81.4014 103.882 81.5002 104.251 81.3885C104.025 81.4826 104.163 81.5315 104.419 81.5509C104.414 81.4974 104.319 81.5103 104.257 81.4992C104.32 81.3127 104.434 81.4466 104.576 81.4918C104.856 81.1438 106.422 81.4485 107.122 81.3755C107.356 81.418 107.216 81.4558 107.213 81.5943C107.276 81.5639 107.339 81.5334 107.448 81.5334C107.405 81.49 107.361 81.4457 107.361 81.3691C108.051 81.3017 108.788 81.4715 109.682 81.5352C110.81 81.6165 113.187 81.153 114.092 81.5676L114.391 81.7051L114.34 81.8399L114.315 81.9036C114.452 83.0188 114.256 84.4461 114.398 86.1078C114.089 85.8207 114.508 86.7347 114.313 86.9018C114.604 87.1981 114.23 88.8267 114.223 89.976C114.217 90.8771 114.617 91.611 114.212 91.9932C114.347 92.2074 114.248 92.3893 114.328 92.7752C114.184 92.5416 114.234 93.3568 114.344 93.5636C114.324 93.6928 114.299 93.5581 114.243 93.5701C114.298 94.2477 114.369 94.0353 114.264 94.6216C114.189 94.5874 114.282 94.508 114.259 94.3585C114.08 94.5108 114.274 94.7795 114.17 94.9779C114.325 94.8478 114.353 95.7553 114.189 95.9417C114.199 96.0433 114.283 96.0101 114.342 96.0202C114.241 96.4486 114.322 97.0653 114.322 97.754C114.318 98.4565 114.157 99.1969 113.849 99.6475C113.825 99.6816 113.652 99.7241 113.641 99.749C113.567 99.9171 113.776 99.7324 113.768 99.7093C113.828 99.8534 113.673 100.212 113.434 100.573C113.184 100.928 112.859 101.275 112.648 101.494C112.08 102.145 111.182 102.823 110.447 102.93C110.508 102.687 110.206 102.885 110.149 102.792C109.986 102.824 110.203 102.941 110.27 102.927C110.314 103.013 109.772 103.043 110.004 102.887C109.683 103.074 109.515 103.081 109.034 103.071C109.082 103.017 109.127 102.965 109.028 102.96C109.022 102.878 109.496 102.843 109.102 102.843C109.116 102.772 109.33 102.752 109.34 102.824C109.474 102.689 109.117 102.7 109.011 102.683ZM106.014 81.6229C105.8 81.5722 105.605 81.5749 105.459 81.6913C105.629 81.8187 106.228 81.5491 106.014 81.6229Z" fill="#ED5F70"/>
<path d="M100.77 81.611C100.747 81.5981 100.714 81.587 100.67 81.5842C100.697 81.5916 100.732 81.6018 100.77 81.611Z" fill="#ED5F70"/>
<path d="M73.7993 13.5344V13.8261C73.7993 24.8104 81.897 33.7137 91.8854 33.7137H102.815V96.362H110.358V33.7137V25.4317V13.5344H73.7993Z" fill="#EF7086"/>
<path d="M73.7993 13.3282C75.8781 13.2608 76.0108 13.1445 77.2298 13.3651C79.2968 13.2359 81.6846 13.2183 83.0372 13.4473C84.0656 13.3263 85.1596 13.319 85.6684 13.4242C86.277 13.1306 87.3911 13.4094 87.4835 13.2091C89.4313 13.7104 93.4579 12.8389 94.3445 13.283C96.4971 13.0476 98.9378 13.0919 100.679 13.3605C100.721 13.2276 101.65 13.0992 102.521 13.3448C102.995 13.0559 105.537 13.0798 107.784 13.2996C107.749 13.2017 109.16 13.0799 110.358 13.1297L110.74 13.1454L110.727 13.5359C110.715 13.872 110.694 14.1914 110.66 14.4665L110.659 14.4582L110.66 14.4674C110.63 14.7019 110.593 14.9069 110.543 15.0564C110.549 15.7322 110.705 14.9336 110.66 14.4674V14.4665C110.76 16.1043 110.807 18.2313 110.572 19.1084C110.75 19.6844 110.752 22.2805 110.601 23.1594C110.715 23.1704 110.738 23.5129 110.609 24.3161C110.621 24.654 110.721 24.5423 110.792 24.5765C110.82 27.1873 110.584 27.5076 110.711 30.0944C110.389 28.0818 110.754 33.6515 110.486 32.4495C110.562 34.3079 110.841 34.1823 110.448 35.6438C110.807 35.485 110.368 38.3201 110.662 40.2432C110.571 39.6163 110.518 40.6318 110.479 39.9837C110.414 40.2598 110.464 40.5247 110.429 41.4405C110.509 41.2374 110.537 40.8044 110.541 40.2634C110.543 40.8432 110.693 43.2269 110.504 43.4559C110.818 43.8242 110.593 45.7777 110.71 46.8985C110.51 53.9453 110.276 57.4913 110.593 64.3017C110.416 69.5667 110.42 75.1714 110.516 78.8005C110.35 78.6168 110.399 79.3951 110.279 79.4182C110.402 79.1754 110.64 80.4734 110.287 80.5768C110.479 81.2378 110.256 81.4769 110.243 82.9023C110.586 81.8536 110.399 86.7797 110.339 87.8119C110.352 88.1488 110.452 88.0381 110.523 88.0713C110.468 92.0531 110.467 94.1007 110.512 96.3644L110.515 96.5278L110.358 96.5334C108.877 96.5841 107.265 96.6395 104.752 96.7263C105.628 96.4595 103.956 96.7244 102.909 96.742C103.105 96.6811 103.172 96.5897 103.136 96.4743C103.036 96.4872 102.933 96.5001 102.817 96.514L102.696 96.5287L102.68 96.3635C102.435 93.9511 102.435 90.1623 102.708 87.1564C102.667 86.8693 102.567 86.8804 102.582 86.308C102.8 86.392 102.656 85.4577 102.623 83.6935C102.557 80.1281 102.416 75.9266 102.477 71.8387C102.535 68.0111 102.785 64.6202 102.471 62.5689C102.693 62.7443 102.478 60.1307 102.759 60.4935C102.351 57.7756 102.682 54.0173 102.498 49.5268C102.522 49.1031 102.551 49.5481 102.619 49.5065C102.56 44.6422 102.469 38.141 102.584 36.1857C102.443 35.4693 102.482 34.5987 102.496 33.7161L102.817 34.0688C102.155 34.0559 101.485 34.0605 100.879 34.2073C100.569 34.1989 100.64 34.0882 100.588 34.0106C99.2375 34.1408 97.4039 34.1916 97.4307 34.0383C96.8514 34.258 96.2898 34.0826 95.6156 34.2534C96.1655 34.0069 94.7903 34.2627 94.2731 34.0651C94.4973 34.1011 91.3665 34.2673 90.0358 34.1316C88.0267 33.9201 85.9219 32.8779 84.7985 32.7339C82.6635 31.5928 80.5075 30.0722 78.705 28.1068C76.894 26.1607 75.4391 23.8065 74.5651 21.4099C74.6776 21.433 74.5667 21.0886 74.6297 21.0314C74.5063 20.8089 74.3258 20.3796 74.1428 19.822C74.0009 19.2505 73.8279 18.5627 73.686 17.8353C73.6004 17.0939 73.4711 16.3101 73.435 15.6187C73.4064 14.9207 73.3804 14.2874 73.3611 13.8073C73.3569 13.5138 73.2402 13.6255 73.2385 13.5378L73.9051 13.7178C73.8195 13.8507 73.817 14.2902 73.8388 14.9087C73.8556 15.2189 73.8615 15.578 73.9068 15.9695C73.969 16.3581 74.0369 16.7819 74.1091 17.2278C74.4315 19.0031 75.0369 21.0757 75.6489 22.7227C76.0082 23.1427 75.8571 23.1104 76.3852 23.9062C76.3684 23.8776 76.1401 23.7225 76.1518 23.7437C77.5195 26.4136 79.804 28.524 81.9877 30.2237C82.2026 30.3695 82.6173 30.6511 83.1522 31.013C83.7004 31.3463 84.3947 31.7128 85.1335 32.0673C86.628 32.7495 88.355 33.2398 89.4926 33.514C91.7065 33.6838 93.9423 33.477 96.1731 33.4733C98.403 33.4373 100.624 33.4346 102.818 33.441L103.07 33.4419L103.069 33.718C103.058 38.983 103.008 44.1003 103.16 48.8409C103.126 49.248 102.927 48.9221 102.922 49.4594C102.934 50.1666 103.123 49.4871 103.102 49.14C103.125 52.3094 103.153 56.2616 103.181 60.1362C103.19 62.832 103.231 66.7205 103 68.5678C103.236 69.4098 103.078 72.5911 102.964 72.051C103.106 72.8588 103.15 76.1168 102.943 77.5588C103.088 78.7562 103.034 81.1048 103.031 81.3107C103.029 81.3957 103.131 81.9921 103.1 82.4583C103.092 82.5644 102.922 83.0057 102.922 83.0667C102.94 83.8892 103.037 82.6087 103.105 83.3261C103.32 85.5704 102.821 88.6705 103.162 91.1382C102.869 92.6725 103.131 93.9299 103.199 96.3469L103.094 96.3644L102.817 96.0616L102.856 96.3432C103.013 96.0653 103.717 96.3145 103.872 96.069C103.743 95.9711 103.539 96.0976 103.083 96.0754C103.449 95.7911 105.14 96.0376 105.215 96.2564C105.681 96.237 105.774 96.141 105.522 96.0893C106.277 96.1484 107.785 96.1964 108.074 95.9656C108.474 96.2416 109.345 95.7551 109.679 96.1512C109.825 96.0893 110.063 96.0413 110.359 96.0053L110.034 96.3635C109.897 95.0054 109.953 92.5507 110.068 91.9118C109.881 91.0985 109.989 90.3885 109.866 89.0481C109.969 89.8706 110.023 89.3675 110.044 88.4387C109.985 88.4563 109.999 88.8006 109.987 89.0277C109.783 88.7988 109.93 88.388 109.979 87.8691C109.599 86.8536 109.931 81.1648 109.852 78.6205C109.898 77.7693 109.94 78.2789 110.091 78.2909C110.058 78.0638 110.025 77.8312 110.025 77.4333C109.977 77.5939 109.929 77.7518 109.845 77.7518C109.772 75.2462 109.957 72.5699 110.027 69.3202C110.117 65.1353 109.589 56.2256 110.091 53.0848C109.928 49.4003 110.163 44.6819 109.992 39.1935C110.363 40.1416 109.859 37.1218 110.094 36.5697C109.744 35.5912 110.194 30.2089 110.202 26.4118C110.209 23.4354 109.73 21.0111 110.215 19.7472C110.052 19.0391 110.172 18.439 110.075 17.1623C110.248 17.935 110.188 15.242 110.057 14.5588C110.081 14.1323 110.11 14.5773 110.178 14.5385C110.16 14.0991 110.148 13.7723 110.138 13.5368L110.359 13.7796C109.392 13.836 109.525 13.8757 108.111 13.764C108.213 13.6643 108.452 13.787 108.902 13.7566C108.443 13.5202 107.637 13.7769 107.041 13.6393C107.433 13.8433 104.706 13.8812 104.146 13.6642C103.84 13.6781 103.941 13.787 103.911 13.8655C101.373 13.6255 96.2637 14.1249 93.1019 13.8267C92.9844 13.8156 92.6351 13.6319 92.5486 13.6319C92.0004 13.6319 92.7845 13.7833 92.829 13.763C92.2287 14.0381 88.3609 13.8 86.5138 13.8184C83.8935 13.8443 80.625 13.992 78.3557 13.8895C78.7352 13.6264 77.653 13.7575 77.5296 13.631C76.9931 13.6153 77.6101 13.8221 77.82 13.8277C77.9032 13.9255 76.2064 13.8295 77.0124 13.7012C75.8983 13.8526 75.3987 13.8267 73.864 13.7953C74.016 13.7344 74.1662 13.6735 73.8447 13.6624C73.8212 13.5636 75.3954 13.5525 74.0898 13.5276C74.1377 13.4427 74.8639 13.4344 74.879 13.5212C75.3668 13.3661 74.1654 13.3559 73.7993 13.3282ZM110.121 82.63C110.065 83.4092 110.068 84.1145 110.196 84.6462C110.335 84.0268 110.039 81.8517 110.121 82.63Z" fill="#EF7086"/>
<path d="M105.52 96.0865C105.441 96.0708 105.333 96.0579 105.186 96.0542C105.264 96.0625 105.384 96.0736 105.52 96.0865Z" fill="#EF7086"/>
<path d="M166.11 67.0023C169.369 65.9065 172.037 64.0977 174.189 62.0935C170.977 56.0237 169.128 48.9735 169.128 41.4448C169.128 18.7332 185.871 0.321777 206.525 0.321777C227.18 0.321777 243.923 18.7332 243.923 41.4448C243.923 64.1563 227.18 82.5678 206.525 82.5678C197.747 82.5678 189.681 79.2334 183.301 73.665C176.192 75.8693 170.121 74.4895 165.825 72.5506C163.481 71.4925 163.687 67.8168 166.11 67.0023Z" fill="white"/>
<path d="M166.063 66.8324C165.438 67.0297 165.022 67.3805 164.735 67.697C164.666 67.7804 164.6 67.8591 164.537 67.9334C164.485 68.0173 164.435 68.0964 164.389 68.1722C164.287 68.3199 164.233 68.4763 164.171 68.6178C163.966 69.1922 163.894 69.7126 164.108 70.5157C164.205 71.2154 164.573 71.8898 165.124 72.3479L165.335 72.518L165.545 72.6391C165.621 72.6815 165.668 72.7139 165.769 72.7645L165.989 72.8617C166.281 72.9889 166.568 73.121 166.857 73.2268C168.003 73.6757 169.087 73.9674 169.887 74.0666C171.048 74.4789 172.337 74.7153 172.946 74.6843C173.637 75.0484 174.98 74.8816 175.08 75.0489C176.243 74.8907 178.005 74.9131 179.62 74.7448C181.236 74.6032 182.681 74.2591 183.143 73.9336C183.215 73.9193 183.286 73.9045 183.359 73.8897L183.17 73.8478C185.021 75.7038 187.445 77.3219 189.322 78.1193C189.311 78.2547 190.261 78.8976 191.28 79.1731C191.494 79.399 192.287 79.8733 193.378 80.3103C194.461 80.7708 195.839 81.1854 197.148 81.4662C197.11 81.5091 197.727 81.7402 198.54 81.9761C198.95 82.0786 199.408 82.1825 199.855 82.2707C200.303 82.3551 200.744 82.3941 201.11 82.4189L201.101 82.417C201.104 82.4175 201.107 82.4184 201.111 82.4189C201.366 82.4313 201.588 82.4394 201.754 82.4089C202.478 82.4966 201.604 82.5581 201.111 82.4189H201.11C202.842 82.8045 205.17 82.9928 206.102 82.7597C206.405 82.8679 207.276 82.8731 208.169 82.855C209.066 82.8145 210 82.6849 210.465 82.5705C210.486 82.6763 210.858 82.6463 211.704 82.4056C212.067 82.3665 211.96 82.4766 212.005 82.5381C213.403 82.3045 214.177 82.101 214.936 81.857C215.317 81.744 215.697 81.6315 216.15 81.4976C216.6 81.3513 217.128 81.2016 217.806 81.0124C216.721 81.1954 217.654 80.9385 218.664 80.5606C218.918 80.47 219.179 80.3771 219.417 80.2922C219.652 80.1974 219.863 80.1035 220.023 80.0306C220.343 79.8833 220.457 79.8056 220.135 79.8771C220.605 79.6902 220.959 79.5773 221.239 79.4762C221.517 79.37 221.728 79.2961 221.922 79.2151C222.305 79.044 222.641 78.8871 223.26 78.3157C223.249 78.503 223.897 78.1484 224.76 77.5883C225.19 77.3047 225.679 76.9821 226.172 76.657C226.658 76.3196 227.161 76.0017 227.63 75.7462C227.021 76.0822 227.912 75.3835 227.308 75.7705C227.53 75.5494 227.778 75.393 228.565 74.7439C228.428 74.9436 228.062 75.2629 227.589 75.6375C227.842 75.4369 228.517 74.966 229.129 74.4865C229.727 73.9865 230.277 73.4999 230.322 73.3464C230.563 73.3264 231.046 72.8846 231.597 72.3603C232.145 71.8322 232.714 71.1654 233.192 70.7507C235.791 67.6841 237.412 65.0727 238.808 62.3884C239.149 61.7111 239.506 61.0472 239.817 60.3403C239.98 59.991 240.144 59.6387 240.31 59.2817C240.463 58.9176 240.618 58.5487 240.776 58.1731C241.109 57.4305 241.382 56.6274 241.709 55.7991C241.865 55.382 242 54.9435 242.155 54.4993C242.31 54.0546 242.465 53.5956 242.599 53.1123C243.327 50.0929 243.78 46.9077 243.931 43.9388C244.09 40.9799 243.952 38.2384 243.738 36.1079C243.621 36.3433 243.557 35.4253 243.452 35.4158C243.609 35.6827 243.574 34.1299 243.251 34.0708C243.268 33.6719 243.226 33.4092 243.127 33.046C243.022 32.6843 242.872 32.2191 242.696 31.4036C242.831 31.6843 242.847 31.5456 242.792 31.1581C242.72 30.7759 242.565 30.1486 242.379 29.4518C242.186 28.7574 241.92 28.0077 241.706 27.3523C241.462 26.7084 241.242 26.1679 241.13 25.8895C241.007 25.5154 241.13 25.6007 241.174 25.5383C240.41 23.6561 239.742 22.2067 239.095 21.008C238.937 20.7063 238.786 20.417 238.639 20.1367C238.482 19.8636 238.33 19.5995 238.183 19.3422C237.885 18.8288 237.613 18.3341 237.307 17.8694C236.726 16.9176 236.114 16.0115 235.375 14.972C234.615 13.952 233.739 12.7829 232.497 11.4388C233.1 12.4011 231.835 10.7001 230.878 9.81783C231.024 10.0261 231.036 10.1424 230.945 10.1872C230.056 9.14673 228.716 7.92896 227.19 6.81462C225.672 5.68312 223.926 4.74133 222.346 4.06834C222.08 3.89294 222.126 3.81287 221.558 3.54453C221.566 3.77283 220.705 3.18086 218.923 2.45115C215.338 0.959323 210.81 -0.0697108 206.39 0.00368917C204.319 0.0389593 202.383 0.329212 200.701 0.624719C199.023 0.963597 197.593 1.29532 196.492 1.49026C196.608 1.56318 195.976 1.76194 195.371 1.96022C194.773 2.18852 194.204 2.41874 194.428 2.47498C192.985 2.79622 191.35 3.50924 189.58 4.4987C187.809 5.48865 185.91 6.76983 183.925 8.30217C183.577 8.63104 183.971 8.32648 183.971 8.40798C181.856 10.1105 179.591 12.4064 177.854 14.6441C176.097 16.8671 174.887 19.0104 174.366 20.0152C173.459 21.2339 172.762 23.2714 171.917 24.7728C171.771 25.146 171.886 25.0984 171.916 25.1865C171.733 25.5793 171.562 26.0216 171.386 26.4534C171.211 26.8852 171.047 27.3137 170.932 27.7022C170.687 28.4729 170.534 29.0395 170.596 29.0424C170.24 29.7144 170.18 30.4608 169.85 31.2783C170.185 30.6272 169.621 32.3316 169.634 33.0265C169.637 32.8768 169.456 33.8091 169.233 34.9859C169.138 35.5769 169.056 36.2332 168.973 36.8428C168.889 37.4519 168.866 38.0287 168.83 38.4452C168.811 38.7636 168.786 39.0906 168.778 39.4161C168.778 39.7397 168.778 40.0657 168.779 40.3903C168.78 40.7154 168.782 41.039 168.783 41.3574C168.795 41.6815 168.806 42.0008 168.818 42.3106C168.86 43.5389 168.928 44.6194 168.854 45.3315C169.037 46.7499 169.252 48.2103 169.533 49.6825C169.818 51.1534 170.16 52.6367 170.567 54.1004C171.371 57.0316 172.487 59.8623 173.771 62.3588L173.877 61.6868C173.641 61.8989 173.415 62.1029 173.185 62.2983C173.293 62.325 173 62.5824 173.014 62.6586C172.544 62.9413 171.407 63.8554 170.074 64.6685C168.748 65.4964 167.23 66.1952 166.269 66.5064C165.968 66.6084 166.051 66.463 165.961 66.4935L166.321 67.0288C166.546 66.8024 167.84 66.3887 169.417 65.5708C170.999 64.7696 172.829 63.4946 174.185 62.0862L174.183 62.0952C174.024 61.8159 173.866 61.5467 173.709 61.2883C173.53 60.6516 173.53 60.7941 173.094 59.7422C173.11 59.7789 173.145 60.103 173.133 60.0772C171.622 56.8982 170.779 53.1948 170.063 49.776C169.933 49.1378 169.605 47.2728 169.434 45.1728C169.389 44.648 169.343 44.1104 169.32 43.5737C169.283 43.0375 169.264 42.5037 169.248 41.988C169.21 40.9627 169.224 39.9966 169.189 39.245C169.686 33.2434 171.23 27.3118 173.762 22.1018C176.287 16.8933 179.8 12.4607 183.691 9.29879C184.013 8.9785 183.636 9.0662 184.085 8.67203C184.698 8.1854 184.207 8.79737 183.91 9.03901C185.257 7.92276 186.826 6.73885 188.583 5.70935C190.333 4.66935 192.239 3.73753 194.183 2.9859C195.534 2.45685 197.223 1.94448 198.821 1.54983C199.621 1.36347 200.398 1.1962 201.096 1.05131C201.796 0.93072 202.414 0.790581 202.901 0.688107C203.13 0.724807 203.512 0.725777 203.946 0.704805C204.164 0.690507 204.394 0.675723 204.626 0.660471C204.858 0.650939 205.091 0.641891 205.313 0.632835C206.202 0.578023 206.899 0.512715 206.613 0.460763C206.829 0.500323 207.208 0.538915 207.681 0.571802C207.918 0.585625 208.178 0.600903 208.452 0.616631C208.723 0.642369 209.007 0.66951 209.298 0.697154C209.878 0.743387 210.481 0.783924 211.033 0.852557C211.586 0.914995 212.095 0.929275 212.481 0.965022C213.727 1.31057 216.175 1.8792 216.379 1.98215C216.467 2.00837 217.054 2.29195 217.54 2.41205C217.649 2.44113 218.14 2.45639 218.202 2.47975C219.03 2.80528 217.707 2.41016 218.415 2.74188C218.691 2.87153 218.982 2.99545 219.287 3.11652C219.586 3.25378 219.898 3.38866 220.219 3.52163C220.866 3.77377 221.529 4.07928 222.201 4.38575C222.878 4.67982 223.527 5.06209 224.169 5.41527C224.793 5.8061 225.389 6.21313 225.912 6.65543C226.662 7.02768 227.31 7.44233 227.985 8.0362C228.676 8.60386 229.409 9.32309 230.379 10.2487L230.628 10.0328C230.626 10.3478 231.38 10.7811 231.39 11.0709C231.225 11.0256 231.11 10.772 230.694 10.4007C230.78 10.6533 231.241 11.0747 231.674 11.4655C232.107 11.8559 232.545 12.1771 232.637 12.1433C233.026 12.5675 233.036 12.7257 232.806 12.5188C233.129 12.852 233.602 13.3658 234.008 13.8453C234.4 14.3391 234.712 14.8085 234.756 15.0116C235.243 15.2375 235.565 16.3914 236.053 16.5172C236.144 16.7489 236.356 17.1297 236.612 17.5963C236.869 18.0625 237.216 18.5796 237.517 19.1286C238.161 20.1972 238.76 21.2892 239.025 21.6581C239.179 22.1085 239.329 22.5236 239.542 22.9902C239.646 23.2247 239.757 23.4769 239.881 23.7586C239.994 24.046 240.108 24.3682 240.231 24.7361C239.952 23.8215 240.213 24.3334 240.637 25.3171C240.583 25.32 240.444 24.9482 240.334 24.7109C240.267 25.0369 240.585 25.4043 240.818 25.9553C240.838 26.267 241.022 26.8719 241.265 27.6612C241.486 28.459 241.808 29.427 242.07 30.4756C242.626 32.5594 243.093 34.9135 243.193 36.3958C243.346 37.3743 243.314 36.7823 243.442 36.7513C243.444 37.0192 243.452 37.2913 243.478 37.7565C243.424 37.5735 243.37 37.3943 243.299 37.4019C243.341 38.1311 243.385 38.8709 243.429 39.6315C243.442 40.3903 243.512 41.1796 243.501 41.9784C243.502 42.7977 243.518 43.6476 243.464 44.5093C243.44 44.943 243.436 45.3863 243.394 45.8391C243.35 46.2919 243.306 46.7542 243.26 47.2265C243.212 47.8371 243.072 48.521 242.955 49.2708C242.832 50.0195 242.628 50.8141 242.447 51.651C242.003 53.303 241.482 55.0908 240.808 56.7704C239.532 60.1678 237.812 63.1352 237.034 64.7763C235.859 66.5045 234.471 68.4381 232.723 70.3708C230.979 72.3012 228.872 74.2296 226.368 75.8835C226.879 75.7305 226.401 76.0365 225.742 76.4363C225.064 76.8024 224.223 77.2847 224.003 77.5188C223.735 77.576 223.229 77.8233 222.562 78.1884C221.877 78.5116 221.044 78.9915 220.085 79.4172C218.189 80.3204 215.857 81.1816 213.865 81.6201C210.725 82.3022 208.125 81.9518 206.79 82.4237C206.419 82.3651 206.064 82.3269 205.639 82.3203C205.425 82.3136 205.193 82.3064 204.928 82.2983C204.665 82.2783 204.372 82.245 204.035 82.1987C204.441 82.3079 203.93 82.3022 203.226 82.2373C202.524 82.1396 201.63 82.0062 201.281 81.8684C200.829 81.816 201.294 81.9218 201.246 81.9781C200.065 81.7617 199.672 81.6258 199.311 81.5348C198.95 81.4442 198.625 81.3947 197.61 81.1783C197.709 81.2927 198.003 81.2617 198.511 81.4228C197.947 81.4757 197.067 81.0424 196.371 80.9276C196.616 80.9047 195.963 80.6726 195.183 80.3823C194.793 80.2346 194.365 80.093 193.996 79.971C193.629 79.8399 193.317 79.7446 193.147 79.7241C192.815 79.5725 192.957 79.5311 192.946 79.4548C191.729 79.0177 190.047 78.176 188.348 77.0717C186.643 75.9764 184.93 74.6266 183.484 73.4131L183.366 73.314L183.223 73.3555C182.651 73.5218 182.119 73.7201 181.619 73.8631C181.487 73.9031 181.114 74.1481 181.015 74.171C180.383 74.3135 181.264 73.9813 181.318 73.988C180.952 73.9546 179.674 74.2272 178.194 74.3883C176.716 74.5546 175.041 74.5704 173.965 74.456C172.438 74.3135 170.738 73.9717 169.139 73.4551C168.336 73.2106 167.561 72.9103 166.83 72.6215C166.649 72.5447 166.47 72.4694 166.294 72.3951C166.206 72.3579 166.118 72.3212 166.032 72.2845L165.967 72.2573C165.967 72.2573 165.923 72.2378 165.956 72.254L165.925 72.2368L165.801 72.1696C165.718 72.1253 165.637 72.0815 165.556 72.0381L165.373 71.8946C165.246 71.815 165.144 71.682 165.033 71.5729C165.065 71.6887 165.046 71.7188 164.992 71.6906C164.965 71.6768 164.93 71.6492 164.888 71.6125C164.853 71.5696 164.815 71.5162 164.774 71.4585C164.733 71.3999 164.69 71.3379 164.648 71.2764C164.614 71.2088 164.581 71.1416 164.551 71.0801C164.483 70.9604 164.435 70.8603 164.405 70.8308C164.307 70.5086 164.351 70.5258 164.427 70.6468C164.465 70.7074 164.51 70.7927 164.55 70.8765C164.603 70.9547 164.65 71.0319 164.676 71.0872C164.702 71.0996 164.669 70.9995 164.607 70.8584C164.573 70.7054 164.486 70.5148 164.463 70.3308C164.442 70.2407 164.424 70.1569 164.408 70.0882C164.4 70.0191 164.39 69.9662 164.38 69.9395C164.365 69.8861 164.325 69.9405 164.326 70.1902C164.318 69.5001 164.468 69.0211 164.696 68.544C164.938 68.0807 165.311 67.5769 166.103 67.2452C165.934 67.2628 165.752 67.2847 166.091 67.1279C166.095 67.0869 165.658 67.2194 165.432 67.381C165.311 67.443 165.245 67.5054 165.274 67.4706C165.303 67.4372 165.443 67.32 165.788 67.1336C165.744 67.1003 165.532 67.2037 165.336 67.3352C165.145 67.473 164.993 67.6584 165.007 67.687C164.767 67.8738 164.871 67.6646 165.139 67.4077C165.262 67.2656 165.455 67.1665 165.616 67.0454C165.794 66.9597 165.958 66.882 166.063 66.8324ZM242.658 31.7401C242.431 30.8607 242.195 30.0771 242.155 29.4385C242.303 29.7688 242.475 30.5705 242.589 31.1729C242.679 31.7825 242.716 32.1934 242.658 31.7401Z" fill="white"/>
<path d="M232.806 12.5198C232.73 12.4593 232.631 12.3711 232.505 12.2424C232.573 12.3053 232.682 12.4059 232.806 12.5198Z" fill="white"/>
<path d="M196.31 23.8761C201.345 24.0081 205.621 27.3588 207.554 32.0955C209.691 27.4655 214.108 24.3437 219.143 24.4757C226.127 24.6592 231.654 31.0335 231.487 38.7134C231.303 47.1629 215.825 62.7466 209.425 68.8369C207.862 70.3239 205.539 70.3073 203.996 68.7949C197.804 62.727 183.148 47.3026 183.362 37.4498C183.529 29.77 189.326 23.6931 196.31 23.8761Z" fill="#D1465D"/>
<path d="M196.314 23.6986C195.604 23.6938 195.221 23.6529 194.916 23.6714C194.611 23.7053 194.381 23.7606 193.981 23.9131C193.625 23.9188 193.269 24.0275 192.907 24.0933C192.542 24.1557 192.194 24.2853 191.863 24.415C191.188 24.6399 190.638 25.0274 190.256 25.3091C189.602 25.5884 188.942 25.9978 188.722 26.3138C188.488 26.3439 188.241 26.5259 188.045 26.698C187.859 26.8839 187.713 27.0455 187.638 27.0026C187.447 27.3257 187.145 27.6431 186.841 28.0144C186.683 28.1936 186.513 28.3728 186.339 28.5511C186.178 28.7427 186.016 28.9362 185.857 29.1254C185.525 29.492 185.255 29.8847 185.051 30.2222C184.948 30.3899 184.862 30.5443 184.802 30.6797C184.747 30.8193 184.724 30.9442 184.727 31.0405C184.525 31.3808 184.299 31.7297 184.137 32.1153C183.981 32.5028 183.823 32.8955 183.703 33.2906C183.605 33.6943 183.522 34.0923 183.456 34.4698C183.402 34.8521 183.4 35.2253 183.396 35.5541C183.342 35.5622 183.262 35.7376 183.206 35.9979C183.173 36.2538 183.175 36.5884 183.248 36.9182C183.186 37.0083 183.133 37.1661 183.088 37.4463C183.066 37.7061 183.06 38.0392 183.069 38.4143C183.135 39.1583 183.305 40.0601 183.607 40.8451C183.493 40.8375 183.812 42.5162 184.307 43.2973L184.305 43.2921C184.305 43.2921 184.306 43.2959 184.307 43.2983C184.386 43.4356 184.46 43.5528 184.541 43.6248C184.715 44.0428 184.374 43.6153 184.307 43.2983L184.306 43.2978C184.618 44.3673 185.192 45.6909 185.641 46.0961C185.673 46.5231 186.491 48.0536 186.91 48.4639C186.831 48.5278 186.931 48.737 187.293 49.1264C187.403 49.3218 187.293 49.3118 187.254 49.3685C187.699 50.1097 187.996 50.4901 188.29 50.8671C188.579 51.2493 188.866 51.6273 189.305 52.3622C189.044 51.7235 189.359 52.2169 189.726 52.7531C190.09 53.2916 190.492 53.8841 190.351 53.4866C191.022 54.5042 190.785 54.6148 191.625 55.1305C191.325 55.2692 192.737 56.4645 193.343 57.6108C193.145 57.2367 193.594 57.7156 193.354 57.3644C193.51 57.4607 193.582 57.6303 193.985 58.0641C193.849 58.0145 193.652 57.8158 193.428 57.5446C193.66 57.841 194.558 59.1246 194.776 59.1141C194.732 59.5006 195.698 60.3176 196.104 60.9381C197.674 62.5868 198.903 63.764 200.091 64.9584C201.282 66.1505 202.426 67.3563 203.904 69.0006C204.57 69.5764 205.387 69.9525 206.221 70.0316C207.053 70.1236 207.887 69.9406 208.59 69.5497C209.311 69.1584 209.818 68.5507 210.352 68.0798C210.877 67.5937 211.362 67.1452 211.788 66.7496C211.609 66.7148 211.993 66.3988 211.935 66.3044C211.895 66.5012 212.625 66.0823 212.467 65.7873C212.879 65.6223 212.86 65.3583 213.497 64.6996C213.225 65.4212 215.338 63.0314 215.756 62.5048C215.913 62.3561 215.923 62.4762 215.98 62.5095C217.5 60.8518 218.366 59.8905 219.224 58.9825C220.076 58.0669 220.925 57.2095 222.332 55.6681C221.776 55.9927 222.696 55.2329 223.181 54.6624C223.057 54.7368 222.974 54.7206 222.923 54.6343C224.095 53.6134 225.721 51.5467 226.699 49.685C226.834 49.554 226.901 49.6202 227.103 49.3009C226.917 49.2184 227.373 48.8052 228.018 47.8419C228.674 46.8725 229.366 45.7915 229.989 44.6047C230.611 43.4203 231.177 42.1244 231.488 40.7431C231.574 40.4285 231.606 40.0854 231.655 39.7637C231.709 39.4357 231.691 39.1402 231.711 38.8366C231.714 38.5063 231.68 38.2266 231.668 37.9325C231.643 37.6446 231.651 37.3629 231.605 37.0955C231.519 36.5617 231.492 36.0574 231.408 35.6108C231.328 35.1638 231.291 34.7529 231.268 34.3916C231.116 34.5685 230.782 32.7974 230.609 33.14C230.436 32.224 230.016 31.1845 229.324 30.1726C229.006 29.6426 228.578 29.1607 228.163 28.6245C227.701 28.136 227.236 27.6007 226.689 27.1103C226.468 26.9478 226.672 27.1594 226.616 27.1923C225.438 26.148 223.846 25.22 222.352 24.7572C222.165 24.6976 221.983 24.6395 221.804 24.5823C221.624 24.5308 221.441 24.505 221.267 24.4674C220.918 24.4064 220.586 24.3187 220.292 24.3006C219.698 24.2682 219.244 24.2138 218.914 24.2586C218.083 23.9893 216.977 24.4469 216.028 24.3907C215.819 24.4517 215.887 24.5322 215.866 24.6061C215.399 24.6533 214.865 24.8134 214.453 24.9545C214.048 25.1194 213.764 25.2657 213.796 25.3225C213.364 25.3353 213.061 25.6366 212.593 25.7624C213.024 25.75 212.076 26.0474 211.867 26.4239C211.931 26.3739 211.469 26.6108 210.954 27.0245C210.687 27.2165 210.412 27.4563 210.162 27.6894C209.903 27.9119 209.691 28.1507 209.535 28.3233C209.053 28.8471 208.639 29.5158 208.276 30.1073C207.921 30.7083 207.619 31.2388 207.33 31.5343C207.281 31.6501 207.232 31.7669 207.181 31.8875L207.933 31.907C207.184 30.3952 206.277 28.8514 205.106 27.5554C203.96 26.2395 202.578 25.1723 201.166 24.4984C201.17 24.6023 200.963 24.5046 200.921 24.5641C200.791 24.456 200.524 24.3273 200.184 24.1776C199.841 24.0404 199.415 23.905 198.968 23.7968C198.743 23.7496 198.513 23.7015 198.287 23.6543C198.057 23.6152 197.825 23.5933 197.606 23.5637C197.16 23.4927 196.792 23.507 196.497 23.4708C196.317 23.4546 196.392 23.3492 196.338 23.344L196.414 23.9808C196.503 23.9097 196.769 23.8988 197.15 23.9198C197.34 23.9302 197.558 23.9774 197.798 24.016C198.038 24.0508 198.296 24.1114 198.565 24.1891C199.653 24.4631 200.891 24.9931 201.919 25.414C202.153 25.7252 202.147 25.5884 202.623 26.0002C202.606 25.9873 202.525 25.7953 202.538 25.8038C203.352 26.3076 204.068 27.0374 204.707 27.8071C205.347 28.5826 205.906 29.4143 206.431 30.2293C206.617 30.4848 207.015 31.2369 207.415 32.162L207.551 32.4756L207.687 32.1691C208.203 31.0038 209.027 29.7479 209.545 28.9572C211.825 26.5941 214.772 25.0127 217.816 24.761C219.327 24.6085 220.857 24.7944 222.248 25.2314C223.652 25.6752 224.941 26.4035 226.018 27.3238C226.227 27.4639 226.174 27.1784 226.433 27.3972C226.766 27.6984 226.341 27.5578 226.188 27.4015C226.559 27.7318 226.972 28.0583 227.335 28.4815C227.519 28.6888 227.727 28.8795 227.901 29.1111C228.077 29.3404 228.256 29.5739 228.437 29.8094C228.628 30.0363 228.767 30.3127 228.936 30.5653C229.099 30.8241 229.271 31.0786 229.402 31.3632C229.544 31.6401 229.687 31.9185 229.829 32.1968L230.184 33.0728C230.225 33.1739 230.267 33.2783 230.31 33.3846C230.344 33.4951 230.379 33.6076 230.414 33.7225C230.483 33.9522 230.555 34.1895 230.629 34.4307C230.774 34.9131 230.851 35.4326 230.973 35.9221C231.045 36.4221 231.114 36.9063 231.186 37.3415C231.221 37.78 231.265 38.1694 231.323 38.4777C231.297 38.5421 231.285 38.6545 231.265 38.7389C231.241 38.8495 231.22 38.9772 231.203 39.114C231.187 39.2508 231.172 39.3952 231.156 39.5406C231.131 39.6779 231.11 39.8161 231.092 39.9481C231.075 40.0806 231.061 40.2069 231.051 40.3199C231.031 40.4333 231.017 40.5329 231.009 40.6116C230.993 40.7679 231.003 40.8389 231.048 40.7598C230.932 41.0043 230.706 41.6306 230.45 42.3026C230.195 42.9756 229.903 43.691 229.777 44.1662C229.325 44.812 228.623 46.1809 228.544 46.292C228.516 46.3411 228.243 46.6223 228.111 46.9006C228.083 46.9654 228.05 47.2995 228.027 47.3324C227.727 47.7776 228.106 47.0183 227.806 47.3772C226.887 48.4973 226.068 50.4395 224.872 51.5143C224.462 52.4842 223.795 52.9761 222.765 54.1424L222.972 54.4017C222.741 54.3297 222.567 54.8602 222.353 54.8021C222.354 54.6748 222.523 54.6381 222.714 54.3731C222.386 54.4122 221.759 55.4751 221.85 55.6457C221.625 55.8869 221.526 55.8802 221.613 55.7134C221.3 56.1576 220.629 56.9998 220.362 57.0146C220.331 57.393 219.651 57.5674 219.714 57.9807C219.182 58.1932 217.667 59.9296 217.403 60.3962C216.936 60.6545 216.686 61.0587 216.022 61.6021C216.447 61.2884 216.258 61.5606 215.857 62.0062C215.83 61.9576 215.992 61.8075 216.085 61.6935C215.862 61.6607 215.767 61.9519 215.567 62.2264C214.898 62.4438 212.542 65.2797 211.324 66.3578C210.962 66.7724 211.218 66.5732 211.31 66.6752C211.187 66.7534 211.062 66.8339 210.879 67.0117C210.925 66.9064 210.97 66.8015 210.922 66.7424C210.334 67.271 209.733 67.8858 209.143 68.5026C209.063 68.5793 208.981 68.657 208.9 68.7352C208.821 68.8043 208.747 68.8572 208.67 68.922C208.51 69.0402 208.33 69.1622 208.139 69.2552C207.758 69.4506 207.327 69.5831 206.863 69.6174C206.268 69.6741 205.476 69.4997 204.767 69.004C204.594 68.8734 204.422 68.7342 204.264 68.5722C204.1 68.4096 203.923 68.2176 203.751 68.0384C203.406 67.6728 203.056 67.3015 202.71 66.9345C201.323 65.4656 200 64.0552 199.161 63.4857C197.651 61.6373 195.464 59.5345 193.345 56.6576C193.488 57.3706 192.594 55.5284 192.224 55.3888C192.145 55.0289 191.499 54.232 190.706 53.2568C189.919 52.2783 188.989 51.1135 188.313 50.0716C187.244 48.4344 186.842 46.8081 186.102 46.3039C186.01 45.8153 185.737 45.5203 185.459 44.7148C185.533 45.2558 184.845 43.6062 184.805 43.131C184.689 42.8765 184.767 43.162 184.705 43.1634C184.47 42.4585 184.417 42.2063 184.364 41.9819C184.316 41.7559 184.218 41.5753 184.013 40.97C183.962 41.0653 184.079 41.2088 184.161 41.5267C183.881 41.2688 183.937 40.6306 183.733 40.2374C183.837 40.358 183.806 39.9267 183.719 39.4243C183.66 38.9181 183.55 38.3305 183.477 38.1284C183.482 37.9029 183.569 37.9744 183.63 37.9506C183.615 37.8367 183.603 37.7151 183.592 37.5869L183.584 37.4892L183.583 37.4644C183.583 37.4644 183.582 37.4439 183.581 37.4644L183.582 37.4516L183.583 37.4001C183.586 37.331 183.588 37.26 183.591 37.188C183.602 36.8996 183.622 36.5884 183.648 36.261C183.664 35.9297 183.754 35.6104 183.809 35.2681C183.842 35.0989 183.874 34.9278 183.908 34.7543C183.95 34.5828 184.005 34.4121 184.054 34.2391C184.164 33.8979 184.234 33.5394 184.372 33.2101C184.497 32.8755 184.62 32.5442 184.74 32.2211C185.033 31.602 185.264 30.99 185.519 30.4843C185.553 30.4076 185.559 30.1054 185.59 30.051C185.788 29.7107 185.603 30.2708 185.574 30.287C185.679 30.2317 185.809 30.0167 186.017 29.7555C186.225 29.4958 186.454 29.1421 186.723 28.7875C187.013 28.4539 187.29 28.063 187.599 27.7523C187.91 27.4463 188.189 27.1413 188.438 26.9458C189.144 26.3891 189.98 25.8253 190.855 25.4359C191.072 25.3344 191.287 25.2338 191.498 25.1347C191.716 25.0556 191.93 24.9779 192.139 24.9021C192.549 24.7286 192.954 24.6271 193.314 24.5141C193.024 24.3578 193.747 24.282 193.812 24.1643C194.168 24.1071 193.78 24.3201 193.65 24.374C193.603 24.435 194.709 24.2162 194.164 24.1762C194.542 24.1929 194.808 24.169 195.11 24.1519C195.413 24.1504 195.749 24.1285 196.259 24.0995C196.159 24.0504 196.058 24.0008 196.274 23.9846C196.293 23.8993 195.23 23.9207 196.111 23.873C196.079 23.8011 195.585 23.8078 195.577 23.8831C195.244 23.763 196.062 23.7301 196.314 23.6986ZM213.305 64.7358C213.625 64.3436 213.944 64.0214 214.257 63.866C214.061 64.2487 212.906 65.0342 213.305 64.7358Z" fill="#D1465D"/>
<path d="M221.615 55.7139C221.642 55.6619 221.685 55.5966 221.75 55.5146C221.722 55.5614 221.672 55.6329 221.615 55.7139Z" fill="#D1465D"/>
<path d="M67 156H84V268C84 270.761 81.7614 273 79 273H72C69.2386 273 67 270.761 67 268V156Z" fill="#CE8755"/>
</svg>
