<svg width="248" height="393" viewBox="0 0 248 393" fill="none" xmlns="http://www.w3.org/2000/svg">
<ellipse cx="127" cy="369" rx="121" ry="24" fill="#D4C5A0"/>
<path d="M127.141 284.599H123.428C115.144 284.599 108.428 291.314 108.428 299.599V355.228C108.428 363.512 115.144 370.228 123.428 370.228H127.141C135.425 370.228 142.141 363.512 142.141 355.228V299.599C142.141 291.314 135.425 284.599 127.141 284.599Z" fill="#83593E"/>
<path d="M238.547 272.125L208.879 235.379H125.295H41.6891L12.0223 272.125C11.3481 281.766 26.1814 289.185 26.1814 289.185C31.5754 303.645 58.2148 308.013 58.2148 308.013C70.6951 320.282 94.1062 318.084 94.1062 318.084C108.091 327.723 125.295 325.091 125.295 325.091C125.295 325.091 142.488 327.718 156.473 318.078C156.473 318.078 179.879 320.268 192.359 307.999C192.359 307.999 218.996 303.647 224.39 289.187C224.389 289.186 239.221 281.766 238.547 272.125Z" fill="#2F775D"/>
<path d="M197.439 197.315L125.295 192.165L53.1511 197.315L32.2495 234.86C36.9692 249.663 56.5223 255.242 56.5223 255.242C65.2875 267.685 89.5603 268.114 89.5603 268.114C100.348 277.125 125.295 277.554 125.295 277.554C125.295 277.554 150.242 277.125 161.03 268.114C161.03 268.114 185.303 267.685 194.068 255.242C194.068 255.242 213.621 249.663 218.341 234.86L197.439 197.315Z" fill="#348468"/>
<path d="M176.538 136.477L125.295 139.812L74.0527 136.477L41.689 191.089C46.4087 200.26 65.2875 202.762 65.2875 202.762C76.7497 214.851 93.6058 213.183 93.6058 213.183C114.507 222.772 125.295 219.853 125.295 219.853C125.295 219.853 136.083 222.772 156.985 213.183C156.985 213.183 173.841 214.851 185.303 202.762C185.303 202.762 204.182 200.26 208.902 191.089L176.538 136.477Z" fill="#3C9978"/>
<path d="M188.585 130.414L149.715 90.7622L125.29 94.7389L100.842 90.7622L61.9475 130.414C60.8364 142.794 76.9501 148.145 76.9501 148.145C85.8407 161.781 100.843 160.644 100.843 160.644C111.4 168.031 125.291 165.758 125.291 165.758C125.291 165.758 139.155 168.031 149.712 160.644C149.712 160.644 164.701 161.781 173.591 148.145C173.591 148.145 189.697 142.794 188.585 130.414Z" fill="#46B18A"/>
<path d="M125.295 43.2192L79.4468 102.142C89.5604 113.494 102.371 112.954 102.371 112.954C111.136 121.603 125.295 119.441 125.295 119.441C125.295 119.441 139.455 121.603 148.22 112.954C148.22 112.954 161.03 113.494 171.144 102.142L125.295 43.2192Z" fill="#FFFEF8"/>
<path d="M102.898 28.547C104.781 29.5614 107.126 30.9917 108.573 33.065C110.358 35.6251 110.775 39.2321 109.718 42.9614C108.958 45.6438 107.593 48.0862 106.357 50.1225C106.049 50.6305 106.172 51.2712 106.65 51.6479C107.127 52.0245 107.826 52.032 108.314 51.6652C113.464 47.7828 120.899 46.6469 126.815 48.8394C130.5 50.2048 133.847 52.7113 137.047 56.5032C137.303 56.8051 137.685 56.9674 138.074 56.9674C138.289 56.9674 138.507 56.9183 138.705 56.8149C139.265 56.5259 139.517 55.9009 139.301 55.3401C137.967 51.8871 136.951 48.3141 136.282 44.7215C136.074 43.6044 135.904 42.4361 136.295 41.5107C136.743 40.4496 137.95 39.6578 139.187 38.9612C144.027 36.235 149.327 34.3413 154.939 33.333C155.542 33.2243 155.982 32.7397 155.997 32.1676C156.01 31.5955 155.596 31.0921 154.999 30.9577C150.46 29.9358 146.112 28.7365 142.072 27.3908C139.951 26.6843 137.721 25.8903 135.825 24.6336C133.512 23.1022 131.61 20.8055 130.322 17.9918C129.454 16.0951 128.915 14.055 128.717 11.9281C128.664 11.3567 128.189 10.8978 127.578 10.8269C126.966 10.7522 126.386 11.0933 126.184 11.6345C124.552 16.0196 121.329 19.8538 117.11 22.4313C113.245 24.7921 108.542 26.1228 103.508 26.2798C102.926 26.2979 102.428 26.673 102.286 27.199C102.145 27.7251 102.394 28.2753 102.898 28.547Z" fill="#F0C94A"/>
<path d="M143.212 6.11879C143.862 6.469 144.672 6.96336 145.17 7.67887C145.786 8.56269 145.93 9.80728 145.566 11.0941C145.303 12.0202 144.832 12.8633 144.405 13.566C144.299 13.7411 144.341 13.9622 144.507 14.0928C144.672 14.2226 144.913 14.2256 145.081 14.0988C146.86 12.7591 149.426 12.3682 151.467 13.1237C152.739 13.5946 153.894 14.4604 154.999 15.7683C155.087 15.8725 155.219 15.9284 155.353 15.9284C155.427 15.9284 155.503 15.911 155.571 15.8763C155.764 15.7766 155.852 15.5608 155.776 15.3676C155.316 14.1758 154.965 12.9425 154.734 11.7025C154.663 11.316 154.604 10.913 154.738 10.5937C154.893 10.2277 155.31 9.95446 155.737 9.71369C157.407 8.77251 159.236 8.11889 161.174 7.77095C161.383 7.73321 161.534 7.56641 161.539 7.36866C161.544 7.17167 161.4 6.99732 161.195 6.95128C159.628 6.59881 158.127 6.18445 156.733 5.72028C156.001 5.47649 155.231 5.20176 154.577 4.76853C153.779 4.2402 153.123 3.44771 152.678 2.47634C152.378 1.82121 152.192 1.11702 152.124 0.383396C152.106 0.186405 151.941 0.0279048 151.731 0.00299789C151.519 -0.0203995 151.319 0.0950788 151.25 0.282258C150.686 1.79554 149.573 3.11939 148.117 4.00924C146.783 4.82438 145.16 5.28327 143.422 5.33686C143.222 5.3429 143.05 5.47272 143 5.65386C142.951 5.835 143.038 6.0252 143.212 6.11879Z" fill="#F0C94A"/>
<path d="M120.211 66.2962C121.276 65.6962 122.442 65.2796 123.678 65.0569C123.81 65.0328 123.907 64.9264 123.911 64.8003C123.914 64.6743 123.822 64.5633 123.691 64.5339C122.694 64.3097 121.736 64.0456 120.845 63.7489C120.4 63.601 119.889 63.4191 119.47 63.1429C118.962 62.8055 118.543 62.2998 118.259 61.6802C118.069 61.2635 117.95 60.8144 117.905 60.345C117.893 60.2189 117.788 60.1186 117.654 60.1027C117.517 60.0869 117.391 60.1608 117.348 60.2801C116.989 61.2454 116.279 62.0892 115.35 62.6568C114.5 63.1761 113.464 63.4697 112.356 63.5036C112.228 63.5074 112.118 63.5904 112.087 63.7067C112.056 63.8222 112.111 63.9437 112.222 64.0033C112.636 64.2259 113.151 64.5407 113.471 64.9973C113.864 65.5611 113.956 66.3551 113.723 67.1755C113.556 67.7673 113.255 68.3047 112.983 68.7515C112.916 68.8632 112.942 69.0043 113.048 69.0873C113.153 69.1711 113.307 69.1719 113.414 69.0911C114.547 68.2375 116.182 67.9869 117.485 68.4692C118.297 68.7703 119.034 69.3221 119.737 70.1561C119.793 70.2225 119.877 70.258 119.963 70.258C120.01 70.258 120.059 70.2466 120.102 70.2248C120.226 70.1614 120.282 70.024 120.234 69.9002C119.94 69.1387 119.716 68.3522 119.569 67.5627C119.524 67.3167 119.486 67.0593 119.572 66.8563C119.673 66.6238 119.939 66.4495 120.211 66.2962Z" fill="#F0C94A"/>
<path d="M90.7463 15.3842C91.0145 15.7691 91.0777 16.3118 90.9181 16.8733C90.8038 17.2764 90.5989 17.644 90.4125 17.9511C90.3663 18.0274 90.3849 18.124 90.4562 18.1806C90.5292 18.2372 90.6337 18.2387 90.7066 18.1828C91.4812 17.5987 92.6002 17.4266 93.4906 17.7572C94.0449 17.9625 94.548 18.3398 95.0301 18.9104C95.0682 18.9557 95.1257 18.9799 95.1841 18.9799C95.2165 18.9799 95.2497 18.9723 95.2789 18.9572C95.3631 18.9135 95.4012 18.8199 95.3688 18.7353C95.1679 18.2153 95.0147 17.6779 94.9143 17.1375C94.8835 16.9692 94.8575 16.7941 94.9167 16.6545C94.9839 16.4952 95.1654 16.3752 95.3518 16.2711C96.0794 15.8612 96.8767 15.5759 97.7218 15.4235C97.8125 15.4069 97.879 15.3344 97.8806 15.2484C97.8822 15.1623 97.8198 15.0868 97.7299 15.0665C97.0477 14.9132 96.3938 14.7329 95.7853 14.5298C95.4669 14.4234 95.1306 14.3042 94.8454 14.1147C94.4978 13.8845 94.2118 13.5396 94.0181 13.1162C93.8877 12.8309 93.8058 12.5229 93.7767 12.2037C93.7686 12.1176 93.6973 12.0482 93.6057 12.0384C93.5133 12.0233 93.4266 12.0784 93.3958 12.1599C93.1503 12.8196 92.6658 13.3969 92.0306 13.7849C91.4488 14.1404 90.7406 14.3404 89.9839 14.3638C89.8964 14.366 89.8218 14.4227 89.8008 14.5019C89.7797 14.5812 89.817 14.6642 89.8923 14.7049C90.1759 14.8574 90.5292 15.0725 90.7463 15.3842Z" fill="#F0C94A"/>
<path d="M106.633 9.1945C106.768 9.32054 106.903 9.44583 107.038 9.57188C107.526 10.0262 108.419 10.0602 108.9 9.57188C109.382 9.08204 109.42 8.322 108.9 7.83745C108.765 7.7114 108.63 7.58611 108.495 7.46007C108.007 7.00571 107.114 6.97174 106.633 7.46007C106.151 7.94991 106.113 8.70995 106.633 9.1945Z" fill="#F0C94A"/>
<path d="M92.1691 35.5928C93.8634 35.5928 93.8666 33.1399 92.1691 33.1399C90.4749 33.1399 90.4716 35.5928 92.1691 35.5928Z" fill="#F0C94A"/>
<path d="M148.482 52.9522C150.176 52.9522 150.179 50.4993 148.482 50.4993C146.787 50.4993 146.784 52.9522 148.482 52.9522Z" fill="#F0C94A"/>
<path d="M141.898 64.9338C141.898 65.0598 141.898 65.1851 141.898 65.3112C141.898 65.9527 142.504 66.5671 143.215 66.5377C143.928 66.5082 144.532 65.9988 144.532 65.3112C144.532 65.1851 144.532 65.0598 144.532 64.9338C144.532 64.2923 143.927 63.6779 143.215 63.7073C142.502 63.7368 141.898 64.2462 141.898 64.9338Z" fill="#F0C94A"/>
<path d="M175.414 162.942C176.469 162.218 176.738 160.776 176.015 159.721C175.292 158.666 173.851 158.396 172.796 159.119C171.74 159.842 171.471 161.284 172.194 162.34C172.917 163.395 174.358 163.664 175.414 162.942Z" fill="white"/>
<path d="M183.454 157.164C184.476 156.394 184.68 154.942 183.91 153.92C183.141 152.898 181.689 152.693 180.667 153.463C179.645 154.232 179.441 155.685 180.21 156.707C180.98 157.729 182.432 157.933 183.454 157.164Z" fill="white"/>
<path d="M83.5246 194.949C82.2624 195.157 81.4076 196.348 81.6153 197.611C81.823 198.873 83.0144 199.728 84.2766 199.521C85.5388 199.313 86.3935 198.121 86.1858 196.859C85.9784 195.596 84.7866 194.741 83.5246 194.949Z" fill="white"/>
<path d="M64.2803 197.24C63.0046 197.334 62.0466 198.445 62.1406 199.72C62.2346 200.996 63.3449 201.955 64.6207 201.861C65.8962 201.767 66.8543 200.656 66.7603 199.38C66.6664 198.104 65.5559 197.146 64.2803 197.24Z" fill="white"/>
<path d="M73.9277 196.31C72.6577 196.461 71.7505 197.614 71.9017 198.884C72.053 200.155 73.2053 201.062 74.4753 200.911C75.7454 200.759 76.6524 199.607 76.5013 198.336C76.3501 197.066 75.1978 196.159 73.9277 196.31Z" fill="white"/>
<path d="M102.494 190.962C101.255 191.279 100.508 192.542 100.826 193.781C101.144 195.02 102.406 195.767 103.645 195.449C104.884 195.131 105.631 193.869 105.313 192.63C104.995 191.391 103.733 190.644 102.494 190.962Z" fill="white"/>
<path d="M149.874 178.056C151.016 177.479 151.473 176.085 150.895 174.943C150.318 173.802 148.924 173.345 147.783 173.923C146.642 174.5 146.184 175.894 146.762 177.035C147.34 178.177 148.733 178.634 149.874 178.056Z" fill="white"/>
<path d="M122.582 189.702C123.788 189.278 124.423 187.955 123.999 186.748C123.574 185.541 122.252 184.907 121.045 185.331C119.839 185.756 119.204 187.078 119.629 188.285C120.053 189.492 121.375 190.126 122.582 189.702Z" fill="white"/>
<path d="M158.606 173.395C159.721 172.768 160.117 171.355 159.49 170.24C158.863 169.125 157.451 168.729 156.336 169.356C155.221 169.983 154.825 171.396 155.452 172.511C156.079 173.626 157.491 174.022 158.606 173.395Z" fill="white"/>
<path d="M94.006 197.698C95.2577 197.435 96.0591 196.207 95.7959 194.955C95.5327 193.703 94.3046 192.901 93.0531 193.165C91.8014 193.428 91 194.656 91.2632 195.908C91.5261 197.16 92.754 197.961 94.006 197.698Z" fill="white"/>
<path d="M113.176 192.782C114.4 192.41 115.091 191.117 114.72 189.892C114.348 188.668 113.055 187.977 111.831 188.349C110.607 188.72 109.916 190.014 110.287 191.238C110.659 192.462 111.952 193.153 113.176 192.782Z" fill="white"/>
<path d="M167.125 168.354C168.211 167.678 168.544 166.25 167.869 165.163C167.194 164.077 165.766 163.744 164.679 164.419C163.593 165.095 163.26 166.523 163.935 167.61C164.61 168.696 166.038 169.029 167.125 168.354Z" fill="white"/>
<path d="M131.845 186.217C133.032 185.74 133.608 184.392 133.132 183.204C132.656 182.017 131.308 181.44 130.12 181.917C128.933 182.393 128.357 183.742 128.833 184.929C129.309 186.117 130.658 186.693 131.845 186.217Z" fill="white"/>
<path d="M140.948 182.333C142.113 181.805 142.631 180.433 142.103 179.267C141.576 178.102 140.204 177.584 139.039 178.112C137.873 178.639 137.356 180.012 137.883 181.177C138.411 182.343 139.783 182.86 140.948 182.333Z" fill="white"/>
<path d="M175.671 248.124C174.426 248.416 173.652 249.662 173.944 250.908C174.235 252.153 175.481 252.927 176.727 252.635C177.972 252.344 178.745 251.098 178.454 249.852C178.163 248.606 176.917 247.833 175.671 248.124Z" fill="white"/>
<path d="M46.5827 218.495C47.5823 219.293 49.0397 219.129 49.8374 218.129C50.6353 217.129 50.4716 215.672 49.4717 214.874C48.4718 214.076 47.0146 214.24 46.2167 215.24C45.4188 216.24 45.5828 217.697 46.5827 218.495Z" fill="white"/>
<path d="M117.404 252.923C118.656 253.187 119.885 252.386 120.148 251.134C120.412 249.882 119.611 248.654 118.359 248.39C117.108 248.126 115.879 248.927 115.616 250.179C115.352 251.431 116.153 252.659 117.404 252.923Z" fill="white"/>
<path d="M166.233 249.942C164.968 250.134 164.099 251.316 164.291 252.581C164.484 253.845 165.665 254.715 166.929 254.522C168.194 254.33 169.063 253.148 168.871 251.884C168.678 250.619 167.497 249.749 166.233 249.942Z" fill="white"/>
<path d="M156.675 251.024C155.4 251.12 154.443 252.232 154.539 253.508C154.635 254.783 155.747 255.74 157.022 255.644C158.298 255.548 159.254 254.436 159.158 253.161C159.062 251.885 157.951 250.928 156.675 251.024Z" fill="white"/>
<path d="M137.11 255.682C138.386 255.771 139.493 254.809 139.582 253.533C139.671 252.256 138.709 251.149 137.433 251.06C136.157 250.971 135.05 251.934 134.961 253.21C134.872 254.486 135.834 255.593 137.11 255.682Z" fill="white"/>
<path d="M127.208 254.642C128.475 254.82 129.646 253.937 129.823 252.67C130.001 251.403 129.118 250.232 127.851 250.054C126.585 249.876 125.414 250.759 125.236 252.026C125.059 253.294 125.942 254.465 127.208 254.642Z" fill="white"/>
<path d="M108.999 246.085C107.767 245.738 106.488 246.455 106.142 247.687C105.795 248.918 106.512 250.197 107.743 250.544C108.974 250.891 110.253 250.174 110.6 248.943C110.947 247.711 110.23 246.431 108.999 246.085Z" fill="white"/>
<path d="M147.057 251.39C145.778 251.392 144.743 252.431 144.745 253.71C144.747 254.99 145.785 256.025 147.064 256.023C148.343 256.021 149.379 254.983 149.377 253.703C149.375 252.424 148.337 251.388 147.057 251.39Z" fill="white"/>
<path d="M54.4876 224.481C55.5271 225.227 56.974 224.989 57.7196 223.949C58.4653 222.909 58.2272 221.462 57.1878 220.717C56.1483 219.971 54.7016 220.209 53.956 221.249C53.2101 222.288 53.4484 223.735 54.4876 224.481Z" fill="white"/>
<path d="M71.1925 235.174C72.3056 235.804 73.7189 235.413 74.3491 234.299C74.9791 233.186 74.5876 231.773 73.4745 231.142C72.3614 230.512 70.9481 230.904 70.3181 232.017C69.6879 233.13 70.0794 234.544 71.1925 235.174Z" fill="white"/>
<path d="M62.6952 230.05C63.7723 230.74 65.2048 230.426 65.8947 229.349C66.5846 228.272 66.2705 226.839 65.1934 226.149C64.1162 225.459 62.6839 225.773 61.994 226.85C61.3041 227.928 61.618 229.36 62.6952 230.05Z" fill="white"/>
<path d="M98.2641 247.542C99.4705 247.967 100.793 247.333 101.218 246.126C101.642 244.919 101.008 243.596 99.8015 243.172C98.5948 242.747 97.2725 243.381 96.848 244.588C96.4235 245.795 97.0574 247.118 98.2641 247.542Z" fill="white"/>
<path d="M88.9963 243.956C90.1746 244.453 91.5334 243.901 92.0309 242.723C92.5287 241.544 91.9769 240.185 90.7987 239.688C89.6202 239.19 88.2616 239.742 87.7638 240.92C87.2663 242.099 87.818 243.457 88.9963 243.956Z" fill="white"/>
<path d="M79.9655 239.821C81.1125 240.387 82.5013 239.916 83.0675 238.769C83.6337 237.621 83.1628 236.232 82.0158 235.666C80.8688 235.1 79.48 235.571 78.9138 236.718C78.3476 237.865 78.8185 239.254 79.9655 239.821Z" fill="white"/>
<path d="M69.7609 289.636C68.5787 289.481 67.4946 290.313 67.3394 291.496C67.1842 292.678 68.0171 293.762 69.1991 293.918C70.3813 294.073 71.4651 293.24 71.6203 292.057C71.7755 290.875 70.9428 289.791 69.7609 289.636Z" fill="white"/>
<path d="M159.27 283.38C158.129 283.726 157.484 284.931 157.829 286.072C158.174 287.214 159.379 287.859 160.521 287.514C161.662 287.168 162.307 285.963 161.961 284.821C161.616 283.68 160.411 283.035 159.27 283.38Z" fill="white"/>
<path d="M150.57 285.782C149.414 286.071 148.71 287.243 148.999 288.4C149.288 289.557 150.46 290.26 151.616 289.972C152.773 289.683 153.477 288.51 153.188 287.354C152.899 286.196 151.727 285.493 150.57 285.782Z" fill="white"/>
<path d="M123.906 290.485C122.721 290.612 121.863 291.676 121.99 292.862C122.117 294.048 123.181 294.906 124.366 294.779C125.552 294.652 126.41 293.587 126.282 292.402C126.155 291.216 125.091 290.358 123.906 290.485Z" fill="white"/>
<path d="M114.9 291.255C113.71 291.331 112.808 292.357 112.884 293.547C112.96 294.737 113.986 295.64 115.176 295.564C116.366 295.488 117.269 294.461 117.192 293.272C117.116 292.081 116.09 291.178 114.9 291.255Z" fill="white"/>
<path d="M141.762 287.759C140.592 287.993 139.834 289.13 140.068 290.299C140.301 291.469 141.438 292.227 142.607 291.994C143.776 291.76 144.535 290.623 144.302 289.453C144.068 288.284 142.931 287.525 141.762 287.759Z" fill="white"/>
<path d="M105.867 291.644C104.675 291.671 103.731 292.659 103.757 293.851C103.784 295.044 104.772 295.988 105.964 295.962C107.156 295.935 108.101 294.946 108.074 293.754C108.047 292.562 107.059 291.617 105.867 291.644Z" fill="white"/>
<path d="M87.7809 291.33C86.5904 291.263 85.5711 292.174 85.504 293.364C85.4369 294.555 86.3473 295.575 87.5376 295.642C88.7281 295.709 89.7475 294.798 89.8146 293.608C89.8819 292.417 88.9712 291.397 87.7809 291.33Z" fill="white"/>
<path d="M78.7564 290.65C77.5694 290.538 76.5164 291.41 76.4047 292.597C76.293 293.784 77.1645 294.837 78.3515 294.949C79.5388 295.061 80.5915 294.189 80.7035 293.002C80.815 291.815 79.9434 290.762 78.7564 290.65Z" fill="white"/>
<path d="M96.7465 295.983C97.9387 296.004 98.922 295.054 98.9428 293.862C98.9637 292.67 98.0141 291.686 96.8221 291.665C95.6301 291.644 94.6468 292.594 94.6258 293.786C94.6051 294.979 95.5544 295.962 96.7465 295.983Z" fill="white"/>
<path d="M186.349 277.504C187.424 276.989 187.878 275.699 187.363 274.624C186.847 273.548 185.558 273.095 184.483 273.61C183.408 274.126 182.954 275.415 183.469 276.491C183.985 277.566 185.274 278.02 186.349 277.504Z" fill="white"/>
<path d="M200.29 264.956C199.277 265.585 198.966 266.916 199.595 267.929C200.224 268.942 201.555 269.253 202.567 268.624C203.58 267.995 203.891 266.664 203.262 265.651C202.634 264.638 201.303 264.327 200.29 264.956Z" fill="white"/>
<path d="M132.866 289.323C131.687 289.503 130.878 290.604 131.057 291.783C131.237 292.962 132.338 293.772 133.516 293.592C134.695 293.413 135.505 292.311 135.325 291.133C135.146 289.954 134.045 289.144 132.866 289.323Z" fill="white"/>
<path d="M192.505 269.497C191.459 270.069 191.075 271.381 191.648 272.428C192.22 273.474 193.532 273.858 194.578 273.286C195.623 272.713 196.007 271.401 195.435 270.355C194.863 269.309 193.551 268.925 192.505 269.497Z" fill="white"/>
<path d="M210.812 260.513C210.127 259.538 208.78 259.303 207.805 259.988C206.829 260.674 206.594 262.021 207.28 262.996C207.965 263.972 209.312 264.207 210.287 263.522C211.263 262.836 211.498 261.489 210.812 260.513Z" fill="white"/>
<path d="M210.812 260.513C210.127 259.538 208.78 259.303 207.805 259.988C206.829 260.674 206.594 262.021 207.28 262.996C207.965 263.972 209.312 264.207 210.287 263.522C211.263 262.836 211.498 261.489 210.812 260.513Z" fill="white"/>
<path d="M217.703 257.98C218.636 257.239 218.792 255.881 218.051 254.947C217.309 254.013 215.952 253.857 215.018 254.598C214.084 255.34 213.928 256.698 214.67 257.632C215.411 258.566 216.769 258.722 217.703 257.98Z" fill="white"/>
<path d="M167.838 280.551C166.716 280.953 166.132 282.189 166.534 283.312C166.936 284.435 168.171 285.019 169.294 284.617C170.417 284.215 171.001 282.978 170.599 281.856C170.196 280.733 168.961 280.149 167.838 280.551Z" fill="white"/>
<path d="M176.251 277.295C175.151 277.754 174.63 279.018 175.089 280.119C175.548 281.22 176.812 281.74 177.912 281.281C179.013 280.823 179.533 279.559 179.075 278.458C178.616 277.357 177.352 276.836 176.251 277.295Z" fill="white"/>
<path d="M58.1557 291.327C59.2787 291.94 60.6856 291.526 61.2979 290.403C61.9104 289.28 61.4966 287.872 60.3737 287.26C59.2507 286.647 57.8438 287.061 57.2315 288.184C56.619 289.307 57.0328 290.714 58.1557 291.327Z" fill="white"/>
<path d="M48.4683 287.761C49.5313 288.472 50.9697 288.187 51.681 287.124C52.3924 286.061 52.1073 284.622 51.0443 283.911C49.9812 283.199 48.5428 283.484 47.8315 284.547C47.1199 285.611 47.4052 287.049 48.4683 287.761Z" fill="white"/>
<path d="M185.596 243.761C184.318 243.689 183.225 244.666 183.152 245.943C183.08 247.22 184.057 248.314 185.334 248.387C186.611 248.459 187.705 247.482 187.777 246.204C187.849 244.927 186.873 243.833 185.596 243.761Z" fill="white"/>
<path d="M194.447 238.596C193.182 238.409 192.004 239.284 191.818 240.549C191.631 241.815 192.505 242.993 193.771 243.179V243.18C195.036 243.367 196.213 242.492 196.4 241.226C196.587 239.96 195.712 238.783 194.447 238.596Z" fill="white"/>
<path d="M200.485 237.09C201.728 237.388 202.978 236.621 203.276 235.377C203.574 234.133 202.807 232.882 201.564 232.584C200.32 232.286 199.07 233.053 198.772 234.297C198.474 235.541 199.241 236.791 200.485 237.09Z" fill="white"/>
<path d="M206.34 230.119C207.553 230.525 208.865 229.87 209.271 228.657C209.677 227.444 209.023 226.131 207.81 225.725C206.597 225.319 205.285 225.974 204.879 227.187C204.473 228.4 205.127 229.713 206.34 230.119Z" fill="white"/>
<path d="M83.8495 127.449C84.8564 128.238 86.3121 128.061 87.1009 127.054C87.8896 126.047 87.7128 124.591 86.7059 123.802C85.6989 123.013 84.2432 123.19 83.4545 124.197C82.6655 125.204 82.8425 126.66 83.8495 127.449Z" fill="white"/>
<path d="M78.2011 122.588C79.1305 123.466 80.5965 123.425 81.4752 122.495C82.3538 121.565 82.3123 120.099 81.3827 119.22C80.4528 118.342 78.9871 118.383 78.1086 119.313C77.23 120.243 77.2715 121.709 78.2011 122.588Z" fill="white"/>
<path d="M131.979 145.187C133.258 145.237 134.334 144.24 134.384 142.962C134.433 141.684 133.438 140.607 132.159 140.557C130.881 140.508 129.805 141.504 129.755 142.782C129.705 144.061 130.701 145.137 131.979 145.187Z" fill="white"/>
<path d="M125.162 139.959C123.894 139.792 122.73 140.684 122.562 141.953C122.395 143.221 123.287 144.385 124.555 144.552C125.824 144.72 126.987 143.827 127.155 142.559C127.322 141.291 126.43 140.127 125.162 139.959Z" fill="white"/>
<path d="M118.242 138.725C116.994 138.444 115.755 139.229 115.474 140.477C115.193 141.725 115.977 142.965 117.225 143.245L117.225 143.246C118.473 143.527 119.712 142.742 119.993 141.494C120.274 140.246 119.49 139.006 118.242 138.725Z" fill="white"/>
<path d="M96.3364 135.532C97.4678 136.129 98.8688 135.696 99.4656 134.564C100.062 133.433 99.6293 132.031 98.4979 131.434C97.3665 130.837 95.9655 131.271 95.3687 132.402C94.7718 133.534 95.205 134.935 96.3364 135.532Z" fill="white"/>
<path d="M110.044 141.291C111.262 141.681 112.566 141.009 112.956 139.791C113.346 138.573 112.674 137.269 111.456 136.878C110.238 136.488 108.934 137.16 108.544 138.378C108.154 139.597 108.826 140.9 110.044 141.291Z" fill="white"/>
<path d="M103.064 138.712C104.243 139.208 105.601 138.653 106.096 137.474C106.591 136.294 106.037 134.936 104.858 134.441C103.678 133.945 102.321 134.5 101.825 135.68C101.33 136.859 101.884 138.217 103.064 138.712Z" fill="white"/>
<path d="M139.437 145.124C140.714 145.052 141.691 143.958 141.619 142.68C141.547 141.403 140.453 140.426 139.176 140.498C137.899 140.57 136.922 141.664 136.994 142.941C137.066 144.218 138.16 145.195 139.437 145.124Z" fill="white"/>
<path d="M89.9133 131.771C90.9874 132.466 92.4213 132.159 93.1158 131.084C93.8105 130.01 93.503 128.576 92.4289 127.881C91.3548 127.186 89.9209 127.494 89.2264 128.568C88.5317 129.642 88.8393 131.076 89.9133 131.771Z" fill="white"/>
<path d="M146.864 144.827C148.142 144.755 149.118 143.661 149.046 142.384C148.975 141.106 147.881 140.129 146.604 140.201C145.327 140.273 144.35 141.367 144.422 142.645C144.494 143.922 145.587 144.899 146.864 144.827Z" fill="white"/>
<path d="M154.644 143.098C155.921 143.026 156.898 141.932 156.826 140.655C156.754 139.378 155.661 138.4 154.384 138.473C153.106 138.545 152.13 139.638 152.201 140.916C152.273 142.193 153.367 143.17 154.644 143.098Z" fill="white"/>
<path d="M161.732 135.031C160.464 134.863 159.3 135.756 159.132 137.024C158.965 138.293 159.857 139.457 161.125 139.624C162.394 139.791 163.557 138.899 163.725 137.63C163.892 136.362 163 135.198 161.732 135.031Z" fill="white"/>
<path d="M166.774 135.212C167.992 135.602 169.295 134.931 169.685 133.712C170.076 132.494 169.404 131.19 168.186 130.8C166.968 130.41 165.664 131.081 165.274 132.3C164.884 133.518 165.555 134.822 166.774 135.212Z" fill="white"/>
<path d="M173.44 129.269C174.718 129.319 175.794 128.323 175.844 127.045C175.894 125.766 174.898 124.689 173.62 124.64C172.342 124.59 171.265 125.586 171.216 126.865C171.166 128.143 172.162 129.22 173.44 129.269Z" fill="white"/>
<path d="M158.245 110.373C159.587 114.044 157.699 118.107 154.028 119.449C150.358 120.791 146.294 118.903 144.952 115.232C143.61 111.562 145.498 107.498 149.169 106.156C152.84 104.814 156.903 106.702 158.245 110.373Z" fill="#DF383B"/>
<path d="M147.915 108.863C147.915 108.863 147.835 109.039 147.707 109.358C147.58 109.675 147.41 110.132 147.247 110.681C147.09 111.231 146.944 111.877 146.898 112.558C146.884 112.728 146.894 112.899 146.889 113.072C146.902 113.242 146.914 113.415 146.928 113.588C146.963 113.756 146.981 113.93 147.027 114.096L147.103 114.342L147.194 114.445L147.253 114.441L147.255 114.444C147.23 114.377 147.194 114.448 147.188 114.434L147.165 114.453L147.166 114.492L147.188 114.563C147.267 114.738 147.339 114.957 147.422 115.069L147.539 115.273C147.58 115.342 147.639 115.409 147.688 115.478C147.883 115.756 148.125 115.998 148.376 116.219C148.504 116.327 148.641 116.422 148.768 116.525C148.906 116.614 149.035 116.712 149.174 116.79C149.449 116.948 149.717 117.095 149.977 117.21C150.236 117.327 150.48 117.429 150.701 117.508C150.921 117.589 151.117 117.658 151.279 117.707C151.605 117.812 151.796 117.863 151.796 117.863L151.799 117.864C151.892 117.89 151.947 117.986 151.922 118.08C151.901 118.156 151.832 118.207 151.757 118.209C151.757 118.209 151.705 118.21 151.609 118.212C151.513 118.211 151.37 118.218 151.191 118.205C151.011 118.195 150.791 118.182 150.543 118.141C150.293 118.106 150.01 118.056 149.708 117.969C149.404 117.89 149.077 117.781 148.742 117.63C148.572 117.558 148.407 117.464 148.232 117.377C148.064 117.277 147.892 117.172 147.727 117.051C147.402 116.8 147.065 116.523 146.796 116.169C146.728 116.08 146.656 116 146.592 115.902L146.406 115.597C146.266 115.379 146.213 115.217 146.124 115.03L146.093 114.963L146.077 114.929L146.019 114.94L145.949 114.922L145.947 114.917L145.996 114.876L145.977 114.704L145.899 114.373C145.845 114.156 145.831 113.932 145.795 113.715C145.782 113.498 145.772 113.28 145.777 113.068C145.797 112.858 145.805 112.648 145.836 112.448C145.892 112.047 145.986 111.669 146.102 111.325C146.212 110.978 146.345 110.664 146.484 110.384C146.755 109.821 147.047 109.393 147.262 109.105C147.369 108.959 147.464 108.853 147.527 108.778C147.592 108.706 147.627 108.667 147.627 108.667C147.692 108.595 147.802 108.589 147.875 108.653C147.933 108.706 147.948 108.788 147.917 108.856L147.915 108.863Z" fill="#EA504E"/>
<path d="M217.949 280.718C218.78 282.991 217.611 285.506 215.338 286.337C213.066 287.168 210.551 285.999 209.72 283.727C208.889 281.454 210.058 278.939 212.33 278.108C214.603 277.277 217.118 278.446 217.949 280.718Z" fill="#DF383B"/>
<path d="M211.554 279.783C211.554 279.783 211.504 279.892 211.425 280.09C211.347 280.286 211.242 280.569 211.141 280.909C211.043 281.25 210.953 281.65 210.925 282.071C210.916 282.176 210.922 282.282 210.919 282.389C210.927 282.495 210.935 282.601 210.943 282.709C210.965 282.813 210.976 282.92 211.004 283.023L211.052 283.175L211.108 283.239L211.145 283.236L211.145 283.239C211.13 283.197 211.108 283.241 211.104 283.233L211.09 283.244L211.09 283.268L211.104 283.312C211.153 283.42 211.197 283.556 211.249 283.625L211.321 283.752C211.347 283.794 211.383 283.836 211.413 283.878C211.535 284.051 211.684 284.201 211.839 284.337C211.919 284.404 212.003 284.463 212.082 284.527C212.168 284.582 212.248 284.642 212.333 284.691C212.504 284.788 212.67 284.88 212.831 284.951C212.991 285.023 213.142 285.086 213.279 285.135C213.415 285.185 213.536 285.228 213.637 285.259C213.838 285.323 213.956 285.355 213.956 285.355L213.958 285.356C214.016 285.372 214.05 285.431 214.034 285.489C214.022 285.537 213.979 285.568 213.932 285.569C213.932 285.569 213.9 285.57 213.841 285.571C213.781 285.571 213.693 285.575 213.582 285.567C213.471 285.561 213.335 285.552 213.181 285.527C213.026 285.505 212.851 285.474 212.664 285.421C212.476 285.372 212.273 285.304 212.066 285.211C211.961 285.166 211.859 285.108 211.75 285.054C211.646 284.992 211.54 284.927 211.438 284.852C211.236 284.697 211.028 284.526 210.861 284.307C210.819 284.251 210.775 284.202 210.735 284.141L210.62 283.952C210.533 283.818 210.501 283.717 210.445 283.602L210.426 283.559L210.417 283.539L210.38 283.546L210.337 283.534L210.336 283.531L210.366 283.506L210.354 283.399L210.306 283.195C210.272 283.06 210.264 282.922 210.242 282.787C210.234 282.653 210.227 282.518 210.231 282.387C210.243 282.257 210.248 282.127 210.267 282.003C210.302 281.754 210.36 281.52 210.432 281.307C210.5 281.093 210.582 280.898 210.668 280.725C210.836 280.376 211.016 280.111 211.15 279.933C211.216 279.843 211.275 279.777 211.314 279.731C211.354 279.686 211.376 279.662 211.376 279.662C211.416 279.618 211.484 279.614 211.529 279.654C211.565 279.686 211.575 279.737 211.556 279.779L211.554 279.783Z" fill="#EA504E"/>
<path d="M101.257 225.398C102.087 227.67 100.919 230.185 98.6463 231.016C96.374 231.847 93.8585 230.678 93.0278 228.406C92.1971 226.133 93.3658 223.618 95.6381 222.787C97.9104 221.957 100.426 223.125 101.257 225.398Z" fill="#DF383B"/>
<path d="M94.8617 224.463C94.8617 224.463 94.8123 224.571 94.7331 224.769C94.6546 224.966 94.5496 225.248 94.4486 225.588C94.3513 225.929 94.261 226.329 94.2327 226.75C94.2235 226.856 94.2297 226.961 94.2269 227.069C94.2347 227.174 94.2425 227.281 94.2507 227.388C94.2726 227.492 94.2835 227.599 94.312 227.702L94.3594 227.854L94.4159 227.918L94.4525 227.916L94.4533 227.918C94.438 227.876 94.4157 227.92 94.4121 227.912L94.3977 227.923L94.3983 227.948L94.4121 227.992C94.4605 228.099 94.5053 228.235 94.557 228.305L94.629 228.431C94.6548 228.473 94.6912 228.515 94.7213 228.558C94.8424 228.73 94.9922 228.88 95.1473 229.017C95.2267 229.083 95.3111 229.142 95.3901 229.206C95.4757 229.261 95.5556 229.322 95.6413 229.37C95.8118 229.468 95.9774 229.559 96.1386 229.63C96.2988 229.702 96.4497 229.765 96.5864 229.815C96.723 229.865 96.8439 229.907 96.9445 229.938C97.146 230.003 97.2642 230.035 97.2642 230.035L97.266 230.035C97.324 230.051 97.358 230.11 97.3422 230.168C97.3294 230.216 97.2868 230.247 97.24 230.248C97.24 230.248 97.2082 230.249 97.1486 230.25C97.0893 230.25 97.0011 230.254 96.8899 230.246C96.7785 230.24 96.6426 230.232 96.4886 230.206C96.3338 230.185 96.159 230.153 95.9717 230.1C95.7834 230.051 95.5811 229.983 95.3738 229.89C95.2689 229.846 95.1664 229.787 95.0583 229.733C94.9543 229.671 94.848 229.606 94.7454 229.531C94.5441 229.376 94.3355 229.205 94.1692 228.986C94.1273 228.93 94.0827 228.881 94.0432 228.82L93.9279 228.631C93.8411 228.497 93.8086 228.396 93.7532 228.281L93.7341 228.239L93.7244 228.218L93.6882 228.225L93.6449 228.213L93.6438 228.21L93.674 228.185L93.662 228.078L93.6139 227.874C93.5803 227.739 93.5718 227.601 93.5495 227.467C93.5415 227.332 93.5354 227.197 93.5387 227.066C93.5506 226.936 93.5555 226.806 93.5751 226.682C93.6096 226.434 93.6677 226.2 93.7395 225.987C93.8078 225.772 93.8903 225.577 93.9762 225.404C94.1439 225.056 94.3243 224.791 94.4579 224.612C94.5239 224.522 94.5829 224.457 94.6219 224.41C94.662 224.365 94.6836 224.342 94.6836 224.342C94.7236 224.297 94.7921 224.293 94.837 224.333C94.8729 224.366 94.8824 224.417 94.8634 224.459L94.8617 224.463Z" fill="#EA504E"/>
<path d="M146.205 199.466C147.035 201.738 145.867 204.254 143.594 205.084C141.322 205.915 138.806 204.747 137.976 202.474C137.145 200.202 138.314 197.686 140.586 196.856C142.858 196.025 145.374 197.194 146.205 199.466Z" fill="#DF383B"/>
<path d="M139.81 198.531C139.81 198.531 139.76 198.64 139.681 198.837C139.603 199.034 139.498 199.317 139.397 199.657C139.299 199.997 139.209 200.397 139.181 200.819C139.172 200.924 139.178 201.03 139.175 201.137C139.183 201.242 139.191 201.349 139.199 201.456C139.221 201.56 139.231 201.668 139.26 201.77L139.307 201.923L139.364 201.987L139.4 201.984L139.401 201.986C139.386 201.945 139.364 201.989 139.36 201.98L139.346 201.992L139.346 202.016L139.36 202.06C139.409 202.168 139.453 202.303 139.505 202.373L139.577 202.499C139.603 202.542 139.639 202.584 139.669 202.626C139.79 202.798 139.94 202.948 140.095 203.085C140.175 203.152 140.259 203.211 140.338 203.274C140.424 203.329 140.504 203.39 140.589 203.438C140.76 203.536 140.925 203.627 141.087 203.698C141.247 203.771 141.398 203.834 141.534 203.883C141.671 203.933 141.792 203.975 141.893 204.006C142.094 204.071 142.212 204.103 142.212 204.103L142.214 204.103C142.272 204.119 142.306 204.179 142.29 204.237C142.277 204.284 142.235 204.316 142.188 204.317C142.188 204.317 142.156 204.318 142.097 204.319C142.037 204.318 141.949 204.323 141.838 204.314C141.727 204.308 141.591 204.3 141.437 204.275C141.282 204.253 141.107 204.222 140.92 204.168C140.731 204.119 140.529 204.052 140.322 203.958C140.217 203.914 140.114 203.856 140.006 203.802C139.902 203.74 139.796 203.675 139.693 203.6C139.492 203.445 139.284 203.273 139.117 203.054C139.075 202.999 139.031 202.949 138.991 202.889L138.876 202.7C138.789 202.565 138.757 202.464 138.701 202.349L138.682 202.307L138.672 202.286L138.636 202.293L138.593 202.282L138.592 202.279L138.622 202.254L138.61 202.147L138.562 201.942C138.528 201.808 138.52 201.669 138.497 201.535C138.49 201.4 138.483 201.266 138.487 201.134C138.499 201.004 138.504 200.874 138.523 200.751C138.558 200.502 138.616 200.268 138.688 200.055C138.756 199.841 138.838 199.646 138.924 199.473C139.092 199.124 139.272 198.859 139.406 198.681C139.472 198.591 139.531 198.525 139.57 198.479C139.61 198.434 139.632 198.41 139.632 198.41C139.672 198.365 139.74 198.361 139.785 198.401C139.821 198.434 139.83 198.485 139.811 198.527L139.81 198.531Z" fill="#EA504E"/>
<path d="M87.7037 173.249C87.8531 177.946 84.1667 181.874 79.4701 182.023C74.7735 182.173 70.8449 178.487 70.6955 173.79C70.5462 169.093 74.2325 165.165 78.9291 165.015C83.6257 164.866 87.5543 168.552 87.7037 173.249Z" fill="#F0CA4C"/>
<path d="M76.4777 167.633C76.4777 167.633 76.3204 167.804 76.0541 168.12C75.7897 168.435 75.4241 168.892 75.031 169.458C74.6442 170.027 74.2343 170.709 73.9256 171.47C73.8446 171.658 73.7915 171.857 73.7212 172.053C73.6715 172.252 73.621 172.454 73.5706 172.657C73.5479 172.862 73.5025 173.067 73.4928 173.273L73.4876 173.583L73.5527 173.736L73.6218 173.753L73.6219 173.757C73.6192 173.671 73.5511 173.739 73.5497 173.721L73.5162 173.734L73.5026 173.779L73.5013 173.868C73.5248 174.097 73.5249 174.374 73.578 174.534L73.6337 174.811C73.6555 174.905 73.6971 175.004 73.727 175.1C73.8456 175.492 74.0305 175.86 74.2335 176.206C74.3393 176.377 74.459 176.538 74.5659 176.703C74.6904 176.857 74.8009 177.017 74.9296 177.159C75.1846 177.442 75.4344 177.712 75.6885 177.941C75.9401 178.172 76.1801 178.38 76.4022 178.554C76.6236 178.729 76.8209 178.881 76.9877 178.999C77.32 179.241 77.5186 179.372 77.5186 179.372L77.5216 179.374C77.619 179.438 77.6453 179.569 77.5811 179.666C77.5284 179.746 77.4307 179.778 77.3437 179.752C77.3437 179.752 77.2846 179.734 77.1739 179.7C77.0649 179.663 76.8995 179.617 76.6994 179.534C76.4978 179.455 76.2521 179.357 75.9834 179.217C75.711 179.083 75.4076 178.919 75.0947 178.706C74.7774 178.501 74.4454 178.253 74.1197 177.955C73.9532 177.81 73.7998 177.639 73.6331 177.474C73.479 177.297 73.3225 177.112 73.179 176.911C72.9021 176.503 72.6216 176.06 72.4482 175.554C72.4045 175.427 72.3526 175.308 72.3165 175.172L72.2187 174.754C72.1405 174.453 72.1419 174.247 72.1098 174.001L72.1003 173.912L72.0951 173.867L72.0241 173.858L71.9511 173.81L71.9509 173.804L72.022 173.776L72.0648 173.572L72.1004 173.166C72.1203 172.897 72.189 172.636 72.2296 172.375C72.2968 172.122 72.3674 171.87 72.4535 171.63C72.5544 171.397 72.6426 171.16 72.7541 170.944C72.969 170.506 73.2186 170.11 73.4806 169.761C73.737 169.407 74.0078 169.098 74.2716 168.831C74.7931 168.29 75.2871 167.911 75.6418 167.663C75.8185 167.537 75.9672 167.452 76.0673 167.391C76.1687 167.332 76.2229 167.301 76.2229 167.301C76.3239 167.243 76.4526 167.278 76.5111 167.379C76.5576 167.461 76.544 167.561 76.4834 167.627L76.4777 167.633Z" fill="#FDDD8B"/>
<path d="M170.685 232.892C170.835 237.589 167.148 241.517 162.452 241.666C157.755 241.816 153.826 238.13 153.677 233.433C153.528 228.736 157.214 224.807 161.911 224.658C166.607 224.509 170.536 228.195 170.685 232.892Z" fill="#F0CA4C"/>
<path d="M159.459 227.276C159.459 227.276 159.302 227.447 159.035 227.763C158.771 228.077 158.406 228.535 158.012 229.101C157.626 229.67 157.216 230.352 156.907 231.112C156.826 231.301 156.773 231.5 156.703 231.696C156.653 231.895 156.602 232.097 156.552 232.3C156.529 232.505 156.484 232.71 156.474 232.916L156.469 233.226L156.534 233.379L156.603 233.396L156.603 233.4C156.601 233.314 156.533 233.382 156.531 233.364L156.498 233.376L156.484 233.422L156.483 233.511C156.506 233.74 156.506 234.017 156.559 234.177L156.615 234.454C156.637 234.548 156.679 234.647 156.708 234.743C156.827 235.135 157.012 235.503 157.215 235.849C157.321 236.02 157.44 236.181 157.547 236.346C157.672 236.5 157.782 236.66 157.911 236.801C158.166 237.085 158.416 237.355 158.67 237.584C158.922 237.814 159.162 238.023 159.384 238.197C159.605 238.372 159.802 238.524 159.969 238.642C160.301 238.884 160.5 239.015 160.5 239.015L160.503 239.017C160.6 239.081 160.627 239.212 160.563 239.309C160.51 239.389 160.412 239.421 160.325 239.395C160.325 239.395 160.266 239.377 160.155 239.343C160.046 239.306 159.881 239.26 159.681 239.177C159.479 239.098 159.234 239 158.965 238.86C158.692 238.726 158.389 238.562 158.076 238.349C157.759 238.144 157.427 237.896 157.101 237.598C156.935 237.452 156.781 237.282 156.615 237.117C156.46 236.94 156.304 236.755 156.16 236.554C155.884 236.145 155.603 235.703 155.43 235.197C155.386 235.07 155.334 234.951 155.298 234.815L155.2 234.397C155.122 234.096 155.123 233.89 155.091 233.644L155.082 233.554L155.077 233.51L155.006 233.501L154.933 233.453L154.932 233.447L155.003 233.419L155.046 233.215L155.082 232.809C155.102 232.54 155.17 232.279 155.211 232.018C155.278 231.765 155.349 231.512 155.435 231.273C155.536 231.04 155.624 230.803 155.736 230.587C155.95 230.149 156.2 229.753 156.462 229.404C156.718 229.05 156.989 228.741 157.253 228.474C157.774 227.933 158.269 227.554 158.623 227.306C158.8 227.18 158.949 227.095 159.049 227.033C159.15 226.975 159.204 226.944 159.204 226.944C159.305 226.886 159.434 226.921 159.492 227.022C159.539 227.104 159.525 227.204 159.465 227.269L159.459 227.276Z" fill="#FDDD8B"/>
<path d="M141.318 309.796C141.394 312.205 139.504 314.22 137.095 314.296C134.687 314.373 132.672 312.483 132.595 310.074C132.519 307.665 134.409 305.651 136.818 305.574C139.226 305.497 141.241 307.388 141.318 309.796Z" fill="#F5A739"/>
<path d="M135.56 306.917C135.56 306.917 135.48 307.004 135.343 307.166C135.208 307.328 135.02 307.562 134.818 307.852C134.62 308.144 134.41 308.494 134.252 308.884C134.21 308.981 134.183 309.083 134.147 309.183C134.121 309.285 134.095 309.389 134.07 309.493C134.058 309.598 134.035 309.703 134.03 309.809L134.027 309.968L134.06 310.046L134.096 310.055L134.096 310.057C134.094 310.013 134.06 310.048 134.059 310.039L134.042 310.045L134.035 310.068L134.034 310.114C134.046 310.231 134.046 310.374 134.073 310.455L134.102 310.598C134.113 310.646 134.134 310.697 134.15 310.746C134.211 310.947 134.305 311.135 134.409 311.313C134.464 311.401 134.525 311.483 134.58 311.568C134.644 311.647 134.7 311.729 134.766 311.802C134.897 311.947 135.025 312.085 135.156 312.203C135.285 312.321 135.408 312.428 135.522 312.517C135.635 312.607 135.736 312.685 135.822 312.745C135.992 312.869 136.094 312.937 136.094 312.937L136.096 312.938C136.146 312.971 136.159 313.038 136.126 313.087C136.099 313.128 136.049 313.145 136.005 313.131C136.005 313.131 135.974 313.122 135.917 313.105C135.861 313.086 135.777 313.062 135.674 313.02C135.571 312.979 135.445 312.929 135.307 312.857C135.167 312.788 135.012 312.704 134.851 312.595C134.688 312.49 134.518 312.363 134.351 312.21C134.266 312.135 134.187 312.048 134.102 311.963C134.023 311.872 133.942 311.778 133.869 311.675C133.727 311.465 133.583 311.238 133.494 310.979C133.472 310.913 133.445 310.852 133.426 310.783L133.376 310.568C133.336 310.414 133.337 310.308 133.32 310.182L133.316 310.136L133.313 310.113L133.276 310.109L133.239 310.085L133.239 310.081L133.275 310.067L133.297 309.962L133.316 309.754C133.326 309.616 133.361 309.482 133.382 309.348C133.416 309.219 133.453 309.089 133.497 308.966C133.548 308.847 133.594 308.725 133.651 308.614C133.761 308.39 133.889 308.187 134.023 308.008C134.155 307.826 134.294 307.668 134.429 307.531C134.696 307.253 134.95 307.059 135.132 306.932C135.222 306.868 135.299 306.824 135.35 306.792C135.402 306.762 135.43 306.746 135.43 306.746C135.482 306.717 135.548 306.734 135.577 306.786C135.601 306.828 135.594 306.879 135.563 306.913L135.56 306.917Z" fill="#F0CA4C"/>
<path d="M141.318 309.796C141.394 312.205 139.504 314.22 137.095 314.296C134.687 314.373 132.672 312.483 132.595 310.074C132.519 307.665 134.409 305.651 136.818 305.574C139.226 305.497 141.241 307.388 141.318 309.796Z" fill="#F5A739"/>
<path d="M135.56 306.917C135.56 306.917 135.48 307.004 135.343 307.166C135.208 307.328 135.02 307.562 134.818 307.852C134.62 308.144 134.41 308.494 134.252 308.884C134.21 308.981 134.183 309.083 134.147 309.183C134.121 309.285 134.095 309.389 134.07 309.493C134.058 309.598 134.035 309.703 134.03 309.809L134.027 309.968L134.06 310.046L134.096 310.055L134.096 310.057C134.094 310.013 134.06 310.048 134.059 310.039L134.042 310.045L134.035 310.068L134.034 310.114C134.046 310.231 134.046 310.374 134.073 310.455L134.102 310.598C134.113 310.646 134.134 310.697 134.15 310.746C134.211 310.947 134.305 311.135 134.409 311.313C134.464 311.401 134.525 311.483 134.58 311.568C134.644 311.647 134.7 311.729 134.766 311.802C134.897 311.947 135.025 312.085 135.156 312.203C135.285 312.321 135.408 312.428 135.522 312.517C135.635 312.607 135.736 312.685 135.822 312.745C135.992 312.869 136.094 312.937 136.094 312.937L136.096 312.938C136.146 312.971 136.159 313.038 136.126 313.087C136.099 313.128 136.049 313.145 136.005 313.131C136.005 313.131 135.974 313.122 135.917 313.105C135.861 313.086 135.777 313.062 135.674 313.02C135.571 312.979 135.445 312.929 135.307 312.857C135.167 312.788 135.012 312.704 134.851 312.595C134.688 312.49 134.518 312.363 134.351 312.21C134.266 312.135 134.187 312.048 134.102 311.963C134.023 311.872 133.942 311.778 133.869 311.675C133.727 311.465 133.583 311.238 133.494 310.979C133.472 310.913 133.445 310.852 133.426 310.783L133.376 310.568C133.336 310.414 133.337 310.308 133.32 310.182L133.316 310.136L133.313 310.113L133.276 310.109L133.239 310.085L133.239 310.081L133.275 310.067L133.297 309.962L133.316 309.754C133.326 309.616 133.361 309.482 133.382 309.348C133.416 309.219 133.453 309.089 133.497 308.966C133.548 308.847 133.594 308.725 133.651 308.614C133.761 308.39 133.889 308.187 134.023 308.008C134.155 307.826 134.294 307.668 134.429 307.531C134.696 307.253 134.95 307.059 135.132 306.932C135.222 306.868 135.299 306.824 135.35 306.792C135.402 306.762 135.43 306.746 135.43 306.746C135.482 306.717 135.548 306.734 135.577 306.786C135.601 306.828 135.594 306.879 135.563 306.913L135.56 306.917Z" fill="#F0CA4C"/>
<path d="M65.592 273.578C65.592 277.637 62.3025 280.926 58.2448 280.926C54.187 280.926 50.8975 277.637 50.8975 273.578C50.8975 269.521 54.187 266.231 58.2448 266.231C62.3025 266.231 65.592 269.521 65.592 273.578Z" fill="#4CBFF0"/>
<path d="M56.057 268.423C56.057 268.423 55.9165 268.566 55.6779 268.832C55.4411 269.096 55.113 269.481 54.7582 269.959C54.4088 270.439 54.0362 271.017 53.7489 271.665C53.6738 271.825 53.6226 271.996 53.5565 272.163C53.5081 272.333 53.459 272.506 53.4099 272.68C53.3847 272.856 53.3399 273.032 53.3258 273.209L53.3128 273.477L53.3648 273.61L53.424 273.627V273.631C53.424 273.556 53.3634 273.613 53.3626 273.598L53.3334 273.607L53.3204 273.646L53.3168 273.723C53.3309 273.921 53.3233 274.16 53.3648 274.3L53.4052 274.54C53.4215 274.622 53.4547 274.709 53.4778 274.792C53.5695 275.133 53.7189 275.456 53.8846 275.761C53.9713 275.911 54.0701 276.053 54.1579 276.199C54.2611 276.335 54.3521 276.476 54.4593 276.602C54.6715 276.854 54.8798 277.093 55.0928 277.298C55.3036 277.504 55.505 277.69 55.692 277.847C55.8783 278.004 56.0443 278.14 56.1851 278.247C56.4652 278.465 56.6331 278.583 56.6331 278.583L56.6356 278.585C56.7179 278.643 56.737 278.757 56.6789 278.839C56.6313 278.906 56.5461 278.931 56.4717 278.906C56.4717 278.906 56.4212 278.889 56.3266 278.857C56.2335 278.822 56.092 278.778 55.9216 278.701C55.7498 278.627 55.5404 278.536 55.3123 278.407C55.0809 278.284 54.8235 278.134 54.5593 277.942C54.2911 277.756 54.0113 277.533 53.7384 277.266C53.5987 277.137 53.4709 276.985 53.3316 276.838C53.2034 276.681 53.0735 276.517 52.9551 276.34C52.7273 275.98 52.4974 275.59 52.3617 275.149C52.3274 275.037 52.2859 274.934 52.2584 274.815L52.1855 274.452C52.1263 274.19 52.1332 274.012 52.1122 273.799L52.1064 273.721L52.1032 273.683L52.0422 273.673L51.9805 273.631V273.626L52.0426 273.604L52.0851 273.429L52.127 273.079C52.1516 272.847 52.218 272.624 52.2602 272.4C52.3252 272.183 52.3931 271.967 52.4739 271.763C52.5674 271.565 52.6501 271.363 52.7522 271.179C52.9497 270.807 53.176 270.472 53.4117 270.178C53.6428 269.879 53.885 269.62 54.12 269.397C54.5849 268.944 55.0217 268.631 55.3346 268.427C55.4906 268.323 55.6213 268.254 55.7093 268.203C55.7985 268.156 55.8461 268.131 55.8461 268.131C55.9349 268.083 56.0451 268.117 56.0927 268.206C56.1306 268.277 56.1162 268.363 56.062 268.419L56.057 268.423Z" fill="#BACCEB"/>
<path d="M190.928 186.275C190.928 191.288 186.864 195.351 181.852 195.351C176.839 195.351 172.776 191.288 172.776 186.275C172.776 181.263 176.839 177.199 181.852 177.199C186.864 177.199 190.928 181.263 190.928 186.275Z" fill="#4CBFF0"/>
<path d="M179.149 179.907C179.149 179.907 178.976 180.083 178.681 180.412C178.388 180.738 177.983 181.214 177.545 181.804C177.113 182.397 176.653 183.111 176.298 183.911C176.205 184.109 176.142 184.32 176.06 184.526C176.001 184.737 175.94 184.95 175.879 185.165C175.848 185.382 175.793 185.6 175.775 185.819L175.759 186.149L175.824 186.314L175.897 186.335V186.34C175.897 186.248 175.822 186.318 175.821 186.299L175.785 186.311L175.769 186.359L175.764 186.454C175.782 186.698 175.772 186.994 175.824 187.166L175.874 187.463C175.894 187.564 175.935 187.671 175.963 187.775C176.076 188.196 176.261 188.595 176.466 188.971C176.573 189.157 176.695 189.332 176.803 189.513C176.931 189.681 177.043 189.855 177.176 190.01C177.438 190.321 177.695 190.617 177.958 190.87C178.219 191.124 178.467 191.355 178.698 191.548C178.928 191.742 179.134 191.911 179.307 192.042C179.654 192.311 179.861 192.458 179.861 192.458L179.864 192.46C179.966 192.532 179.989 192.672 179.917 192.773C179.859 192.857 179.753 192.888 179.662 192.857C179.662 192.857 179.599 192.835 179.482 192.796C179.367 192.752 179.192 192.698 178.982 192.603C178.77 192.512 178.511 192.399 178.229 192.24C177.943 192.088 177.626 191.903 177.299 191.665C176.968 191.436 176.622 191.16 176.285 190.831C176.113 190.671 175.955 190.484 175.783 190.302C175.624 190.108 175.464 189.905 175.317 189.686C175.036 189.242 174.752 188.76 174.584 188.215C174.542 188.078 174.491 187.949 174.457 187.803L174.367 187.354C174.294 187.03 174.302 186.811 174.276 186.547L174.269 186.452L174.265 186.404L174.19 186.392L174.114 186.34V186.334L174.19 186.306L174.243 186.09L174.295 185.658C174.325 185.372 174.407 185.097 174.459 184.819C174.539 184.552 174.623 184.285 174.723 184.032C174.839 183.788 174.941 183.538 175.067 183.311C175.311 182.852 175.59 182.438 175.882 182.075C176.167 181.706 176.466 181.386 176.756 181.11C177.331 180.551 177.87 180.164 178.257 179.912C178.45 179.784 178.611 179.698 178.72 179.636C178.83 179.577 178.889 179.546 178.889 179.546C178.998 179.487 179.134 179.529 179.193 179.638C179.24 179.727 179.222 179.833 179.155 179.901L179.149 179.907Z" fill="#BACCEB"/>
<path d="M120.913 156.886C120.913 159.035 119.171 160.776 117.023 160.776C114.875 160.776 113.133 159.035 113.133 156.886C113.133 154.738 114.875 152.997 117.023 152.997C119.171 152.997 120.913 154.738 120.913 156.886Z" fill="#4CBFF0"/>
<path d="M115.865 154.157C115.865 154.157 115.79 154.233 115.664 154.373C115.539 154.513 115.365 154.717 115.177 154.97C114.992 155.224 114.795 155.53 114.643 155.873C114.603 155.958 114.576 156.048 114.541 156.137C114.515 156.227 114.489 156.318 114.463 156.41C114.45 156.504 114.426 156.597 114.419 156.691L114.412 156.832L114.439 156.903L114.471 156.912V156.914C114.471 156.874 114.439 156.905 114.438 156.896L114.423 156.902L114.416 156.922L114.414 156.963C114.421 157.068 114.417 157.194 114.439 157.268L114.461 157.395C114.469 157.439 114.487 157.485 114.499 157.529C114.548 157.709 114.627 157.88 114.715 158.042C114.76 158.121 114.813 158.196 114.859 158.274C114.914 158.346 114.962 158.42 115.019 158.487C115.131 158.62 115.241 158.747 115.354 158.855C115.466 158.964 115.572 159.063 115.671 159.146C115.77 159.229 115.858 159.301 115.933 159.358C116.081 159.473 116.17 159.536 116.17 159.536L116.171 159.537C116.215 159.568 116.225 159.628 116.194 159.671C116.169 159.707 116.124 159.72 116.084 159.707C116.084 159.707 116.058 159.698 116.007 159.681C115.958 159.662 115.883 159.639 115.793 159.598C115.702 159.559 115.591 159.511 115.47 159.443C115.348 159.377 115.212 159.298 115.072 159.196C114.93 159.098 114.782 158.98 114.637 158.839C114.563 158.77 114.496 158.69 114.422 158.612C114.354 158.529 114.285 158.442 114.223 158.348C114.102 158.158 113.98 157.951 113.908 157.718C113.89 157.659 113.868 157.604 113.854 157.541L113.815 157.349C113.784 157.21 113.787 157.116 113.776 157.003L113.773 156.962L113.772 156.941L113.739 156.936L113.707 156.914V156.911L113.739 156.9L113.762 156.807L113.784 156.622C113.797 156.499 113.832 156.381 113.855 156.262C113.889 156.148 113.925 156.033 113.968 155.925C114.017 155.82 114.061 155.713 114.115 155.616C114.22 155.419 114.339 155.242 114.464 155.086C114.587 154.928 114.715 154.791 114.839 154.672C115.085 154.433 115.317 154.267 115.482 154.159C115.565 154.104 115.634 154.067 115.681 154.041C115.728 154.015 115.753 154.002 115.753 154.002C115.8 153.977 115.858 153.995 115.884 154.042C115.904 154.08 115.896 154.125 115.867 154.155L115.865 154.157Z" fill="#BACCEB"/>
<path d="M102.78 340.504H43V351.254H102.78V340.504Z" fill="#DF383B"/>
<path d="M100.918 351.252H44.8606V379.999H100.918V351.252Z" fill="#DF383B"/>
<path opacity="0.5" d="M100.918 351.252H44.8606V354.753H100.918V351.252Z" fill="#DF383B"/>
<path d="M78.392 340.504H67.387V380H78.392V340.504Z" fill="white"/>
<path d="M50.8493 333.25C51.4055 330.562 52.7044 328.153 58.4549 328.895C63.6351 329.563 71.2229 338.881 72.6753 340.719L73.0166 340.573C73.0166 340.573 64.2987 321.85 54.6539 323.056C45.0091 324.261 44.3597 332.695 45.3799 335.568C46.4001 338.442 67.0818 337.422 71.7189 341.13L72.608 340.749C65.6743 334.415 50.3015 335.899 50.8493 333.25Z" fill="white"/>
<path d="M93.8272 333.25C93.271 330.562 91.9721 328.153 86.2228 328.895C81.0426 329.563 73.4548 338.881 72.0024 340.719L71.6611 340.573C71.6611 340.573 80.379 321.85 90.0238 323.056C99.6686 324.261 100.318 332.695 99.2978 335.568C98.2776 338.442 77.5958 337.422 72.9588 341.13L72.0697 340.749C79.0022 334.415 94.3751 335.899 93.8272 333.25Z" fill="white"/>
<path d="M36.0145 337.98C34.5073 337.473 33.2736 336.637 32.2787 335.71C33.764 332.904 34.619 329.644 34.619 326.163C34.619 315.662 26.8771 307.149 17.3272 307.149C7.77722 307.149 0.0354004 315.662 0.0354004 326.163C0.0354004 336.664 7.77722 345.177 17.3272 345.177C21.3862 345.177 25.1155 343.635 28.0656 341.061C31.3528 342.08 34.1596 341.442 36.1461 340.545C37.23 340.056 37.1348 338.357 36.0145 337.98Z" fill="white"/>
<path d="M36.0362 337.902C36.325 337.993 36.5172 338.155 36.6499 338.301C36.6821 338.34 36.7126 338.376 36.7416 338.411C36.7657 338.449 36.7885 338.486 36.8102 338.521C36.8573 338.589 36.8819 338.662 36.9106 338.727C37.0054 338.993 37.0391 339.233 36.9401 339.605C36.895 339.928 36.725 340.24 36.4701 340.452L36.3725 340.53L36.2757 340.586C36.2402 340.606 36.2186 340.621 36.1719 340.644L36.0705 340.689C35.9354 340.748 35.8027 340.809 35.669 340.858C35.1389 341.066 34.6379 341.201 34.2679 341.246C33.731 341.437 33.135 341.546 32.8536 341.532C32.5339 341.7 31.9133 341.623 31.8668 341.701C31.3288 341.627 30.5146 341.638 29.7674 341.56C29.0203 341.495 28.3525 341.335 28.1384 341.185C28.1056 341.178 28.0727 341.172 28.0386 341.165L28.1262 341.145C27.2704 342.003 26.1497 342.752 25.2815 343.12C25.2865 343.183 24.8474 343.48 24.3763 343.608C24.2773 343.712 23.9109 343.931 23.4063 344.133C22.9056 344.346 22.2683 344.538 21.6632 344.668C21.6805 344.688 21.3955 344.795 21.0193 344.904C20.8299 344.951 20.6181 344.999 20.4115 345.04C20.2044 345.079 20.0006 345.097 19.8313 345.108L19.8353 345.107C19.8341 345.108 19.8325 345.108 19.8307 345.108C19.713 345.114 19.6104 345.118 19.5336 345.104C19.1987 345.144 19.603 345.173 19.8307 345.108H19.8313C19.0306 345.287 17.9542 345.374 17.5229 345.266C17.3828 345.316 16.9804 345.318 16.5673 345.31C16.1524 345.291 15.7206 345.231 15.5057 345.178C15.4961 345.227 15.3239 345.213 14.9329 345.102C14.765 345.084 14.8147 345.135 14.7936 345.163C14.1473 345.055 13.7892 344.961 13.4386 344.849C13.2623 344.796 13.0865 344.744 12.8773 344.682C12.669 344.615 12.4249 344.545 12.1113 344.458C12.6129 344.543 12.1818 344.424 11.7147 344.249C11.5972 344.207 11.4768 344.164 11.3665 344.125C11.2579 344.081 11.1605 344.038 11.0864 344.004C10.9383 343.936 10.8857 343.9 11.0345 343.933C10.8172 343.847 10.6535 343.794 10.524 343.748C10.3955 343.699 10.2979 343.664 10.2081 343.627C10.031 343.548 9.87565 343.475 9.58946 343.211C9.59487 343.298 9.29525 343.134 8.89623 342.875C8.69742 342.744 8.47135 342.594 8.24328 342.444C8.01841 342.288 7.78613 342.141 7.56908 342.023C7.85066 342.178 7.43861 341.855 7.71779 342.034C7.61518 341.932 7.50054 341.86 7.13659 341.56C7.19992 341.652 7.36947 341.8 7.58792 341.973C7.47108 341.88 7.15904 341.662 6.87585 341.441C6.59928 341.209 6.34515 340.984 6.32431 340.913C6.21288 340.904 5.98942 340.7 5.73489 340.457C5.48137 340.213 5.21842 339.905 4.99736 339.713C3.79567 338.295 3.04612 337.088 2.40059 335.847C2.24286 335.534 2.07792 335.227 1.93402 334.9C1.85886 334.738 1.78291 334.575 1.70615 334.41C1.6354 334.242 1.56385 334.071 1.4909 333.898C1.33658 333.554 1.21053 333.183 1.05941 332.8C0.987064 332.607 0.924737 332.404 0.853189 332.199C0.781641 331.993 0.709689 331.781 0.647961 331.558C0.311264 330.162 0.101629 328.689 0.0318852 327.316C-0.041667 325.948 0.0220663 324.68 0.121071 323.695C0.175384 323.804 0.204645 323.38 0.253346 323.375C0.180996 323.499 0.196831 322.781 0.34614 322.753C0.338524 322.569 0.35776 322.448 0.403455 322.28C0.452156 322.112 0.521499 321.897 0.603068 321.52C0.540739 321.65 0.532925 321.586 0.558377 321.407C0.591646 321.23 0.663596 320.94 0.749373 320.618C0.838758 320.297 0.961609 319.95 1.06081 319.647C1.17365 319.349 1.27506 319.099 1.32697 318.971C1.38368 318.798 1.32697 318.837 1.30673 318.808C1.66006 317.938 1.96869 317.268 2.26771 316.714C2.34086 316.574 2.41101 316.44 2.47895 316.311C2.5515 316.184 2.62145 316.062 2.68979 315.943C2.82727 315.706 2.95313 315.477 3.09462 315.262C3.36338 314.822 3.64617 314.403 3.98787 313.923C4.3392 313.451 4.74464 312.91 5.31862 312.289C5.04005 312.734 5.62486 311.947 6.06718 311.54C5.99964 311.636 5.99402 311.69 6.03611 311.71C6.44716 311.229 7.06684 310.666 7.7725 310.151C8.47416 309.628 9.28162 309.192 10.0121 308.881C10.1354 308.8 10.1137 308.763 10.3765 308.639C10.3727 308.744 10.7711 308.471 11.595 308.133C13.2526 307.444 15.3462 306.968 17.39 307.002C18.3474 307.018 19.2424 307.152 20.0202 307.289C20.7961 307.446 21.4574 307.599 21.9665 307.689C21.9128 307.723 22.205 307.815 22.4849 307.906C22.7611 308.012 23.0243 308.118 22.9206 308.144C23.5878 308.293 24.3442 308.623 25.1623 309.08C25.9814 309.538 26.8592 310.13 27.7771 310.839C27.938 310.991 27.7561 310.85 27.7561 310.888C28.7337 311.675 29.7812 312.736 30.5843 313.771C31.3964 314.799 31.9561 315.79 32.197 316.254C32.6161 316.818 32.9384 317.76 33.3292 318.454C33.3969 318.627 33.3438 318.605 33.3296 318.646C33.4146 318.827 33.4935 319.032 33.5747 319.231C33.6559 319.431 33.7314 319.629 33.7847 319.809C33.8982 320.165 33.9689 320.427 33.94 320.428C34.1048 320.739 34.1324 321.084 34.285 321.462C34.1302 321.161 34.3908 321.949 34.3848 322.271C34.3834 322.201 34.4671 322.632 34.5702 323.177C34.6144 323.45 34.6519 323.753 34.6904 324.035C34.7295 324.317 34.7401 324.583 34.7565 324.776C34.7656 324.923 34.7772 325.074 34.7806 325.225C34.7806 325.375 34.7806 325.525 34.7804 325.675C34.7796 325.826 34.779 325.975 34.7782 326.123C34.7728 326.272 34.7676 326.42 34.7623 326.563C34.7429 327.131 34.7114 327.631 34.7457 327.96C34.6607 328.616 34.5613 329.291 34.4315 329.972C34.2996 330.652 34.1415 331.338 33.9533 332.015C33.5819 333.37 33.0656 334.679 32.4718 335.833L32.4231 335.522C32.5319 335.62 32.6368 335.715 32.7428 335.805C32.6931 335.817 32.8288 335.936 32.8219 335.972C33.0396 336.102 33.5649 336.525 34.1814 336.901C34.7944 337.284 35.4963 337.607 35.9408 337.751C36.0799 337.798 36.0414 337.731 36.0831 337.745L35.9167 337.992C35.8127 337.888 35.2145 337.696 34.4852 337.318C33.7539 336.948 32.9077 336.358 32.2808 335.707L32.2814 335.711C32.3552 335.582 32.4283 335.458 32.5009 335.338C32.5834 335.044 32.5832 335.11 32.7853 334.623C32.7778 334.64 32.7614 334.79 32.7672 334.778C33.4655 333.308 33.8553 331.596 34.1864 330.015C34.2467 329.72 34.3984 328.858 34.4776 327.887C34.498 327.644 34.5192 327.395 34.5303 327.147C34.5471 326.899 34.5561 326.653 34.5631 326.414C34.5808 325.94 34.5744 325.493 34.5908 325.146C34.3609 322.371 33.647 319.628 32.4764 317.219C31.3086 314.811 29.6842 312.762 27.8855 311.3C27.7362 311.151 27.9108 311.192 27.7031 311.01C27.4196 310.785 27.6468 311.068 27.7841 311.179C27.161 310.663 26.4355 310.116 25.6234 309.64C24.8144 309.159 23.9327 308.728 23.0339 308.381C22.4092 308.136 21.6284 307.899 20.8896 307.717C20.5195 307.63 20.1603 307.553 19.8379 307.486C19.5138 307.43 19.2282 307.366 19.0031 307.318C18.8971 307.335 18.7208 307.336 18.5197 307.326C18.4191 307.319 18.3127 307.312 18.2055 307.305C18.0983 307.301 17.9904 307.297 17.8878 307.293C17.4766 307.267 17.1545 307.237 17.2868 307.213C17.187 307.231 17.0114 307.249 16.7928 307.264C16.6833 307.271 16.5633 307.278 16.4366 307.285C16.3114 307.297 16.1797 307.31 16.0454 307.322C15.7771 307.344 15.4985 307.362 15.243 307.394C14.9874 307.423 14.7519 307.43 14.5738 307.446C13.9976 307.606 12.8656 307.869 12.7712 307.916C12.7304 307.929 12.4592 308.06 12.2345 308.115C12.1838 308.129 11.957 308.136 11.9283 308.147C11.5453 308.297 12.157 308.114 11.8299 308.268C11.7024 308.328 11.5676 308.385 11.4267 308.441C11.2884 308.504 11.1443 308.567 10.9958 308.628C10.6964 308.745 10.3901 308.886 10.0793 309.028C9.76603 309.164 9.46601 309.341 9.16919 309.504C8.881 309.685 8.60503 309.873 8.36333 310.077C8.01641 310.249 7.71679 310.441 7.40494 310.716C7.08528 310.978 6.74638 311.311 6.29806 311.739L6.18281 311.639C6.18362 311.785 5.8351 311.985 5.83069 312.119C5.90665 312.098 5.95995 311.981 6.15235 311.809C6.11267 311.926 5.89923 312.121 5.69921 312.301C5.4992 312.482 5.29658 312.63 5.25389 312.615C5.07392 312.811 5.06931 312.884 5.17593 312.788C5.02662 312.942 4.80797 313.18 4.62018 313.402C4.43901 313.63 4.29431 313.847 4.27407 313.941C4.0488 314.045 3.90009 314.579 3.67443 314.637C3.63254 314.744 3.53453 314.92 3.41589 315.136C3.29704 315.352 3.13671 315.591 2.99742 315.845C2.6998 316.339 2.42263 316.844 2.30038 317.014C2.22903 317.222 2.15969 317.414 2.06108 317.63C2.01318 317.739 1.96188 317.855 1.90436 317.985C1.85226 318.118 1.79954 318.267 1.74263 318.437C1.87169 318.014 1.75084 318.251 1.55504 318.706C1.58009 318.707 1.64442 318.535 1.69493 318.426C1.72619 318.576 1.57889 318.746 1.47106 319.001C1.46184 319.145 1.37707 319.425 1.26464 319.79C1.16222 320.159 1.01332 320.606 0.892467 321.091C0.635335 322.055 0.419488 323.143 0.373192 323.828C0.302245 324.281 0.317275 324.007 0.258153 323.993C0.25695 324.117 0.253548 324.243 0.241523 324.458C0.266374 324.373 0.291425 324.29 0.324293 324.294C0.304653 324.631 0.284412 324.973 0.263969 325.325C0.257957 325.675 0.225487 326.04 0.230697 326.41C0.230297 326.789 0.222881 327.181 0.247933 327.58C0.258755 327.78 0.260963 327.985 0.280404 328.195C0.300645 328.404 0.321084 328.618 0.342128 328.836C0.364574 329.119 0.429109 329.435 0.48302 329.782C0.540138 330.128 0.634334 330.495 0.718107 330.882C0.923132 331.646 1.16423 332.473 1.47588 333.249C2.0661 334.82 2.86094 336.192 3.22069 336.951C3.76401 337.75 4.40614 338.644 5.21441 339.538C6.02068 340.43 6.99489 341.322 8.15249 342.087C7.9162 342.016 8.13726 342.157 8.44209 342.342C8.75534 342.511 9.14434 342.734 9.24615 342.843C9.37001 342.869 9.60389 342.983 9.91233 343.152C10.2292 343.302 10.6142 343.524 11.0575 343.72C11.9341 344.138 13.0127 344.536 13.9337 344.739C15.3855 345.054 16.5875 344.892 17.2048 345.111C17.3764 345.083 17.5407 345.066 17.7373 345.063C17.8359 345.06 17.9433 345.056 18.0658 345.053C18.1873 345.043 18.3227 345.028 18.4789 345.007C18.2911 345.057 18.5274 345.054 18.8528 345.024C19.1775 344.979 19.5906 344.917 19.7521 344.854C19.9611 344.83 19.7461 344.878 19.7685 344.904C20.3143 344.804 20.4962 344.742 20.663 344.7C20.8297 344.658 20.9802 344.635 21.4494 344.535C21.4037 344.588 21.2676 344.573 21.0327 344.648C21.2935 344.672 21.7005 344.472 22.0224 344.419C21.909 344.408 22.2112 344.301 22.5719 344.167C22.7521 344.098 22.9499 344.033 23.1207 343.976C23.29 343.916 23.4347 343.872 23.5129 343.862C23.6668 343.792 23.6011 343.773 23.6061 343.738C24.1688 343.536 24.9466 343.147 25.7321 342.636C26.5203 342.129 27.3123 341.505 27.9809 340.944L28.0356 340.898L28.1018 340.918C28.3663 340.995 28.6122 341.086 28.8433 341.152C28.9044 341.171 29.0768 341.284 29.1227 341.295C29.4147 341.361 29.0076 341.207 28.9826 341.21C29.1515 341.195 29.7428 341.321 30.4268 341.395C31.1102 341.472 31.885 341.479 32.3824 341.426C33.0883 341.361 33.8743 341.203 34.6138 340.964C34.9852 340.851 35.3433 340.712 35.6814 340.578C35.7652 340.543 35.848 340.508 35.9294 340.474C35.97 340.456 36.0105 340.439 36.0504 340.422L36.0805 340.41C36.0805 340.41 36.1005 340.401 36.0853 340.408L36.0997 340.4L36.1572 340.369C36.1955 340.349 36.2332 340.329 36.2707 340.309L36.355 340.242C36.4136 340.205 36.4611 340.144 36.5122 340.093C36.4973 340.147 36.5062 340.161 36.5312 340.148C36.5436 340.141 36.5601 340.129 36.5793 340.112C36.5953 340.092 36.6132 340.067 36.632 340.041C36.6509 340.013 36.6707 339.985 36.6903 339.956C36.706 339.925 36.7212 339.894 36.7352 339.866C36.7665 339.81 36.7887 339.764 36.8026 339.75C36.8481 339.601 36.8278 339.609 36.7925 339.665C36.7749 339.693 36.7539 339.733 36.7354 339.771C36.7112 339.808 36.6893 339.843 36.6775 339.869C36.6653 339.875 36.6805 339.828 36.7094 339.763C36.725 339.692 36.7651 339.604 36.7759 339.519C36.7853 339.477 36.794 339.439 36.8012 339.407C36.805 339.375 36.8094 339.351 36.8142 339.338C36.8212 339.314 36.8394 339.339 36.8392 339.454C36.8431 339.135 36.7735 338.914 36.6681 338.693C36.5563 338.479 36.3837 338.246 36.0173 338.092C36.0957 338.101 36.1797 338.111 36.0232 338.038C36.0212 338.019 36.2232 338.08 36.3276 338.155C36.3839 338.184 36.4144 338.213 36.4007 338.197C36.3873 338.181 36.3226 338.127 36.1632 338.041C36.1835 338.025 36.2817 338.073 36.3721 338.134C36.4605 338.198 36.5306 338.283 36.5244 338.297C36.635 338.383 36.5871 338.286 36.4631 338.168C36.4062 338.102 36.3172 338.056 36.2428 338C36.1602 337.96 36.0845 337.924 36.0362 337.902ZM0.620707 321.676C0.725524 321.269 0.834549 320.907 0.852987 320.612C0.784846 320.764 0.70528 321.135 0.652371 321.414C0.610684 321.695 0.593651 321.885 0.620707 321.676Z" fill="white"/>
<path d="M5.17603 312.789C5.2111 312.761 5.25679 312.72 5.31511 312.661C5.28365 312.69 5.23334 312.736 5.17603 312.789Z" fill="white"/>
<path d="M22.0507 318.04C19.7227 318.101 17.7454 319.65 16.8516 321.84C15.8637 319.699 13.8215 318.256 11.4933 318.317C8.26401 318.402 5.70872 321.349 5.78588 324.9C5.87066 328.807 13.0273 336.012 15.9868 338.828C16.7095 339.516 17.7833 339.508 18.4968 338.809C21.3597 336.003 28.1365 328.872 28.0375 324.316C27.9604 320.765 25.28 317.955 22.0507 318.04Z" fill="#D1465D"/>
<path d="M22.0491 317.958C22.377 317.955 22.5541 317.937 22.6954 317.945C22.8361 317.961 22.9427 317.986 23.1275 318.057C23.2923 318.059 23.4568 318.11 23.6243 318.14C23.7929 318.169 23.9538 318.229 24.1069 318.289C24.419 318.393 24.6733 318.572 24.8501 318.702C25.1523 318.831 25.4573 319.021 25.5593 319.167C25.6674 319.181 25.7818 319.265 25.8724 319.344C25.9584 319.43 26.0259 319.505 26.0606 319.485C26.1486 319.635 26.2885 319.782 26.4291 319.953C26.5021 320.036 26.5805 320.119 26.6612 320.201C26.7354 320.29 26.8103 320.379 26.8837 320.467C27.0376 320.636 27.1623 320.818 27.2567 320.974C27.3044 321.052 27.3438 321.123 27.3719 321.186C27.3969 321.25 27.4076 321.308 27.4064 321.352C27.4996 321.51 27.6044 321.671 27.6791 321.849C27.7515 322.028 27.8242 322.21 27.8799 322.393C27.9252 322.579 27.9637 322.763 27.9942 322.938C28.0192 323.115 28.02 323.287 28.0218 323.439C28.0469 323.443 28.0838 323.524 28.1094 323.645C28.1249 323.763 28.1241 323.918 28.0902 324.07C28.119 324.112 28.1435 324.185 28.1643 324.314C28.1742 324.434 28.177 324.588 28.173 324.762C28.1423 325.106 28.0637 325.523 27.9244 325.886C27.9769 325.882 27.8296 326.658 27.6008 327.02L27.6016 327.017C27.6016 327.017 27.601 327.019 27.6008 327.02C27.5639 327.084 27.53 327.138 27.4925 327.171C27.412 327.364 27.5695 327.167 27.6008 327.02L27.601 327.02C27.4567 327.514 27.1915 328.126 26.9837 328.314C26.9689 328.511 26.5907 329.219 26.3969 329.409C26.4333 329.438 26.3875 329.535 26.2197 329.715C26.169 329.805 26.2201 329.801 26.2381 329.827C26.0321 330.169 25.895 330.345 25.759 330.52C25.6255 330.696 25.4928 330.871 25.2896 331.211C25.4104 330.916 25.2645 331.144 25.0952 331.392C24.9268 331.641 24.7406 331.915 24.8058 331.731C24.4955 332.201 24.6052 332.252 24.217 332.491C24.3555 332.555 23.7029 333.108 23.4227 333.638C23.5143 333.465 23.3063 333.686 23.4175 333.524C23.3454 333.568 23.3119 333.647 23.1259 333.847C23.1884 333.824 23.2798 333.733 23.3832 333.607C23.2758 333.744 22.8608 334.338 22.76 334.333C22.7804 334.512 22.3339 334.889 22.1459 335.176C21.4202 335.939 20.8516 336.483 20.3027 337.035C19.7519 337.586 19.2226 338.144 18.5396 338.904C18.2316 339.17 17.8536 339.344 17.4682 339.381C17.0834 339.423 16.6976 339.339 16.3729 339.158C16.0394 338.977 15.805 338.696 15.5581 338.478C15.3154 338.254 15.0913 338.046 14.8939 337.863C14.9768 337.847 14.7993 337.701 14.8263 337.657C14.8448 337.748 14.5071 337.555 14.58 337.418C14.3898 337.342 14.3985 337.22 14.1038 336.915C14.2295 337.249 13.2527 336.144 13.0595 335.901C12.9869 335.832 12.9823 335.887 12.9559 335.903C12.253 335.136 11.8528 334.692 11.4558 334.272C11.0619 333.849 10.6693 333.452 10.019 332.74C10.2757 332.89 9.85044 332.538 9.62638 332.275C9.68369 332.309 9.72217 332.301 9.74562 332.262C9.2037 331.789 8.45195 330.834 7.99981 329.973C7.93728 329.912 7.90621 329.943 7.81282 329.795C7.8988 329.757 7.68816 329.566 7.38955 329.121C7.08652 328.673 6.76666 328.173 6.47826 327.624C6.19067 327.076 5.92892 326.477 5.78543 325.839C5.74554 325.693 5.73072 325.534 5.70827 325.386C5.68322 325.234 5.69144 325.097 5.68222 324.957C5.68081 324.804 5.69665 324.675 5.70226 324.539C5.71368 324.406 5.71007 324.276 5.73132 324.152C5.771 323.905 5.78363 323.672 5.82231 323.466C5.85938 323.259 5.87661 323.069 5.88724 322.902C5.95718 322.984 6.11191 322.165 6.19187 322.323C6.27184 321.9 6.46604 321.419 6.7861 320.951C6.9328 320.706 7.13061 320.483 7.32281 320.235C7.53645 320.009 7.7515 319.762 8.00422 319.535C8.10663 319.46 8.01224 319.558 8.03809 319.573C8.58262 319.09 9.31894 318.661 10.0098 318.447C10.0959 318.42 10.1803 318.393 10.2629 318.366C10.3463 318.342 10.4308 318.331 10.5114 318.313C10.6725 318.285 10.8261 318.244 10.9619 318.236C11.2369 318.221 11.4467 318.196 11.5993 318.217C11.9833 318.092 12.4949 318.304 12.9338 318.278C13.0304 318.306 12.9988 318.343 13.0086 318.377C13.2244 318.399 13.4713 318.473 13.6619 318.538C13.8493 318.615 13.9806 318.682 13.9656 318.708C14.1652 318.714 14.3053 318.854 14.5219 318.912C14.3227 318.906 14.7608 319.044 14.8574 319.218C14.8277 319.195 15.0416 319.304 15.2795 319.495C15.4031 319.584 15.5304 319.695 15.646 319.803C15.7655 319.906 15.8637 320.016 15.936 320.096C16.1587 320.338 16.3503 320.647 16.518 320.921C16.682 321.199 16.8219 321.444 16.9553 321.581C16.978 321.634 17.0004 321.688 17.0241 321.744L16.6766 321.753C17.0231 321.054 17.4422 320.34 17.9837 319.741C18.5136 319.132 19.1527 318.639 19.8056 318.327C19.8034 318.375 19.8994 318.33 19.9185 318.358C19.9786 318.308 20.1021 318.248 20.2594 318.179C20.4181 318.116 20.6149 318.053 20.8217 318.003C20.9258 317.981 21.032 317.959 21.1368 317.937C21.243 317.919 21.3502 317.909 21.4514 317.895C21.6577 317.862 21.828 317.869 21.9643 317.852C22.0473 317.845 22.013 317.796 22.0379 317.794L22.0028 318.088C21.9613 318.055 21.8386 318.05 21.6625 318.06C21.5743 318.065 21.4737 318.087 21.3629 318.104C21.2516 318.121 21.1324 318.149 21.0079 318.184C20.5051 318.311 19.9325 318.556 19.4573 318.751C19.3491 318.895 19.3517 318.831 19.1316 319.022C19.1397 319.016 19.1771 318.927 19.1711 318.931C18.7945 319.164 18.4637 319.501 18.1681 319.857C17.872 320.216 17.6137 320.6 17.3708 320.977C17.285 321.095 17.1008 321.443 16.9161 321.871L16.8533 322.016L16.7904 321.874C16.5515 321.335 16.1709 320.755 15.9312 320.389C14.877 319.296 13.5144 318.565 12.1069 318.449C11.4081 318.378 10.7008 318.464 10.0575 318.666C9.40833 318.872 8.81269 319.208 8.31446 319.634C8.21766 319.699 8.24251 319.567 8.12246 319.668C7.96875 319.807 8.16535 319.742 8.2357 319.67C8.06414 319.822 7.87355 319.973 7.70561 320.169C7.62043 320.265 7.52442 320.353 7.44386 320.46C7.36249 320.566 7.27972 320.674 7.19594 320.783C7.10776 320.888 7.04363 321.016 6.96507 321.133C6.88992 321.252 6.81035 321.37 6.74962 321.502C6.68409 321.63 6.61815 321.758 6.55222 321.887L6.38848 322.292C6.36944 322.339 6.3498 322.387 6.32996 322.436C6.31432 322.487 6.29829 322.539 6.28205 322.592C6.24979 322.699 6.21652 322.808 6.18265 322.92C6.11551 323.143 6.07964 323.383 6.02352 323.609C5.99025 323.841 5.95839 324.065 5.92492 324.266C5.90889 324.469 5.88824 324.649 5.86179 324.791C5.87361 324.821 5.87902 324.873 5.88864 324.912C5.89967 324.963 5.90929 325.022 5.9173 325.085C5.92432 325.149 5.93153 325.215 5.93895 325.283C5.95037 325.346 5.96019 325.41 5.96821 325.471C5.97643 325.532 5.98263 325.591 5.98744 325.643C5.99646 325.695 6.00328 325.741 6.00689 325.778C6.0143 325.85 6.00969 325.883 5.98865 325.846C6.04236 325.959 6.14698 326.249 6.26542 326.56C6.38307 326.871 6.51814 327.202 6.57666 327.421C6.7855 327.72 7.11017 328.353 7.14665 328.404C7.15947 328.427 7.28553 328.557 7.34686 328.686C7.35989 328.716 7.37512 328.87 7.38554 328.885C7.52443 329.091 7.34906 328.74 7.48755 328.906C7.91283 329.424 8.29121 330.322 8.84456 330.819C9.03375 331.267 9.34239 331.495 9.81877 332.034L9.72277 332.154C9.82959 332.121 9.90996 332.366 10.009 332.339C10.0086 332.28 9.9306 332.263 9.84202 332.141C9.99373 332.159 10.2839 332.65 10.2417 332.729C10.3459 332.841 10.3916 332.838 10.3513 332.76C10.4958 332.966 10.8062 333.355 10.9299 333.362C10.9441 333.537 11.2584 333.618 11.2291 333.809C11.4752 333.907 12.1756 334.71 12.2979 334.926C12.5137 335.045 12.6292 335.232 12.9362 335.483C12.74 335.338 12.8274 335.464 13.0126 335.67C13.025 335.648 12.9505 335.578 12.9072 335.526C13.0102 335.51 13.0541 335.645 13.1469 335.772C13.4561 335.872 14.5456 337.184 15.1087 337.682C15.2761 337.874 15.1576 337.782 15.1149 337.829C15.172 337.865 15.23 337.902 15.3145 337.985C15.2931 337.936 15.2725 337.887 15.2945 337.86C15.5665 338.104 15.8444 338.389 16.117 338.674C16.1543 338.709 16.1918 338.745 16.2296 338.781C16.2661 338.813 16.3 338.838 16.3359 338.868C16.4098 338.922 16.4932 338.979 16.5814 339.022C16.7573 339.112 16.9569 339.173 17.1714 339.189C17.4462 339.216 17.8127 339.135 18.1404 338.906C18.2204 338.845 18.2997 338.781 18.3731 338.706C18.449 338.631 18.5306 338.542 18.6102 338.459C18.7695 338.29 18.9314 338.118 19.0916 337.949C19.7329 337.27 20.3444 336.617 20.7326 336.354C21.4306 335.5 22.4417 334.527 23.4215 333.197C23.3556 333.527 23.769 332.675 23.9398 332.61C23.9763 332.444 24.2751 332.076 24.6416 331.625C25.0058 331.172 25.4359 330.634 25.7483 330.152C26.2424 329.395 26.4283 328.643 26.7707 328.41C26.8133 328.184 26.9394 328.047 27.0681 327.675C27.0336 327.925 27.3517 327.162 27.3701 326.943C27.424 326.825 27.3877 326.957 27.4164 326.958C27.5254 326.632 27.5497 326.515 27.5741 326.411C27.5966 326.307 27.6417 326.223 27.7367 325.943C27.7603 325.988 27.706 326.054 27.6681 326.201C27.7976 326.082 27.7715 325.787 27.8659 325.605C27.818 325.661 27.8322 325.461 27.8725 325.229C27.8996 324.995 27.9505 324.723 27.9846 324.63C27.9822 324.525 27.9417 324.558 27.9136 324.547C27.9204 324.495 27.926 324.439 27.9311 324.379L27.9347 324.334L27.9355 324.323C27.9355 324.323 27.9357 324.313 27.9361 324.323L27.9359 324.317L27.9353 324.293C27.9341 324.261 27.9331 324.228 27.9319 324.195C27.9264 324.061 27.9172 323.918 27.9054 323.766C27.8978 323.613 27.8565 323.465 27.8306 323.307C27.8156 323.229 27.8006 323.15 27.7851 323.07C27.7657 322.99 27.7401 322.911 27.7176 322.831C27.6669 322.674 27.6342 322.508 27.5705 322.356C27.5128 322.201 27.4557 322.048 27.4002 321.898C27.2651 321.612 27.1581 321.329 27.0402 321.095C27.0244 321.06 27.0218 320.92 27.0073 320.895C26.9158 320.738 27.0013 320.996 27.0148 321.004C26.9661 320.978 26.9059 320.879 26.8101 320.758C26.7137 320.638 26.6077 320.475 26.4833 320.311C26.3492 320.156 26.2213 319.976 26.0786 319.832C25.9345 319.69 25.8059 319.549 25.6906 319.459C25.3641 319.202 24.9775 318.941 24.5729 318.761C24.4727 318.714 24.3733 318.668 24.2757 318.622C24.1749 318.585 24.0759 318.549 23.9795 318.514C23.7895 318.434 23.6025 318.387 23.4357 318.335C23.57 318.262 23.2357 318.227 23.2059 318.173C23.0413 318.147 23.2203 318.245 23.2806 318.27C23.3023 318.298 22.791 318.197 23.0429 318.178C22.8682 318.186 22.7451 318.175 22.6056 318.167C22.4655 318.167 22.3102 318.156 22.0743 318.143C22.1206 318.12 22.1671 318.097 22.0673 318.09C22.0585 318.05 22.5501 318.06 22.1429 318.038C22.1575 318.005 22.3858 318.008 22.3896 318.043C22.5435 317.987 22.1655 317.972 22.0491 317.958ZM14.1928 336.932C14.0445 336.751 13.8974 336.602 13.7523 336.53C13.8429 336.707 14.3772 337.07 14.1928 336.932Z" fill="#D1465D"/>
<path d="M10.3501 332.761C10.3377 332.737 10.3177 332.706 10.2876 332.668C10.3006 332.69 10.3237 332.723 10.3501 332.761Z" fill="#D1465D"/>
</svg>
