<svg width="186" height="178" viewBox="0 0 186 156" fill="none" xmlns="http://www.w3.org/2000/svg">
<path d="M183.468 155.223H2.59719C1.56839 155.223 0.734375 154.407 0.734375 153.4V60.8141C0.734375 59.8069 1.56839 58.9905 2.59719 58.9905H183.468C184.497 58.9905 185.331 59.8069 185.331 60.8141V153.4C185.331 154.407 184.497 155.223 183.468 155.223Z" fill="#E0536B"/>
<path d="M183.468 154.89C184.03 154.874 184.464 154.565 184.688 154.216C184.924 153.855 184.93 153.512 184.901 153.098C184.878 152.272 184.858 151.635 184.842 151.068C184.825 149.932 184.868 149.069 185.051 147.515C184.838 142.245 184.809 136.155 185.188 132.708C184.988 130.085 184.975 127.296 185.15 125.998C184.665 124.445 185.125 121.605 184.794 121.369C185.622 116.402 184.182 106.136 184.916 103.876C184.527 98.3873 184.599 92.1635 185.045 87.7239C184.825 87.6174 184.613 85.2458 185.018 83.0274C184.542 81.8197 184.58 75.3362 184.942 69.6075C184.739 69.7194 184.476 64.0283 184.783 60.8868L184.784 60.9056C184.784 60.9003 184.783 60.8922 184.783 60.8842C184.849 60.4562 184.748 60.1205 184.625 59.8394C184.401 59.6004 184.246 59.5601 184.215 59.5672C184.181 59.5789 184.25 59.6505 184.351 59.7668C184.569 60.0068 184.779 60.4562 184.783 60.8842V60.8868C184.774 60.1581 184.147 59.5761 183.405 59.6361C182.355 59.6621 181.296 59.6765 180.294 59.672C178.29 59.663 176.511 59.5797 175.471 59.3702C174.107 59.6872 167.959 59.6916 165.876 59.4213C165.852 59.6236 165.039 59.6648 163.136 59.4365C162.334 59.458 162.6 59.6353 162.519 59.7624C156.334 59.8116 155.575 59.3927 149.45 59.6183C154.217 59.0444 141.025 59.6943 143.872 59.2181C139.47 59.3541 139.767 59.8492 136.306 59.1518C136.683 59.7893 129.966 59.0077 125.411 59.5332C126.896 59.3702 124.49 59.2762 126.026 59.2073C125.373 59.0909 124.744 59.1804 122.576 59.1187C123.056 59.2601 124.083 59.3103 125.364 59.3183C123.992 59.3219 118.346 59.5887 117.802 59.2512C116.928 59.8098 112.301 59.4096 109.647 59.6173C92.9559 59.2628 84.5554 58.8456 68.4247 59.4096C55.953 59.0945 42.6773 59.1017 34.0821 59.2727C34.5174 58.9763 32.6728 59.0641 32.6198 58.851C33.195 59.0695 30.1196 59.4929 29.8763 58.8662C28.3107 59.2073 27.7437 58.8098 24.3675 58.7884C26.8512 59.3971 15.1832 59.065 12.7388 58.9585C11.9405 58.9799 12.2029 59.1581 12.1243 59.2843C10.0612 59.2655 8.21759 59.2485 6.54133 59.2333C5.70275 59.2279 4.90623 59.2225 4.14446 59.2181C3.76403 59.2163 3.39184 59.2145 3.02787 59.2127C2.64927 59.2136 2.33286 59.1903 2.04662 59.3049C1.46318 59.5001 1.04618 60.0346 0.976674 60.5762C0.936437 61.1581 0.967531 61.8072 0.961129 62.3927C0.970274 63.586 0.979418 64.7194 0.988563 65.843C1.0416 70.3372 1.16049 74.68 1.33424 82.1554C0.894369 79.9191 1.33058 84.1858 1.36076 86.8546C1.26016 86.3532 1.10928 86.1841 0.918148 86.2754C1.42843 91.8475 1.45404 101.14 0.932778 108.442C1.00868 109.109 1.18883 109.081 1.16323 110.411C0.76634 110.215 1.0288 112.383 1.08733 116.473C1.20712 124.741 1.4641 134.483 1.35161 143.962C1.30955 146.18 1.2684 148.336 1.22907 150.397C1.2053 151.427 1.18243 152.432 1.15957 153.409C1.12757 154.183 1.80977 154.869 2.60629 154.865C6.31729 154.92 9.56738 154.891 11.988 154.613C11.5719 155.007 17.7639 154.625 16.9043 155.124C23.3432 154.399 32.2449 154.988 42.8813 154.661C43.8854 154.703 42.831 154.755 42.9288 154.876C54.4505 154.77 69.8513 154.609 74.4823 154.813C77.5769 154.357 81.8851 154.958 85.3794 154.432C86.1869 154.445 86.0012 154.625 86.1366 154.75C89.6546 154.539 94.431 154.458 94.3605 154.706C95.8694 154.351 97.3317 154.633 99.0884 154.358C97.6554 154.756 101.239 154.342 102.585 154.661C101.997 154.6 110.191 154.384 113.507 154.387C118.562 154.393 124.429 154.862 127.215 154.313C139.244 154.83 153.088 154.254 164.94 154.217C164.783 154.392 165.628 154.399 165.695 154.536C168.071 154.187 178.343 154.493 182.832 154.443C183.527 154.435 183.263 154.228 183.471 154.224L183.044 155.409C181.721 154.83 169.392 155.714 161.017 155.097C159.705 155.365 159.958 155.211 157.636 155.331C157.718 155.329 158.335 155.113 158.275 155.112C151.116 155.056 143.517 155.719 136.411 155.553C133.77 155.491 121.116 155.659 115.068 155.238C90.859 156.11 66.0443 155.315 44.5127 155.833C43.5488 155.772 44.3198 155.42 43.0477 155.411C41.3724 155.431 42.9819 155.766 43.8049 155.729C36.2951 155.77 26.9372 155.82 17.7575 155.869C14.5651 155.877 10.6657 155.899 7.0187 155.868C6.10695 155.856 5.21075 155.845 4.34473 155.833C3.91218 155.824 3.48694 155.815 3.07085 155.806C2.85046 155.797 2.68677 155.804 2.42614 155.782C2.15819 155.757 1.8811 155.684 1.65522 155.584C0.700499 155.171 0.203017 154.176 0.272518 153.363C0.310926 152.694 0.355735 152.085 0.407861 151.549C-0.0201195 149.596 0.265204 142.219 0.471878 143.472C0.213993 141.599 0.134429 134.045 0.509369 130.7C0.246911 127.923 0.344761 122.476 0.350248 122C0.352992 121.802 0.167353 120.42 0.22588 119.339C0.239597 119.092 0.549607 118.069 0.546863 117.928C0.514856 116.019 0.339276 118.991 0.213991 117.326C-0.175581 112.121 0.730677 104.932 0.112483 99.2091C0.644715 95.6505 0.168267 92.7355 0.0448115 87.1303L0.702328 86.9907C0.242341 86.5905 0.655689 84.7955 0.248742 84.3998C0.0868775 84.7266 0.296295 85.2476 0.259715 86.4114C-0.209417 85.4786 0.196615 81.1661 0.558752 80.9746C0.52766 79.7874 0.367624 79.5484 0.282577 80.193C0.380427 78.2673 0.459073 74.4213 0.0786464 73.6836C0.534976 72.6648 -0.269773 70.4436 0.385001 69.5914C0.119799 68.6272 0.0100594 66.0712 0 63.5269C0.00365795 62.8913 0.00640287 62.2556 0.0100608 61.646C0.0173767 61.3291 0.0246915 61.0193 0.031093 60.7194C0.0338364 60.62 0.0740737 60.3085 0.129857 60.1554C0.182898 59.971 0.26246 59.7991 0.35208 59.6389C0.722448 58.9979 1.3315 58.6272 1.86373 58.4938C2.1335 58.4266 2.38407 58.4159 2.59989 58.4258C2.7645 58.4437 2.90625 58.4589 3.02513 58.4714C4.95104 58.1393 6.6337 58.3309 9.80972 58.1133C7.86186 58.295 9.05343 58.3909 11.2528 58.4276C11.2107 58.3228 10.3959 58.3488 9.85727 58.3273C10.3986 57.9647 11.3726 58.2252 12.6007 58.313C15.0068 57.638 28.4799 58.2288 34.5082 58.0874C36.5228 58.1697 35.3175 58.244 35.2892 58.5126C35.8278 58.4535 36.3774 58.3944 37.3212 58.3944C36.9417 58.3094 36.5676 58.2243 36.5676 58.0757C42.5036 57.9459 48.841 58.2736 56.5382 58.398C66.4513 58.5582 87.5549 57.6183 94.9952 58.5135C103.722 58.2226 114.899 58.6406 127.898 58.3363C125.652 58.9969 132.805 58.1008 134.113 58.518C136.432 57.8967 149.18 58.6961 158.175 58.7104C165.225 58.723 170.968 57.8707 173.963 58.7328C175.64 58.4437 177.06 58.6559 180.086 58.4849C179.171 58.638 180.309 58.6881 181.877 58.6702C182.268 58.6621 182.688 58.654 183.109 58.6451C183.313 58.6415 183.53 58.6218 183.778 58.6469C184.049 58.6755 184.276 58.7382 184.5 58.8411C185.414 59.2395 185.802 60.1375 185.876 60.6317C185.872 61.2073 185.835 61.1375 185.805 61.0327C185.775 60.9235 185.722 60.655 185.66 60.7024C185.789 65.9289 185.938 64.2799 185.712 68.7758C185.547 68.5135 185.75 67.9065 185.7 66.7597C185.309 67.9289 185.733 69.9835 185.507 71.5027C185.844 70.5027 185.906 77.4589 185.548 78.885C185.571 79.6657 185.751 79.4096 185.881 79.4857C185.485 85.9584 186.309 98.9844 185.817 107.047C185.798 107.348 185.495 108.238 185.495 108.457C185.495 109.856 185.745 107.855 185.711 107.741C186.165 109.271 185.771 119.134 185.801 123.844C185.844 130.526 186.088 138.859 185.918 144.646C185.484 143.679 185.701 146.438 185.491 146.753C185.466 148.121 185.808 146.548 185.816 146.012C185.977 145.799 185.819 150.127 185.607 148.072C185.733 149.493 185.784 150.522 185.798 151.684C185.8 152.276 185.815 152.855 185.784 153.619C185.726 154.103 185.539 154.537 185.177 154.921C184.823 155.296 184.294 155.585 183.678 155.632C183.917 155.56 184.127 155.448 184.158 155.393C184.189 155.327 184.066 155.391 183.603 155.42C183.583 155.381 183.854 155.347 184.166 155.206C184.482 155.075 184.809 154.801 184.978 154.554C185.153 154.308 185.205 154.12 185.158 154.204C185.095 154.254 184.976 154.701 184.202 155.061C184.233 154.978 184.661 154.741 184.909 154.353C185.177 153.976 185.234 153.532 185.303 153.509C185.252 153.201 185.196 153.157 185.16 153.285C185.143 153.351 185.124 153.436 185.102 153.578C185.07 153.683 185.038 153.822 184.966 153.965C184.838 154.251 184.583 154.54 184.281 154.7C183.981 154.867 183.662 154.902 183.468 154.89ZM25.0058 58.569C23.1603 58.4705 21.4896 58.4759 20.2303 58.7024C21.6953 58.9495 26.8475 58.4249 25.0058 58.569Z" fill="#ED5F70"/>
<path d="M0.280132 80.1931C0.253897 80.3937 0.233089 80.6703 0.227661 81.0445C0.240326 80.852 0.25842 80.5432 0.280132 80.1931Z" fill="#ED5F70"/>
<path d="M185.331 59.4281L97.0172 1.40043C94.6075 -0.18328 91.4589 -0.18328 89.0483 1.40043L0.734375 59.4281" fill="#D84867"/>
<path d="M0.545044 59.1517C2.25056 57.8992 2.25605 57.6691 3.4961 57.2842C5.13486 55.9565 7.14856 54.5984 8.50932 54.1508C9.27292 53.414 10.1956 52.7927 10.7251 52.6494C10.972 51.9153 12.1764 51.6664 12.0703 51.3468C14.1874 50.9314 16.8092 47.5115 17.9706 47.6127C19.5847 46.0944 21.6999 44.79 23.4283 44.1785C23.3414 43.9771 24.0145 43.2851 24.9793 43.1284C25.1164 42.4767 27.2993 41.0872 29.4118 40.1266C29.2609 39.986 31.0121 38.525 32.2302 38.0863L32.2247 38.0908L32.2311 38.0854C32.4424 38.0093 32.639 37.961 32.8054 37.9592C33.3221 37.6074 32.5466 37.7828 32.2311 38.0854L32.2302 38.0863C33.3962 37.1069 34.992 35.9565 35.9083 35.858C36.1735 35.302 38.1781 33.9797 39.0112 33.7577C38.9042 33.584 39.1465 33.3764 39.8973 33.1579C40.147 32.9681 39.9586 32.8777 39.9129 32.755C41.9037 31.388 42.3893 31.5725 44.2612 30.072C43.0322 31.5707 46.9681 28.2018 46.3106 29.2081C47.6695 28.1508 47.2909 27.8034 48.8181 27.6405C48.3325 27.192 50.9699 26.3996 52.1578 24.9869C51.7655 25.4408 52.605 25.0031 52.1423 25.3889C52.4212 25.345 52.5758 25.1364 53.3192 24.7228C53.0815 24.7085 52.7184 24.8867 52.295 25.1553C52.7413 24.858 54.4322 23.4256 54.8016 23.5886C54.7687 22.9377 56.5072 22.277 57.2552 21.5357C62.9058 18.2501 65.8852 16.7954 70.829 12.867C75.0795 10.4534 79.4087 7.60016 82.1174 5.61538C82.1439 5.95468 82.6963 5.48648 82.8353 5.6521C82.5234 5.59391 83.2861 4.5823 83.7223 5.05142C84.0396 4.4328 84.4503 4.64049 85.565 3.93503C84.4091 3.96547 88.4018 1.72733 89.2678 1.30745C89.522 1.1284 89.3446 1.02724 89.3053 0.901902C90.8014 0.114077 92.1695 -0.0363258 93.2897 0.00664644C94.4228 0.0478282 95.3464 0.316396 96.2051 0.669127C97.0775 1.05767 97.7917 1.55362 98.6952 2.05944C99.5896 2.57511 100.614 3.16689 101.909 3.91443C100.917 3.78282 102.584 4.36203 103.49 4.92246C103.267 4.89471 103.126 4.97977 103.05 5.15524C105.192 5.96186 108.306 7.9762 110.449 9.99947C110.713 10.0845 110.805 9.93141 111.234 10.243C110.948 10.5232 111.816 10.7846 113.213 11.6333C116.036 13.3477 119.428 15.2725 122.526 17.4408C125.428 19.4713 127.797 21.5617 129.7 22.1409C129.34 22.3791 131.578 23.3898 131.014 23.6199C133.529 24.3987 136.1 26.7971 139.757 28.807C140.06 29.0577 139.686 28.875 139.65 28.9959C143.47 31.3791 148.59 34.5491 149.985 35.7112C151.255 35.9959 152.319 37.4193 153.759 37.7318C154.015 37.9162 153.853 38.0245 153.825 38.1588C155.094 38.7389 156.698 39.6951 156.535 39.8858C157.23 39.9144 157.545 40.4632 158.276 40.6109C157.582 40.6342 158.987 41.0594 159.244 41.6136C159.087 41.4372 161.885 43.0138 162.965 43.7291C164.612 44.8177 166.26 46.4659 167.482 46.6073C171.114 49.6172 175.961 52.1078 179.851 54.619C179.701 54.73 179.972 54.9171 179.916 55.046C180.889 55.2663 184.068 57.7228 185.562 58.6441C185.794 58.7864 185.826 58.5581 185.895 58.6002L185.081 59.4919C184.979 58.7273 180.451 56.8177 178.068 54.5089C177.488 54.4498 177.658 54.3764 176.832 53.9771C176.86 53.9932 177.184 53.9467 177.165 53.9323C174.859 52.3504 172.002 51.2708 169.777 49.6092C168.95 48.9914 164.723 46.4176 162.989 44.7694C154.591 40.3012 146.943 34.3191 139.619 30.1311C139.34 29.8741 139.791 29.747 139.382 29.4659C138.823 29.1239 139.158 29.747 139.448 29.8929C136.974 28.3164 133.889 26.3495 130.865 24.422C128.772 23.0657 125.724 21.1508 124.53 19.8706C123.64 19.79 121.339 17.9421 121.872 18.0487C121.104 17.8481 118.541 16.2573 117.634 15.2197C116.562 14.8249 114.8 13.5519 114.645 13.4426C114.58 13.397 114.017 13.2457 113.688 12.961C113.613 12.8956 113.445 12.4194 113.397 12.3907C112.743 11.9986 113.635 12.7927 113.011 12.5295C111.058 11.7058 109.166 9.39337 106.913 8.64315C106.023 7.43097 104.786 7.17942 102.848 6.0523L103.168 5.48741C102.778 5.77299 102.41 5.04424 102.051 5.28774C102.071 5.49097 102.361 5.43544 102.728 5.72013C102.156 5.89649 100.944 4.62166 101.082 4.28594C100.669 4.05138 100.5 4.12837 100.668 4.33965C100.081 3.83741 98.8416 2.93145 98.3834 3.07917C98.2974 2.48561 97.1086 2.65211 97.19 1.93322C97.0729 1.93411 96.9275 1.90547 96.7629 1.85355C96.6312 1.82579 96.4182 1.74344 96.2261 1.66197C95.8676 1.54828 95.4497 1.36833 95.0044 1.24478C94.1338 0.96367 93.2202 0.853518 92.8745 0.73803C92.2124 1.1024 91.5723 0.962754 90.6157 1.56974C91.1809 1.17135 90.7566 1.18208 90.0195 1.49542C90.0808 1.57958 90.3268 1.42561 90.5161 1.37816C90.4868 1.78282 90.0808 1.67268 89.6564 1.82666C89.2916 2.85531 84.5307 5.28954 82.6515 6.68882C81.9464 7.0523 82.2985 6.73266 82.154 6.50348C82.0122 6.6682 81.8659 6.83473 81.5577 7.03706C81.7297 7.02631 81.9007 7.01735 81.9848 7.14C80.1211 8.52048 77.8659 9.60824 75.2825 11.1561C71.9556 13.1499 65.6017 18.4561 62.6635 19.3083C59.9804 21.422 56.0938 23.4722 52.0243 26.5133C52.3819 25.4829 50.5566 27.7604 49.8917 27.6951C49.4885 28.7085 44.8721 30.7792 41.9275 32.696C39.6193 34.1973 38.2293 36.1364 36.7615 36.063C36.3783 36.6628 35.794 36.7918 34.9042 37.5823C35.3276 36.9359 33.3048 38.3916 32.9097 38.9323C32.5558 39.1141 32.8704 38.8437 32.7716 38.764C31.1054 39.9977 31.7355 39.7694 30.1105 40.5662C30.1059 40.3746 30.4214 40.4068 30.7762 40.1149C30.169 40.0541 29.72 40.8491 29.0871 40.9977C29.6084 41.0532 27.324 42.627 26.6491 42.6485C26.4013 42.8374 26.5878 42.9287 26.6345 43.0505C24.2559 44.1472 20.3711 47.67 17.4082 49.0362C17.2976 49.0863 16.8321 49.0362 16.7589 49.0836C16.2925 49.3898 17.0991 49.1552 17.1174 49.1024C16.8604 49.8079 13.3525 51.6476 11.7987 52.704C9.59482 54.2036 6.95195 56.2269 4.92727 57.3567C5.00775 56.7918 4.20848 57.5724 3.98718 57.4713C3.51622 57.7497 4.23134 57.6835 4.41516 57.5733C4.57611 57.6575 3.04434 58.4767 3.61224 57.8554C2.80383 58.6808 2.35573 58.9251 1.02241 59.7407C1.09557 59.5742 1.16689 59.4086 0.883404 59.5724C0.772751 59.4534 2.10059 58.559 0.967539 59.2537C0.930045 59.1131 1.53909 58.696 1.63237 58.8034C1.91312 58.3271 0.88249 58.9843 0.545044 59.1517ZM85.4827 4.25102C86.1411 3.93679 86.6834 3.5742 86.9651 3.11583C86.3469 3.22505 84.9633 4.76579 85.4827 4.25102Z" fill="#D84867"/>
<path d="M100.672 4.33691C100.724 4.40227 100.805 4.48014 100.927 4.56608C100.873 4.51058 100.779 4.42823 100.672 4.33691Z" fill="#D84867"/>
<path d="M162.633 138.955H17.6009C15.461 138.955 13.7262 137.256 13.7262 135.162V38.7981C13.7262 36.7032 15.461 35.0049 17.6009 35.0049H162.633C164.773 35.0049 166.508 36.7032 166.508 38.7981V135.162C166.508 137.256 164.773 138.955 162.633 138.955Z" fill="#FFFEFE"/>
<path d="M165.96 54.439V54.4417L165.961 54.459L165.96 54.439Z" fill="#FFFEFE"/>
<path d="M166.172 53.1981C166.162 51.7729 165.879 53.4569 165.96 54.4398C166.013 53.9448 166.082 53.5132 166.172 53.1981Z" fill="#FFFEFE"/>
<path d="M33.6254 34.7165C34.9569 34.9636 39.639 34.439 37.9646 34.5831C36.2884 34.4846 34.7694 34.49 33.6254 34.7165Z" fill="#FFFEFE"/>
<path d="M162.633 138.622C163.767 138.576 164.535 138.08 165.001 137.607C165.475 137.124 165.695 136.645 165.838 136.222C166.106 135.438 166.01 134.564 166.228 133.169C166.015 128.379 165.986 122.846 166.364 119.711C166.165 117.328 166.152 114.793 166.326 113.614C165.841 112.204 166.301 109.622 165.97 109.408C166.798 104.894 165.358 95.5636 166.092 93.5099C165.703 88.5215 165.775 82.8653 166.221 78.8313C166.001 78.7346 165.789 76.5797 166.194 74.5635C165.718 73.466 165.756 67.5743 166.118 62.3675C165.915 62.4696 165.652 57.2977 165.959 54.4427L165.96 54.4597L165.959 54.44C166.012 53.9459 166.081 53.5134 166.171 53.1983C166.161 51.773 165.878 53.457 165.959 54.44V54.4427C165.778 50.9915 165.692 46.5099 166.119 44.6603C165.957 44.0533 165.875 42.3827 165.868 40.6316C165.87 40.1938 165.873 39.7516 165.876 39.3192C165.882 38.8608 165.903 38.5116 165.85 38.184C165.748 37.5188 165.47 36.9718 165.245 36.6218C165.153 36.6844 165.015 36.5887 164.754 36.3783C164.489 36.1733 164.105 35.8196 163.387 35.5367C162.789 35.4526 162.959 35.6782 162.894 35.7919C157.354 35.8133 156.606 35.4149 151.057 35.6334C155.389 35.0595 143.4 35.7095 145.987 35.2332C141.987 35.3693 142.257 35.8644 139.111 35.167C139.454 35.8044 133.348 35.0229 129.21 35.5484C130.559 35.3854 128.373 35.2914 129.767 35.2225C129.174 35.1061 128.603 35.1956 126.632 35.1339C127.069 35.2753 128.002 35.3255 129.167 35.3335C127.919 35.3362 122.788 35.6039 122.293 35.2664C121.499 35.825 117.295 35.4248 114.882 35.6325C99.7136 35.278 92.0795 34.8608 77.4202 35.4248C66.086 35.1097 54.0212 35.1168 46.2096 35.2878C46.6056 34.9915 44.9294 35.0792 44.8809 34.8662C45.4031 35.0846 42.6084 35.5081 42.388 34.8814C40.965 35.2225 40.4502 34.825 37.3812 34.8035C39.6381 35.4123 29.0346 35.0801 26.8133 34.9736C26.0882 34.9951 26.3259 35.1732 26.2555 35.2995C24.3808 35.2807 22.7055 35.2637 21.1819 35.2484C20.4202 35.2431 19.6959 35.2377 19.0036 35.2332C18.3196 35.2422 17.6291 35.1929 17.053 35.269C15.8587 35.4311 14.9095 36.1786 14.4083 37.0667C14.1523 37.5116 14.0151 38.0085 13.9767 38.4821C13.9483 38.979 13.9776 39.509 13.9767 40.0139C14.0297 44.098 14.1486 48.0452 14.3223 54.8375C13.8816 52.8053 14.3187 56.6826 14.3489 59.1079C14.2483 58.6522 14.0974 58.4982 13.9063 58.5815C14.4165 63.645 14.4421 72.0909 13.9209 78.7256C13.9959 79.3317 14.1769 79.3066 14.1513 80.5143C13.7545 80.3371 14.0169 82.3075 14.0754 86.0237C14.1952 93.5367 14.4522 102.391 14.3397 111.005C14.2346 119.072 13.7828 126.217 14.3507 130.54C13.9483 130.171 14.3388 135.678 13.8285 134.914C13.9191 136.326 14.8125 137.712 16.2693 138.259C16.6461 138.393 16.9844 138.462 17.4051 138.48C17.8056 138.493 18.2976 138.473 18.7521 138.474C19.6822 138.473 20.6424 138.473 21.6328 138.472C25.5952 138.488 30.0342 138.554 34.8663 138.391C35.779 138.433 34.8206 138.485 34.9093 138.606C45.3802 138.5 59.3755 138.339 63.5849 138.543C66.3979 138.086 70.3119 138.688 73.4879 138.162C74.2222 138.175 74.0531 138.354 74.1765 138.479C77.3736 138.269 81.7137 138.188 81.6506 138.436C83.0215 138.08 84.3502 138.363 85.9469 138.087C84.6447 138.486 87.9012 138.072 89.1247 138.391C88.5907 138.33 96.0374 138.113 99.0497 138.117C103.644 138.122 108.976 138.591 111.508 138.043C122.439 138.56 135.021 137.983 145.791 137.947C145.649 138.121 146.417 138.128 146.477 138.265C148.636 137.916 157.97 138.222 162.05 138.172C162.682 138.164 162.441 137.957 162.63 137.954L162.243 139.138C161.04 138.559 149.837 139.444 142.225 138.827C141.033 139.094 141.262 138.94 139.152 139.06C139.227 139.059 139.787 138.843 139.733 138.842C133.226 138.786 126.322 139.449 119.863 139.282C117.462 139.221 105.963 139.389 100.467 138.967C78.4664 139.839 55.9151 139.044 36.3478 139.563C35.4717 139.502 36.1731 139.15 35.0163 139.14C33.4937 139.161 34.9569 139.496 35.7049 139.459C32.293 139.479 28.4603 139.503 24.4384 139.527C22.4275 139.541 20.3689 139.555 18.2921 139.57C18.0178 139.569 17.8047 139.578 17.4801 139.57C17.2487 139.567 16.9058 139.534 16.5976 139.467C16.0041 139.339 15.4371 139.088 14.9442 138.74C13.9538 138.046 13.2679 136.941 13.1097 135.753C13.0722 135.551 13.0759 135.332 13.064 135.13C13.0631 134.948 13.0631 134.763 13.0622 134.577C13.0604 134.204 13.0594 133.823 13.0576 133.436C13.0558 132.66 13.053 131.859 13.0512 131.045C13.0567 129.418 13.0613 127.739 13.0668 126.116C13.0988 122.871 13.1847 119.849 13.3951 117.902C12.9671 116.127 13.2524 109.423 13.4591 110.562C13.2012 108.86 13.1216 101.995 13.4975 98.9548C13.235 96.4311 13.3329 91.4812 13.3384 91.0479C13.3411 90.868 13.1555 89.6128 13.214 88.6298C13.2277 88.4051 13.5377 87.4749 13.5359 87.3478C13.5039 85.6137 13.3274 88.3138 13.203 86.8008C12.8134 82.0712 13.7197 75.5376 13.1015 70.3371C13.6337 67.1034 13.1573 64.4543 13.0338 59.3603L13.6914 59.2341C13.2323 58.8706 13.6447 57.2395 13.2378 56.8796C13.0759 57.1759 13.2853 57.6504 13.2487 58.7077C12.7796 57.8599 13.1856 53.9405 13.5478 53.7668C13.5167 52.688 13.3567 52.4705 13.2716 53.0569C13.3695 51.3067 13.4481 47.8125 13.0677 47.1419C13.524 46.2153 12.7193 44.1974 13.374 43.423C13.2414 42.9843 13.1472 42.1849 13.086 41.2055C13.0549 40.7158 13.032 40.1813 13.0165 39.6244C13.011 39.3344 13.0055 39.0381 13 38.74C13.0082 38.5887 13.0027 38.4714 13.0247 38.2905C13.0512 38.1115 13.0695 37.9119 13.118 37.7534C13.4262 36.3917 14.465 35.2896 15.5267 34.8268C16.5711 34.3236 17.6282 34.423 17.9858 34.4892C19.7352 34.1571 21.2651 34.3487 24.1513 34.1312C22.3808 34.3129 23.4636 34.4096 25.4626 34.4454C25.4242 34.3407 24.6844 34.3666 24.1943 34.3451C24.6862 33.9826 25.5715 34.243 26.6871 34.3308C28.8737 33.6558 41.1178 34.2467 46.5965 34.1052C48.4273 34.1876 47.3317 34.2619 47.3061 34.5304C47.7954 34.4714 48.2956 34.4122 49.1525 34.4122C48.8077 34.3272 48.4675 34.2422 48.4675 34.0936C53.8621 33.9638 59.6215 34.2914 66.6164 34.4159C75.6251 34.5761 94.8037 33.637 101.565 34.5314C109.495 34.2404 119.652 34.6584 131.466 34.3541C129.424 35.0148 135.926 34.1186 137.114 34.5358C139.222 33.9145 150.807 34.714 158.982 34.7283C159.783 34.7301 160.565 34.7176 161.325 34.6979C162.099 34.705 162.784 34.5716 163.627 34.7346C165.203 35.0193 166.435 36.1849 166.9 37.4884C167.147 38.1348 167.157 38.8599 167.159 39.3559C167.166 39.8957 167.163 40.4051 167.142 40.8805C167.1 41.8322 166.989 42.6513 166.768 43.3174C167.064 44.8098 166.847 46.073 167.022 48.765C166.71 47.1365 166.817 52.8124 167.056 54.252C167.013 55.1508 166.959 54.2126 166.836 54.2941C166.954 59.0139 167.111 57.5367 166.882 61.6164C166.717 61.3783 166.92 60.8268 166.87 59.7838C166.479 60.8465 166.904 62.7131 166.677 64.0936C167.014 63.1849 167.077 69.5063 166.718 70.8026C166.74 71.5125 166.921 71.2798 167.051 71.3487C166.655 77.2306 167.479 89.0685 166.987 96.3962C166.968 96.6692 166.665 97.4785 166.665 97.6773C166.665 98.9486 166.916 97.1311 166.881 97.0264C167.336 98.4167 166.941 107.38 166.971 111.66C167.014 117.733 167.259 125.306 167.089 130.564C166.653 129.685 166.871 132.193 166.661 132.479C166.636 133.722 166.978 132.292 166.987 131.805C167.148 131.612 166.99 135.545 166.779 133.677C166.835 134.332 166.898 134.859 166.903 135.427C166.897 136.002 166.757 136.578 166.49 137.1C166.223 137.629 165.818 138.138 165.217 138.566C164.625 138.991 163.812 139.345 162.8 139.368C162.999 139.316 163.185 139.242 163.219 139.194C163.254 139.144 163.144 139.154 162.744 139.156C162.717 139.095 163.663 138.977 164.147 138.71C164.388 138.583 164.539 138.497 164.457 138.526C164.371 138.539 164.075 138.752 163.313 138.881C163.359 138.812 163.787 138.681 164.18 138.503C164.577 138.334 164.928 138.094 164.989 138.137C165.336 137.675 164.998 137.94 164.444 138.223C163.888 138.521 163.03 138.665 162.633 138.622ZM37.9646 34.5833C36.2884 34.4848 34.7694 34.4902 33.6254 34.7167C34.9569 34.9637 39.6381 34.4391 37.9646 34.5833Z" fill="#FFFEFE"/>
<path d="M13.272 53.0549C13.2457 53.2376 13.2249 53.4882 13.2195 53.8284C13.2321 53.653 13.2511 53.3727 13.272 53.0549Z" fill="#FFFEFE"/>
<path d="M184.665 59.4282L97.0172 117.019C94.6075 118.603 91.4589 118.603 89.0483 117.019L1.40012 59.4282C0.996834 59.763 0.734375 60.2564 0.734375 60.8141V153.4C0.734375 154.407 1.56839 155.223 2.59719 155.223H183.468C184.497 155.223 185.331 154.407 185.331 153.4V60.8141C185.331 60.2555 185.07 59.7622 184.665 59.4282Z" fill="#ED5F70"/>
<path d="M184.886 59.1732C185.213 59.4364 185.448 59.773 185.578 60.1266C185.643 60.3066 185.682 60.4758 185.7 60.6692C185.713 60.8285 185.712 60.9834 185.717 61.1168C185.734 61.6727 185.748 62.1624 185.762 62.602C185.786 63.4812 185.805 64.1588 185.821 64.7622C185.838 65.9708 185.795 66.8884 185.612 68.542C185.825 74.1499 185.854 80.6306 185.476 84.2994C185.675 87.0899 185.688 90.0586 185.513 91.44C185.998 93.0917 185.538 96.115 185.869 96.3647C185.041 101.65 186.481 112.576 185.747 114.98C186.136 120.82 186.064 127.444 185.618 132.168C185.838 132.281 186.05 134.804 185.645 137.165C186.121 138.45 186.083 145.349 185.72 151.446C185.771 151.417 185.825 151.772 185.873 152.376C185.896 152.684 185.923 153.025 185.937 153.464C185.951 154.003 185.743 154.624 185.293 155.102C184.859 155.584 184.14 155.906 183.442 155.895C182.915 155.893 182.378 155.892 181.849 155.89C180.791 155.875 179.764 155.835 178.91 155.76L178.931 155.759C178.924 155.759 178.916 155.76 178.907 155.76C178.315 155.708 177.799 155.64 177.422 155.552C175.717 155.562 177.731 155.839 178.907 155.76H178.91C174.782 155.937 169.421 156.022 167.209 155.603C165.757 155.92 159.214 155.924 156.998 155.655C156.972 155.857 156.108 155.897 154.082 155.67C153.23 155.692 153.512 155.869 153.426 155.996C146.844 156.045 146.037 155.626 139.518 155.852C144.591 155.278 130.552 155.928 133.582 155.452C128.899 155.588 129.214 156.083 125.531 155.385C125.932 156.023 118.784 155.241 113.937 155.767C115.517 155.604 112.958 155.51 114.591 155.441C113.896 155.324 113.227 155.414 110.92 155.352C111.431 155.494 112.524 155.544 113.887 155.552C112.425 155.555 106.418 155.822 105.838 155.485C104.909 156.043 99.9847 155.643 97.1608 155.851C79.3987 155.495 70.4595 155.079 53.2946 155.643C40.0226 155.328 25.8956 155.335 16.7489 155.506C17.2126 155.21 15.2492 155.298 15.1934 155.085C15.8052 155.303 12.5322 155.726 12.2743 155.1C10.6081 155.441 10.0055 155.043 6.41154 155.022C7.07272 155.174 6.79197 155.267 5.95887 155.32C5.54278 155.347 4.98768 155.363 4.34388 155.371C4.02198 155.373 3.67722 155.376 3.316 155.378C2.95478 155.366 2.58715 155.411 2.161 155.327C1.33339 155.159 0.637462 154.385 0.617343 153.525C0.63289 152.732 0.647521 151.947 0.662153 151.215C0.708792 149.759 0.748116 148.521 0.768235 147.884C0.746287 147.052 0.564305 147.325 0.435362 147.244C0.611859 130.053 0.48383 127.475 0.137239 111.566C0.577108 113.946 0.140896 109.406 0.110718 106.565C0.211311 107.099 0.362201 107.279 0.553329 107.181C0.0430449 101.252 0.0174404 91.3629 0.538699 83.593C0.462796 82.884 0.282643 82.9127 0.308249 81.4982C0.705136 81.7059 0.442679 79.3988 0.384151 75.047C0.345743 72.6038 0.305504 70.038 0.263437 67.3898C0.242404 66.0657 0.221371 64.7201 0.199423 63.3594C0.189364 62.679 0.180219 61.9941 0.17016 61.3066L0.163759 60.7828C0.165588 60.5572 0.197594 60.3289 0.266181 60.1114C0.399696 59.6736 0.669469 59.2824 1.01789 58.9861L1.34985 58.7041L1.72845 58.9467C5.50345 61.3657 9.36534 63.8768 13.1394 66.4158C21.0927 71.7649 27.9368 76.7953 32.5467 79.1543C31.955 79.2403 37.6431 82.517 36.5997 82.4328C42.7021 85.568 50.232 91.226 59.8149 97.1302C60.6782 97.7479 59.7171 97.1794 59.7344 97.3361C69.9749 103.937 83.6739 112.744 87.6501 115.603C88.0241 115.78 88.4064 115.982 88.7941 116.203C88.9871 116.315 89.1819 116.431 89.3803 116.546C89.5687 116.643 89.7461 116.765 89.9455 116.853C90.7173 117.246 91.5998 117.521 92.5252 117.608C93.4489 117.689 94.41 117.576 95.2678 117.241C96.1265 116.931 96.8224 116.341 97.543 115.716C98.2646 115.257 98.2024 115.514 98.3935 115.54C101.382 113.324 105.556 110.483 105.635 110.729C106.766 109.558 108.22 108.945 109.614 107.696C108.575 108.858 111.505 106.435 112.877 105.918C112.323 106.208 119.44 101.272 122.371 99.3504C126.841 96.4194 132.292 93.4032 134.442 91.3307C145.364 84.7775 157.268 76.2609 167.719 69.3504C167.68 69.5859 168.43 69.1016 168.568 69.1768C170.469 67.5071 179.718 61.798 183.656 59.1508C184.266 58.7407 183.915 58.7219 184.097 58.5984L184.394 59.8303C182.895 60.1177 172.506 68.0093 164.753 72.3603C163.747 73.3433 163.882 73.0693 161.899 74.5169C161.971 74.4677 162.393 73.9305 162.34 73.9646C155.982 78.0747 149.646 83.0362 143.272 87.0237C140.903 88.5053 129.819 95.9923 124.235 99.1526C119.012 102.847 113.696 106.478 108.367 110.047C105.695 111.821 103.029 113.592 100.374 115.355L98.3807 116.668C97.704 117.097 97.0995 117.563 96.2902 117.942C94.752 118.651 92.977 118.836 91.3337 118.461C90.5124 118.273 89.726 117.951 89.0154 117.514C88.3259 117.081 87.6977 116.649 87.0374 116.219C85.7333 115.358 84.4338 114.5 83.1408 113.646C80.5518 111.944 77.9876 110.258 75.4554 108.593C70.3837 105.275 65.4189 102.07 60.5886 99.0523C59.771 98.4417 60.6535 98.5975 59.5342 97.8509C58.0417 96.8956 59.2735 98.1078 60.0225 98.5554C53.3641 94.2296 45.067 88.8383 36.928 83.5491C31.2774 79.8553 23.0982 74.5697 19.4649 71.687C17.464 70.8768 10.9648 66.2698 12.2103 66.8446C10.4774 65.9932 4.25609 62.0048 1.24194 59.6611L1.58487 59.6423C1.39649 59.7766 1.27029 59.9144 1.16512 60.0532C1.09928 60.2027 1.05173 60.3675 1.03344 60.5411C1.01332 60.705 1.03527 60.8983 1.04533 61.132C1.0627 61.5751 1.08099 62.046 1.09928 62.5286C1.12671 63.4954 1.13952 64.5125 1.14317 65.4534C1.1322 67.3352 1.12306 68.9108 1.12214 69.1642C1.1194 69.3746 1.30504 70.8446 1.24651 71.9959C1.23279 72.2591 0.922785 73.3477 0.924613 73.4973C0.956621 75.5277 1.13312 72.3665 1.25749 74.1383C1.64706 79.6763 0.7408 87.3272 1.35899 93.4167C0.826762 97.2036 1.30321 100.306 1.42667 106.27L0.769149 106.418C1.22822 106.844 0.81579 108.753 1.22274 109.175C1.3846 108.828 1.17518 108.273 1.21176 107.033C1.68089 108.026 1.27486 112.615 0.912725 112.819C0.943817 114.082 1.10385 114.336 1.1889 113.65C1.09105 115.7 1.01241 119.792 1.39283 120.577C0.936503 121.661 1.74125 124.025 1.08648 124.932C1.61779 126.985 1.52452 135.811 1.26389 137.762C1.60316 139.769 1.40746 141.521 1.62968 144.829C1.44404 142.8 1.34528 144.042 1.3087 146.333C1.41569 146.289 1.38917 145.44 1.41112 144.879C1.78149 145.443 1.51537 146.457 1.42575 147.736C1.59859 148.363 1.69004 149.71 1.73211 151.477C1.73942 151.919 1.74765 152.386 1.75588 152.875L1.75954 153.246C1.76045 153.285 1.75954 153.422 1.76137 153.384C1.76594 153.432 1.76686 153.543 1.77417 153.54C1.78149 153.574 1.82721 153.741 1.88848 153.824C2.01286 154.028 2.23965 154.177 2.49022 154.211C2.52131 154.219 2.55515 154.213 2.58715 154.219L2.79017 154.222L3.22272 154.224C3.51262 154.227 3.80434 154.23 4.0988 154.232C8.80476 154.278 13.9936 154.391 17.2007 154.32C19.3451 154.402 18.0621 154.477 18.0319 154.745C18.6053 154.686 19.1906 154.627 20.1938 154.627C19.7896 154.542 19.3918 154.457 19.3918 154.308C25.7082 154.179 32.4525 154.506 40.6436 154.631C51.1922 154.791 73.6493 153.851 81.566 154.746C90.8526 154.455 102.746 154.873 116.579 154.569C114.189 155.23 121.8 154.333 123.193 154.751C125.661 154.129 139.226 154.929 148.797 154.943C156.299 154.956 162.41 154.103 165.597 154.966C167.383 154.677 168.894 154.889 172.113 154.718C170.165 155.024 176.954 154.919 178.676 154.685C179.752 154.728 178.629 154.78 178.727 154.9C181.55 154.842 182.519 154.775 183.392 154.751C183.442 154.749 183.62 154.741 183.669 154.727C183.728 154.718 183.811 154.698 183.894 154.673C184.056 154.621 184.227 154.537 184.399 154.393C184.569 154.251 184.745 154.041 184.841 153.735C184.934 153.474 184.912 152.914 184.953 152.331C185.036 152.47 185.027 152.701 185.002 153.05C184.979 153.435 184.973 153.78 184.711 154.216C184.935 154.062 185.11 153.757 185.127 153.39C185.146 152.984 185.136 152.544 185.122 152.092C185.092 151.187 185.043 150.237 185.156 149.428C184.819 150.492 184.757 143.091 185.115 141.572C185.093 140.742 184.912 141.015 184.782 140.933C185.178 134.046 184.354 120.184 184.846 111.605C184.866 111.285 185.168 110.337 185.168 110.104C185.168 108.615 184.918 110.744 184.953 110.866C184.497 109.238 184.892 98.7425 184.862 93.73C184.819 86.619 184.575 77.7515 184.745 71.5939C185.179 72.6226 184.963 69.687 185.172 69.3522C185.198 67.8956 184.856 69.5698 184.847 70.14C184.686 70.3665 184.845 65.7614 185.055 67.9485C184.93 66.4364 184.878 65.3423 184.864 64.1051C184.865 63.4865 184.866 62.8321 184.867 62.0729C184.871 61.6933 184.876 61.2868 184.881 60.8455C184.894 60.4963 184.774 60.1391 184.487 59.8401C184.639 59.9189 184.775 60.0362 184.827 60.0496C184.873 60.0693 184.882 59.944 184.611 59.6566C184.624 59.6181 184.835 59.7479 185.012 60.0165C185.2 60.2833 185.282 60.679 185.277 60.9914C185.293 61.3003 185.304 61.4999 185.314 61.4015C185.316 61.3513 185.32 61.2278 185.328 61.0058C185.334 60.7882 185.359 60.4498 185.165 60.0398C185.21 60.0541 185.305 60.1812 185.374 60.3862C185.449 60.593 185.456 60.8759 185.455 61.1248C185.458 61.6387 185.425 62.1418 185.354 62.1633C185.479 62.8249 185.546 62.3406 185.587 61.5671C185.595 61.3737 185.605 61.1615 185.614 60.9458C185.628 60.7309 185.615 60.4534 185.545 60.217C185.418 59.7327 185.106 59.3665 184.886 59.1732ZM7.09284 154.802C6.11159 154.752 5.17607 154.729 4.31828 154.746C3.88938 154.755 3.48061 154.774 3.09469 154.804C2.90722 154.822 2.72524 154.839 2.54691 154.857C2.4006 154.879 2.25611 154.87 2.11253 154.859C2.37865 155.037 3.03434 154.998 3.73941 154.998C4.44173 154.985 5.21265 154.948 5.87199 154.906C7.1916 154.825 8.07225 154.73 7.09284 154.802Z" fill="#ED5F70"/>
<path d="M1.18896 113.651C1.2152 113.437 1.23601 113.144 1.24144 112.746C1.22968 112.95 1.21068 113.279 1.18896 113.651Z" fill="#ED5F70"/>
</svg>
