<svg width="24" height="27" viewBox="0 0 24 27" fill="none" xmlns="http://www.w3.org/2000/svg">
<path d="M23.7473 17.4003L21.2338 18.2901L18.4035 16.632L21.5663 15.2759L21.2688 14.5616L17.2803 16.1448L15.1984 15.0967V11.5585L17.2815 10.5104L21.1226 12.0948L21.4949 11.3805L18.3684 10.0244L21.2169 8.3663L23.7389 9.25608L23.9963 8.52342L22.1066 7.85454L23.9516 6.77333L23.572 6.10198L21.7271 7.18322L22.103 5.18647L21.3523 5.04164L20.8541 7.69622L18.0238 9.35428L18.4482 5.8958L17.6901 5.80011L17.1945 9.84152L15.0606 10.8417L11.5714 9.0217V6.99423L15.1609 4.56669L14.4863 3.94815L11.5714 6.02224V2.70002L13.9749 0.967084L13.2628 0.380452L11.5714 1.67645V0H10.3624V1.74274L9.45805 0.381688L8.6335 0.96832L10.3624 2.76751V6.07992L8.23451 3.94815L7.44988 4.56669L10.3624 7.05315V8.84005L7.75818 10.773L6.49236 9.84028L6.15742 5.79887L5.48163 5.8946L5.94586 9.35305L3.13734 7.69499L2.65009 5.0404L1.90295 5.18524L2.28135 7.18199L0.440095 6.10078L0.0580004 6.7721L1.90176 7.8533L0.00966674 8.52218L0.261149 9.25485L2.77583 8.3651L5.60494 10.0231L2.44214 11.3793L2.7396 12.0936L5.80565 10.5091L6.73654 11.4222V15.2292L5.80565 16.1423L2.42524 14.5579L2.28497 15.2722L5.52753 16.6283L2.73716 18.2864L0.240562 17.3966L0 18.1293L1.89571 18.7981L0.0543846 19.8794L0.43884 20.5507L2.2826 19.4695L1.90656 21.4662L2.65739 21.6111L3.15549 18.9565L5.98578 17.2984L5.56022 20.7569L6.31828 20.8526L6.81512 16.8112L7.75575 15.8784L10.3599 17.8114V19.5983L7.77147 22.0848L7.90687 22.7033L10.3588 20.5715V23.884L8.95391 25.6831L9.12798 26.2698L10.3624 24.9136V27H11.5714V24.9799L13.4768 26.2747L13.7609 25.6868L11.5714 23.9564V20.6354L14.6979 22.7082L14.9469 22.0897L11.5714 19.6621V17.6347L15.0618 15.8159L16.978 16.8161L17.5814 20.8575L18.3938 20.7618L17.9961 17.3021L20.8396 18.9614L21.345 21.6172L22.0982 21.4711L21.7246 19.4744L23.5708 20.5556L23.9516 19.8843L22.1079 18.8031L24 18.1342L23.7473 17.4003ZM13.9894 14.6487L11.7358 13.3282L13.9894 12.0064V14.6487ZM13.8709 11.286L11.5714 12.6336V9.92006L13.8709 11.286ZM10.3624 9.73841V12.6789L7.87064 11.2185L10.3624 9.73841ZM7.94436 11.8727L10.4277 13.3282L7.94436 14.7837V11.8727ZM7.87064 15.4379L10.3624 13.9774V16.918L7.87064 15.4379ZM11.5714 16.7363V14.0228L13.8721 15.3716L11.5714 16.7363Z" fill="white"/>
</svg>
